<?xml version="1.0" standalone="no"?>
<!DOCTYPE svg PUBLIC "-//W3C//DTD SVG 1.1//EN" "http://www.w3.org/Graphics/SVG/1.1/DTD/svg11.dtd" >
<svg xmlns="http://www.w3.org/2000/svg" xmlns:xlink="http://www.w3.org/1999/xlink" version="1.1">
<metadata>
Created by FontForge 20170731 at Tue Dec  8 23:38:01 2015
 By Aleksey,,,
(c) 2015, Copyright by Lineto. All rights reserved.
</metadata>
<defs>
<font id="CircularSpotifyText-Book" horiz-adv-x="573" >
  <font-face 
    font-family="CircularSpotifyText"
    font-weight="400"
    font-stretch="normal"
    units-per-em="1000"
    panose-1="2 11 5 4 2 1 1 2 1 2"
    ascent="800"
    descent="-200"
    x-height="481"
    cap-height="709"
    bbox="-199 -378 4910 1033"
    underline-thickness="50"
    underline-position="-200"
    unicode-range="U+000D-FEFF"
  />
<missing-glyph horiz-adv-x="559" 
d="M155 79h249v551h-249v-551zM76 0v709h407v-709h-407z" />
    <glyph glyph-name="f_f" unicode="ff" horiz-adv-x="665" 
d="M603 639q-31 0 -53.5 -18.5t-22.5 -63.5v-76h116v-85h-116v-396h-97v396h-219v-396h-97v396h-89v85h89v81q0 77 45 121t113 44q43 0 56 -10v-84q-15 6 -41 6q-31 0 -53.5 -18.5t-22.5 -63.5v-76h219v81q0 77 45 121t113 44q43 0 56 -10v-84q-15 6 -41 6z" />
    <glyph glyph-name="f_f_i" unicode="ffi" horiz-adv-x="921" 
d="M731 665q0 28 19.5 48t47.5 20t48 -19.5t20 -48.5q0 -28 -20 -47.5t-48 -19.5t-47.5 19.5t-19.5 47.5zM114 481v81q0 77 45 121t113 44q43 0 56 -10v-84q-15 6 -41 6q-31 0 -53.5 -18.5t-22.5 -63.5v-76h219v81q0 77 45 121t113 44q43 0 56 -10v-84q-15 6 -41 6
q-31 0 -53.5 -18.5t-22.5 -63.5v-76h318v-481h-93v396h-225v-396h-97v396h-219v-396h-97v396h-89v85h89z" />
    <glyph glyph-name="f_f_l" unicode="ffl" horiz-adv-x="921" 
d="M114 481v81q0 77 45 121t113 44q43 0 56 -10v-84q-15 6 -41 6q-31 0 -53.5 -18.5t-22.5 -63.5v-76h219v81q0 77 45 121t113 44q43 0 56 -10v-84q-15 6 -41 6q-31 0 -53.5 -18.5t-22.5 -63.5v-76h225v243h93v-724h-93v396h-225v-396h-97v396h-219v-396h-97v396h-89v85h89z
" />
    <glyph glyph-name="f_i" unicode="fi" horiz-adv-x="605" 
d="M415 665q0 28 19.5 48t47.5 20t48 -19.5t20 -48.5q0 -28 -20 -47.5t-48 -19.5t-47.5 19.5t-19.5 47.5zM272 727q43 0 56 -10v-84q-15 6 -41 6q-31 0 -53.5 -18t-22.5 -63v-77h318v-481h-93v396h-225v-396h-97v396h-89v85h89v81q0 77 45 121t113 44z" />
    <glyph glyph-name="f_l" unicode="fl" horiz-adv-x="603" 
d="M287 639q-31 0 -53.5 -18.5t-22.5 -63.5v-76h222v243h94v-724h-94v396h-222v-396h-97v396h-89v85h89v81q0 77 45 121t113 44q43 0 56 -10v-84q-15 6 -41 6z" />
    <glyph glyph-name="f_y" unicode="fy" horiz-adv-x="866" 
d="M538 -201h-103l120 254l-166 343h-178v-396h-97v396h-89v85h89v81q0 77 45 121t113 44q43 0 56 -10v-84q-15 6 -41 6q-31 0 -53.5 -18.5t-22.5 -63.5v-76h245l150 -332l144 332h101z" />
    <glyph glyph-name=".notdef" horiz-adv-x="559" 
d="M155 79h249v551h-249v-551zM76 0v709h407v-709h-407z" />
    <glyph glyph-name=".null" horiz-adv-x="0" 
 />
    <glyph glyph-name=".null" horiz-adv-x="0" 
 />
    <glyph glyph-name="uni000D" unicode="&#xd;" horiz-adv-x="252" 
 />
    <glyph glyph-name="space" unicode=" " horiz-adv-x="252" 
 />
    <glyph glyph-name="exclam" unicode="!" horiz-adv-x="254" 
d="M62 60q0 27 19 46.5t46 19.5t46.5 -19.5t19.5 -46.5t-19.5 -46t-46.5 -19t-46 19t-19 46zM186 709l-25 -506h-67l-26 506h118z" />
    <glyph glyph-name="quotedbl" unicode="&#x22;" horiz-adv-x="386" 
d="M219 660q0 27 17 44t44 17q26 0 43 -17t17 -44q0 -8 -2 -18l-42 -188h-34l-41 187q-2 10 -2 19zM46 660q0 27 17 44t44 17q26 0 43 -17t17 -44q0 -8 -2 -18l-42 -188h-34l-41 187q-2 10 -2 19z" />
    <glyph glyph-name="numbersign" unicode="#" horiz-adv-x="730" 
d="M305 436l-35 -174h146l37 174h-148zM366 0l37 186h-147l-37 -186h-84l37 186h-134v76h147l36 174h-134v76h146l41 197h84l-40 -197h147l40 197h85l-39 -197h141v-76h-155l-35 -174h140v-76h-154l-37 -186h-85z" />
    <glyph glyph-name="dollar" unicode="$" horiz-adv-x="570" 
d="M152 515q0 -82 92 -102l10 -2v210q-45 -8 -73.5 -37.5t-28.5 -68.5zM434 193q0 83 -104 107v-214q49 9 76.5 38t27.5 69zM331 -114h-78v116q-98 11 -154.5 71t-64.5 137l85 25q6 -55 40.5 -96.5t94.5 -52.5v231l-29 7q-77 16 -121 64t-44 120q0 78 55 133t138 66v117h78
v-118q80 -10 127 -58.5t60 -112.5l-84 -27q-8 38 -33.5 69t-70.5 42v-224l18 -4q86 -18 133 -68t47 -123q0 -74 -53.5 -130.5t-143.5 -67.5v-116z" />
    <glyph glyph-name="percent" unicode="%" horiz-adv-x="823" 
d="M224 0h-92l466 709h91zM117 561q0 -34 22 -56.5t55 -22.5t55 22.5t22 56.5t-22 56t-55 22q-32 0 -54.5 -22.5t-22.5 -55.5zM194 403q-65 0 -112.5 46t-47.5 112q0 65 47.5 111t112.5 46t113 -46t48 -111q0 -66 -48 -112t-113 -46zM551 149q0 -34 22 -56.5t55 -22.5
t55 22.5t22 56.5t-22 56t-55 22q-32 0 -54.5 -22.5t-22.5 -55.5zM789 149q0 -66 -48 -112t-113 -46t-112.5 46t-47.5 112q0 65 47.5 111t112.5 46t113 -46t48 -111z" />
    <glyph glyph-name="ampersand" unicode="&#x26;" horiz-adv-x="689" 
d="M184 553q0 -43 54 -99l22 -24l48 36q53 39 53 88q0 36 -25.5 61t-64.5 25q-34 0 -60.5 -23.5t-26.5 -63.5zM256 78q37 0 67.5 20t64.5 58l3 4l-144 151l-36 -27q-60 -46 -60 -107q0 -38 29.5 -68.5t75.5 -30.5zM544 0l-90 94q-95 -106 -199 -106q-95 0 -150 54t-55 127
q0 64 30.5 107t94.5 91l10 8l-13 14q-25 26 -38.5 42.5t-30 50t-16.5 65.5q0 81 55.5 129t127.5 48q82 0 135 -47.5t53 -125.5q0 -83 -100 -157l-36 -27l132 -137l158 176v-129l-96 -111l161 -166h-133z" />
    <glyph glyph-name="quotesingle" unicode="'" horiz-adv-x="213" 
d="M46 660q0 27 17 44t44 17q26 0 43 -17t17 -44q0 -8 -2 -18l-42 -188h-34l-41 187q-2 10 -2 19z" />
    <glyph glyph-name="parenleft" unicode="(" horiz-adv-x="311" 
d="M48 317q0 283 190 477l57 -50q-166 -186 -166 -427t166 -427l-57 -50q-190 194 -190 477z" />
    <glyph glyph-name="parenright" unicode=")" horiz-adv-x="311" 
d="M263 317q0 -283 -190 -477l-57 50q166 186 166 427t-166 427l57 50q190 -194 190 -477z" />
    <glyph glyph-name="asterisk" unicode="*" horiz-adv-x="451" 
d="M264 709v-134l123 42l23 -72l-124 -41l82 -105l-61 -46l-83 109l-78 -108l-61 46l79 104l-124 41l23 72l122 -43v135h79z" />
    <glyph glyph-name="plus" unicode="+" horiz-adv-x="545" 
d="M44 388h187v195h82v-195h188v-79h-188v-197h-82v197h-187v79z" />
    <glyph glyph-name="comma" unicode="," horiz-adv-x="268" 
d="M57 64q0 27 21 47t52 20q34 0 57.5 -25t23.5 -70q0 -90 -46 -139t-102 -56v52q36 8 59 39.5t24 68.5q-8 -5 -22 -5q-29 0 -48 18.5t-19 49.5z" />
    <glyph glyph-name="hyphen" unicode="-" horiz-adv-x="407" 
d="M339 246h-271v82h271v-82z" />
    <glyph glyph-name="period" unicode="." horiz-adv-x="252" 
d="M57 64q0 29 20 49.5t49 20.5t49.5 -20.5t20.5 -49.5t-20.5 -49t-49.5 -20t-49 20t-20 49z" />
    <glyph glyph-name="slash" unicode="/" horiz-adv-x="489" 
d="M462 709l-343 -709h-91l343 709h91z" />
    <glyph glyph-name="zero" unicode="0" horiz-adv-x="658" 
d="M506 354q0 57 -8.5 104t-27.5 88.5t-55 64.5t-86 23q-176 0 -176 -280q0 -78 14 -137t55 -101t107 -42q50 0 86 23t55 64.5t27.5 88.5t8.5 104zM55 354q0 54 7.5 103t27 98.5t49 85.5t78.5 58.5t112 22.5t112 -22.5t78.5 -58.5t49 -85.5t27 -98.5t7.5 -103t-7 -102.5
t-26.5 -98t-49.5 -85.5t-79 -58.5t-112 -22.5q-78 0 -134 33t-85 89.5t-42 116.5t-13 128z" />
    <glyph glyph-name="one" unicode="1" horiz-adv-x="355" 
d="M279 0h-96v518h-157v69q66 1 111 34.5t56 87.5h86v-709z" />
    <glyph glyph-name="two" unicode="2" horiz-adv-x="592" 
d="M539 0h-488q3 182 151 272l129 81q105 67 105 152q0 56 -37.5 93.5t-98.5 37.5q-69 0 -110.5 -42t-41.5 -111q0 -20 4 -37l-93 4q-4 22 -4 44q0 96 65.5 162t176.5 66q108 0 171.5 -61.5t63.5 -153.5q0 -129 -136 -214l-146 -90q-67 -42 -82 -113h371v-90z" />
    <glyph glyph-name="three" unicode="3" horiz-adv-x="607" 
d="M346 428q87 -2 148 -61t61 -154t-70.5 -160.5t-182.5 -65.5q-111 0 -181 62.5t-76 158.5l93 21q3 -70 49 -113t114 -43q70 0 113.5 40t43.5 102q0 65 -42 103t-109 38q-33 0 -66 -14l-43 71l214 206h-348v90h472v-81l-213 -204q9 4 23 4z" />
    <glyph glyph-name="four" unicode="4" horiz-adv-x="621" 
d="M371 250v352l-248 -352h248zM31 159v111l312 439h124v-459h122v-91h-122v-159h-96v159h-340z" />
    <glyph glyph-name="five" unicode="5" horiz-adv-x="589" 
d="M39 197l89 22q6 -63 50 -104.5t111 -41.5q70 0 113.5 42.5t43.5 109.5q0 72 -44 113.5t-113 41.5q-89 0 -141 -67l-89 33l77 363h374v-90h-307l-46 -217q25 28 67 43.5t84 15.5q106 0 170.5 -63.5t64.5 -171.5q0 -101 -69.5 -170t-184.5 -69q-104 0 -173 61t-77 149z" />
    <glyph glyph-name="six" unicode="6" horiz-adv-x="629" 
d="M165 227q0 -68 47 -112t112 -44q68 0 114.5 43.5t46.5 112.5q0 71 -45.5 114t-113.5 43t-114.5 -44.5t-46.5 -112.5zM146 349q22 52 75.5 85t127.5 33q102 0 167 -66t65 -172q0 -105 -74 -173.5t-182 -68.5q-120 0 -196 87t-76 238q0 195 102.5 302.5t261.5 107.5
q94 0 150 -37l-28 -82q-58 32 -127 32q-119 0 -188 -79.5t-78 -206.5z" />
    <glyph glyph-name="seven" unicode="7" horiz-adv-x="556" 
d="M542 709v-85q-266 -245 -303 -624h-101q11 122 46 230.5t83 185t84.5 121.5t75.5 82h-401v90h516z" />
    <glyph glyph-name="eight" unicode="8" horiz-adv-x="608" 
d="M304 401q64 1 101.5 34.5t37.5 86.5q0 51 -37.5 84t-101.5 33t-101.5 -33t-37.5 -84q0 -52 38 -86t101 -35zM304 -13q-113 0 -181 56t-68 144q0 62 38.5 110.5t101.5 65.5q-57 17 -91.5 63t-34.5 102q0 85 65.5 139.5t169.5 54.5t169.5 -54.5t65.5 -139.5
q0 -56 -34.5 -102t-92.5 -63q64 -17 102.5 -65.5t38.5 -110.5q0 -88 -68 -144t-181 -56zM304 324q-73 0 -113.5 -36.5t-40.5 -91.5q0 -54 41.5 -90.5t112.5 -36.5t112.5 36.5t41.5 90.5q0 55 -40.5 91.5t-113.5 36.5z" />
    <glyph glyph-name="nine" unicode="9" horiz-adv-x="619" 
d="M450 487q-1 68 -45 109t-110 41t-110 -42t-44 -110q0 -70 44 -112.5t111 -42.5t110.5 43.5t43.5 113.5zM471 344q-26 -42 -77 -69.5t-109 -27.5q-99 0 -168 63.5t-69 170.5q0 106 70.5 173t180.5 68q121 0 193.5 -88.5t72.5 -251.5q0 -195 -82 -295t-238 -100
q-52 0 -102.5 17t-77.5 44l31 77q22 -22 63 -37t84 -15q105 0 164.5 69.5t63.5 201.5z" />
    <glyph glyph-name="colon" unicode=":" horiz-adv-x="276" 
d="M68 416q0 29 20 49.5t49 20.5t49.5 -20.5t20.5 -49.5t-20.5 -49t-49.5 -20t-49 20t-20 49zM69 64q0 29 20 49.5t49 20.5t49.5 -20.5t20.5 -49.5t-20.5 -49t-49.5 -20t-49 20t-20 49z" />
    <glyph glyph-name="semicolon" unicode=";" horiz-adv-x="291" 
d="M73 416q0 29 20 49.5t49 20.5t49.5 -20.5t20.5 -49.5t-20.5 -49t-49.5 -20t-49 20t-20 49zM72 62q0 26 20 44.5t50 18.5q33 0 55 -23.5t22 -66.5q0 -85 -43.5 -131.5t-97.5 -53.5v49q34 8 56 37.5t23 65.5q-7 -5 -21 -5q-27 0 -45.5 17.5t-18.5 47.5z" />
    <glyph glyph-name="less" unicode="&#x3c;" horiz-adv-x="525" 
d="M38 305v85l412 206v-95l-310 -153l310 -153v-95z" />
    <glyph glyph-name="equal" unicode="=" horiz-adv-x="601" 
d="M532 212h-463v79h463v-79zM532 407h-463v77h463v-77z" />
    <glyph glyph-name="greater" unicode="&#x3e;" horiz-adv-x="525" 
d="M487 390v-85l-412 -205v95l312 153l-312 153v95z" />
    <glyph glyph-name="question" unicode="?" horiz-adv-x="510" 
d="M174 60q0 27 19 46.5t46 19.5t46.5 -19.5t19.5 -46.5t-19.5 -46t-46.5 -19t-46 19t-19 46zM284 203h-88q-1 12 -1 35q0 100 83 156l44 30q53 36 53 98q0 48 -31 81t-88 33q-61 0 -93 -38t-32 -90q0 -30 7 -49l-97 12q-6 21 -6 48q0 49 22 94t74 78t125 33
q100 0 159.5 -60t59.5 -141q0 -105 -102 -174l-46 -31q-44 -30 -44 -96q0 -9 1 -19z" />
    <glyph glyph-name="at" unicode="@" horiz-adv-x="831" 
d="M519 370q0 45 -22 69.5t-62 24.5q-52 0 -85.5 -44.5t-33.5 -102.5q0 -109 85 -109q51 0 83.5 45.5t34.5 116.5zM605 137q-37 0 -64 16t-35 48q-46 -66 -119 -66q-68 0 -110.5 47t-42.5 124q0 99 59 166t141 67q35 0 65.5 -17t41.5 -49l9 53h79l-54 -251q-3 -15 -3 -28
q0 -41 38 -41q42 0 75 57.5t33 132.5q0 111 -77.5 183t-202.5 72q-133 0 -220 -88.5t-87 -230.5q0 -134 85.5 -220t232.5 -86q117 0 205 70l41 -54q-43 -40 -111.5 -64.5t-134.5 -24.5q-176 0 -288 105.5t-112 274.5q0 171 113 281t275 110q153 0 255.5 -93.5t102.5 -233.5
q0 -111 -55.5 -185.5t-134.5 -74.5z" />
    <glyph glyph-name="A" unicode="A" horiz-adv-x="711" 
d="M353 607l-121 -318h244zM588 0l-77 198h-314l-75 -198h-105l282 709h113l282 -709h-106z" />
    <glyph glyph-name="B" unicode="B" horiz-adv-x="616" 
d="M193 86h136q60 0 96.5 31t36.5 82q0 53 -33 84.5t-96 31.5h-140v-229zM193 399h122q58 0 92 31.5t34 81.5q0 51 -35 81t-95 30h-118v-224zM95 709h231q99 0 156.5 -53t57.5 -139q0 -55 -29 -95t-77 -58q59 -15 93.5 -62.5t34.5 -108.5q0 -84 -61 -138.5t-158 -54.5h-248
v709z" />
    <glyph glyph-name="C" unicode="C" horiz-adv-x="748" 
d="M401 -15q-145 0 -248.5 100t-103.5 270q0 114 52 200t131 127.5t169 41.5q120 0 202.5 -60.5t109.5 -164.5l-91 -32q-20 80 -77 123.5t-144 43.5q-104 0 -178 -73.5t-74 -205.5t74 -206t178 -74q87 0 145 46.5t81 123.5l87 -32q-29 -103 -111.5 -165.5t-201.5 -62.5z" />
    <glyph glyph-name="D" unicode="D" horiz-adv-x="730" 
d="M341 0h-246v709h248q143 0 240 -94.5t97 -261.5q0 -166 -98 -259.5t-241 -93.5zM193 87h145q104 0 172.5 69t68.5 197q0 129 -67.5 199t-171.5 70h-147v-535z" />
    <glyph glyph-name="E" unicode="E" horiz-adv-x="580" 
d="M526 0h-431v709h431v-91h-333v-218h302v-92h-302v-217h333v-91z" />
    <glyph glyph-name="F" unicode="F" horiz-adv-x="571" 
d="M193 0h-98v709h431v-91h-333v-228h302v-92h-302v-298z" />
    <glyph glyph-name="G" unicode="G" horiz-adv-x="772" 
d="M708 0h-79l-9 100q-26 -47 -85 -81t-142 -34q-91 0 -168 41.5t-126.5 127.5t-49.5 201t52 201t130.5 127t168.5 41q114 0 198.5 -58.5t115.5 -155.5l-89 -38q-24 77 -83.5 119.5t-141.5 42.5q-103 0 -177 -73t-74 -206q0 -134 72.5 -207.5t174.5 -73.5q56 0 99.5 18
t68 47.5t37 59.5t14.5 60h-246v88h339v-347z" />
    <glyph glyph-name="H" unicode="H" horiz-adv-x="748" 
d="M653 0h-98v315h-362v-315h-98v709h98v-303h362v303h98v-709z" />
    <glyph glyph-name="I" unicode="I" horiz-adv-x="290" 
d="M195 0h-100v709h100v-709z" />
    <glyph glyph-name="J" unicode="J" horiz-adv-x="551" 
d="M29 211v46l98 22v-67q0 -68 33 -102t89 -34q54 0 85 34t31 95v504h98v-497q0 -96 -58.5 -161.5t-154.5 -65.5q-103 0 -162 61.5t-59 164.5z" />
    <glyph glyph-name="K" unicode="K" horiz-adv-x="663" 
d="M534 0l-240 322l-101 -108v-214h-98v709h98v-365l332 365h129l-295 -316l299 -393h-124z" />
    <glyph glyph-name="L" unicode="L" horiz-adv-x="547" 
d="M528 0h-433v709h98v-617h335v-92z" />
    <glyph glyph-name="M" unicode="M" horiz-adv-x="956" 
d="M861 0h-97v552l-242 -552h-90l-240 552v-552h-97v709h133l250 -577l252 577h131v-709z" />
    <glyph glyph-name="N" unicode="N" horiz-adv-x="773" 
d="M678 0h-102l-383 578v-578h-98v709h131l354 -544v544h98v-709z" />
    <glyph glyph-name="O" unicode="O" horiz-adv-x="808" 
d="M48 355q0 86 30.5 157t81 116.5t113.5 70.5t131 25t131 -25t113.5 -70.5t81 -116.5t30.5 -157q0 -114 -52.5 -200t-132.5 -128t-171 -42t-171 42t-132.5 128t-52.5 200zM148 355q0 -132 75 -206t181 -74t181 74t75 206t-75 205.5t-181 73.5t-181 -73.5t-75 -205.5z" />
    <glyph glyph-name="P" unicode="P" horiz-adv-x="602" 
d="M353 290h-160v-290h-98v709h258q97 0 158 -60t61 -150q0 -91 -61 -150t-158 -59zM193 378h142q63 0 100 32.5t37 87.5q0 56 -37 89.5t-100 33.5h-142v-243z" />
    <glyph glyph-name="Q" unicode="Q" horiz-adv-x="808" 
d="M148 355q0 -132 75 -206t181 -74q68 0 124 31l-123 138l68 59l124 -140q63 76 63 192q0 132 -75 205.5t-181 73.5t-181 -73.5t-75 -205.5zM48 355q0 86 30.5 157t81 116.5t113.5 70.5t131 25t131 -25t113.5 -70.5t81 -116.5t30.5 -157q0 -159 -100 -262l83 -93l-67 -59
l-86 95q-84 -51 -186 -51q-91 0 -171 42t-132.5 128t-52.5 200z" />
    <glyph glyph-name="R" unicode="R" horiz-adv-x="629" 
d="M194 378h150q60 0 97 32.5t37 87.5q0 56 -37 89.5t-97 33.5h-150v-243zM462 0l-162 290h-106v-290h-99v709h267q98 0 157.5 -60.5t59.5 -150.5q0 -77 -46 -131.5t-126 -69.5l169 -297h-114z" />
    <glyph glyph-name="S" unicode="S" horiz-adv-x="594" 
d="M540 548l-88 -31q-7 46 -45 83.5t-105 37.5q-59 0 -98 -34t-39 -84q0 -39 23.5 -66t67.5 -37l106 -23q88 -19 136 -71.5t48 -127.5q0 -86 -68 -148t-177 -62q-119 0 -186.5 62.5t-78.5 148.5l94 30q6 -64 50 -108t120 -44q70 0 108 32t38 81q0 40 -27 69.5t-79 40.5
l-101 22q-79 17 -126 67t-47 127q0 84 68.5 147.5t165.5 63.5q109 0 167 -53t73 -123z" />
    <glyph glyph-name="T" unicode="T" horiz-adv-x="608" 
d="M590 618h-237v-618h-98v618h-237v91h572v-91z" />
    <glyph glyph-name="U" unicode="U" horiz-adv-x="686" 
d="M343 -15q-112 0 -183.5 68t-71.5 189v467h97v-464q0 -81 41.5 -125t116.5 -44t116 44t41 125v464h98v-467q0 -121 -71.5 -189t-183.5 -68z" />
    <glyph glyph-name="V" unicode="V" horiz-adv-x="676" 
d="M339 126l216 583h103l-273 -709h-97l-267 709h104z" />
    <glyph glyph-name="W" unicode="W" horiz-adv-x="1020" 
d="M742 148l153 561h101l-202 -709h-101l-185 575l-183 -575h-98l-205 709h101l156 -555l178 555h103z" />
    <glyph glyph-name="X" unicode="X" horiz-adv-x="625" 
d="M611 709l-241 -354l238 -355h-117l-179 277l-183 -277h-115l242 355l-240 354h118l179 -278l182 278h116z" />
    <glyph glyph-name="Y" unicode="Y" horiz-adv-x="642" 
d="M272 303l-250 406h118l184 -316l184 316h112l-250 -406v-303h-98v303z" />
    <glyph glyph-name="Z" unicode="Z" horiz-adv-x="633" 
d="M589 0h-547v98l423 520h-413v91h532v-95l-425 -522h430v-92z" />
    <glyph glyph-name="bracketleft" unicode="[" horiz-adv-x="297" 
d="M267 -148h-193v933h193v-76h-111v-782h111v-75z" />
    <glyph glyph-name="backslash" unicode="\" horiz-adv-x="489" 
d="M368 0l-341 709h93l341 -709h-93z" />
    <glyph glyph-name="bracketright" unicode="]" horiz-adv-x="297" 
d="M223 -148h-193v75h111v782h-111v76h193v-933z" />
    <glyph glyph-name="asciicircum" unicode="^" horiz-adv-x="551" 
d="M511 354h-99l-136 258l-137 -258h-99l194 356h83z" />
    <glyph glyph-name="underscore" unicode="_" horiz-adv-x="522" 
d="M517 -79h-512v79h512v-79z" />
    <glyph glyph-name="grave" unicode="`" horiz-adv-x="272" 
d="M160 543l-126 146h118l86 -146h-78z" />
    <glyph glyph-name="a" unicode="a" horiz-adv-x="523" 
d="M218 64q63 0 101 34t38 108v22l-147 -22q-32 -5 -51 -23t-19 -49q0 -28 21.5 -49t56.5 -21zM44 129q0 62 40 99.5t106 46.5l130 19q37 5 37 36q0 38 -26 62t-78 24q-48 0 -76 -26.5t-33 -70.5l-90 21q7 69 63 112.5t134 43.5q102 0 151 -49.5t49 -126.5v-241q0 -43 6 -79
h-92q-5 30 -5 65q-20 -32 -58.5 -56t-96.5 -24q-71 0 -116 42.5t-45 101.5z" />
    <glyph glyph-name="b" unicode="b" horiz-adv-x="594" 
d="M453 243q0 78 -38.5 123.5t-103.5 45.5q-63 0 -103 -46t-40 -123t40 -124.5t103 -47.5q64 0 103 47t39 125zM169 0h-93v724h93v-311q19 35 60.5 58.5t98.5 23.5q105 0 163 -71t58 -181q0 -111 -60 -183.5t-164 -72.5q-108 0 -156 83v-70z" />
    <glyph glyph-name="c" unicode="c" horiz-adv-x="539" 
d="M286 409q-61 0 -103.5 -44t-42.5 -124q0 -79 42.5 -124t104.5 -45q60 0 91.5 30t42.5 69l83 -36q-20 -60 -75.5 -105t-141.5 -45q-105 0 -174 73t-69 183q0 112 69 183.5t173 71.5q88 0 142.5 -45t71.5 -108l-85 -36q-11 42 -42 72t-87 30z" />
    <glyph glyph-name="d" unicode="d" horiz-adv-x="589" 
d="M421 65v8q-19 -37 -57.5 -61.5t-91.5 -24.5q-103 0 -165.5 72.5t-62.5 182.5q0 105 64 178.5t164 73.5q59 0 96 -23.5t51 -57.5v311h93v-635q0 -49 5 -89h-91q-5 28 -5 65zM140 242q0 -76 37.5 -124t103.5 -48q63 0 101 49t38 125q0 75 -37 121t-101 46t-103 -47
t-39 -122z" />
    <glyph glyph-name="e" unicode="e" horiz-adv-x="547" 
d="M421 165l81 -28q-21 -67 -78 -109.5t-138 -42.5q-101 0 -171.5 69.5t-70.5 187.5q0 110 68 182t162 72q109 0 170 -68.5t61 -183.5q0 -18 -2 -30h-362q1 -64 42.5 -105t102.5 -41q103 0 135 97zM144 290h263q-2 54 -36.5 88.5t-95.5 34.5q-56 0 -92 -36.5t-39 -86.5z" />
    <glyph glyph-name="f" unicode="f" horiz-adv-x="349" 
d="M327 396h-116v-396h-97v396h-89v85h89v81q0 77 45 121t113 44q43 0 56 -10v-84q-15 6 -41 6q-31 0 -53.5 -18.5t-22.5 -63.5v-76h116v-85z" />
    <glyph glyph-name="g" unicode="g" horiz-adv-x="583" 
d="M280 102q61 0 99 42.5t38 111.5t-38 111.5t-99 42.5q-62 0 -100.5 -42t-38.5 -112q0 -71 37.5 -112.5t101.5 -41.5zM44 -26l91 21q5 -51 41 -84.5t90 -33.5q147 0 147 156v69q-18 -35 -56.5 -57t-90.5 -22q-96 0 -158.5 65.5t-62.5 167.5q0 99 62 166.5t159 67.5
q110 0 148 -76v67h93v-445q0 -48 -12.5 -89.5t-39.5 -76.5t-75.5 -55t-113.5 -20q-89 0 -151 50.5t-71 128.5z" />
    <glyph glyph-name="h" unicode="h" horiz-adv-x="559" 
d="M170 283v-283h-94v724h94v-299q48 70 146 70q83 0 127.5 -53t44.5 -137v-305h-94v289q0 121 -112 121q-52 0 -81 -35.5t-31 -91.5z" />
    <glyph glyph-name="i" unicode="i" horiz-adv-x="245" 
d="M55 663q0 28 19.5 48t47.5 20t48 -19.5t20 -48.5q0 -28 -20 -47.5t-48 -19.5t-47.5 19.5t-19.5 47.5zM169 0h-93v481h93v-481z" />
    <glyph glyph-name="j" unicode="j" horiz-adv-x="246" 
d="M55 665q0 28 19.5 48t47.5 20t48 -19.5t20 -48.5q0 -28 -20 -47.5t-48 -19.5t-47.5 19.5t-19.5 47.5zM76 -52v533h94v-537q0 -66 -36 -107.5t-97 -41.5q-35 0 -56 7v79q15 -3 30 -3q65 0 65 70z" />
    <glyph glyph-name="k" unicode="k" horiz-adv-x="526" 
d="M507 481l-205 -203l209 -278h-118l-157 212l-67 -67v-145h-93v724h93v-456l208 213h130z" />
    <glyph glyph-name="l" unicode="l" horiz-adv-x="246" 
d="M170 0h-94v724h94v-724z" />
    <glyph glyph-name="m" unicode="m" horiz-adv-x="854" 
d="M169 0h-93v481h90v-64q22 38 62 58t84 20q47 0 86 -23t58 -68q50 91 161 91q69 0 117.5 -47t48.5 -136v-312h-93v302q0 50 -25.5 80t-76.5 30q-49 0 -80 -34.5t-31 -86.5v-291h-94v302q0 50 -25.5 80t-76.5 30q-50 0 -81 -34t-31 -88v-290z" />
    <glyph glyph-name="n" unicode="n" horiz-adv-x="559" 
d="M170 278v-278h-94v481h92v-69q48 83 148 83q83 0 127.5 -53t44.5 -137v-305h-94v289q0 121 -112 121q-53 0 -82.5 -37.5t-29.5 -94.5z" />
    <glyph glyph-name="o" unicode="o" horiz-adv-x="580" 
d="M290 496q107 0 176.5 -72.5t69.5 -182.5q0 -111 -69 -183.5t-177 -72.5t-177 72.5t-69 183.5q0 110 69.5 182.5t176.5 72.5zM290 69q63 0 106.5 45.5t43.5 126.5q0 80 -43.5 125.5t-106.5 45.5t-106.5 -45.5t-43.5 -125.5q0 -81 43.5 -126.5t106.5 -45.5z" />
    <glyph glyph-name="p" unicode="p" horiz-adv-x="594" 
d="M453 241q0 73 -38.5 120.5t-103.5 47.5q-64 0 -103.5 -47.5t-39.5 -120.5q0 -75 39.5 -122.5t103.5 -47.5t103 47.5t39 122.5zM169 -190h-93v671h91v-75q21 38 63 62t98 24q104 0 162.5 -71t58.5 -180q0 -110 -60.5 -182t-163.5 -72q-53 0 -94 22t-62 56v-255z" />
    <glyph glyph-name="q" unicode="q" horiz-adv-x="592" 
d="M141 242q0 -75 38.5 -123.5t102.5 -48.5q63 0 102.5 48.5t39.5 123.5t-39 121.5t-103 46.5q-65 0 -103 -46.5t-38 -121.5zM516 -190h-93v258q-19 -37 -58.5 -59t-91.5 -22q-101 0 -164.5 73.5t-63.5 181.5q0 106 61.5 178.5t164.5 72.5q58 0 97.5 -25t56.5 -61v74h91
v-671z" />
    <glyph glyph-name="r" unicode="r" horiz-adv-x="363" 
d="M343 486v-100q-21 3 -41 3q-132 0 -132 -148v-241h-94v481h92v-84q44 92 144 92q16 0 31 -3z" />
    <glyph glyph-name="s" unicode="s" horiz-adv-x="455" 
d="M38 125l85 30q5 -39 34 -64.5t78 -25.5q38 0 60 18.5t22 45.5q0 48 -62 62l-82 18q-56 12 -88 48t-32 87q0 62 50.5 107t120.5 45q46 0 82 -13.5t56 -35.5t30 -41t15 -39l-83 -31q-2 12 -7 23.5t-15.5 25.5t-30.5 22.5t-47 8.5q-35 0 -57.5 -19t-22.5 -45q0 -46 55 -58
l78 -17q64 -14 98.5 -51.5t34.5 -91.5q0 -57 -46.5 -103t-129.5 -46q-89 0 -139 44.5t-57 95.5z" />
    <glyph glyph-name="t" unicode="t" horiz-adv-x="347" 
d="M207 633v-152h104v-85h-104v-250q0 -34 15.5 -50t51.5 -16q21 0 37 4v-80q-24 -9 -64 -9q-62 0 -98 36t-36 101v264h-92v85h26q37 0 55.5 20.5t18.5 53.5v78h86z" />
    <glyph glyph-name="u" unicode="u" horiz-adv-x="559" 
d="M393 58q-19 -36 -58 -54.5t-84 -18.5q-82 0 -131 54.5t-49 138.5v303h94v-289q0 -54 26.5 -89t82.5 -35t85 33.5t29 89.5v290h94v-392q0 -47 5 -89h-90q-4 22 -4 58z" />
    <glyph glyph-name="v" unicode="v" horiz-adv-x="528" 
d="M504 481l-192 -481h-95l-195 481h106l137 -371l138 371h101z" />
    <glyph glyph-name="w" unicode="w" horiz-adv-x="816" 
d="M362 481h97l125 -362l106 362h99l-156 -481h-97l-128 366l-125 -366h-99l-158 481h103l108 -362z" />
    <glyph glyph-name="x" unicode="x" horiz-adv-x="507" 
d="M18 0l179 245l-173 236h114l118 -169l116 169h111l-171 -236q15 -19 89 -122.5t88 -122.5h-113l-124 177l-122 -177h-112z" />
    <glyph glyph-name="y" unicode="y" horiz-adv-x="538" 
d="M210 -201h-103l120 254l-207 428h108l150 -332l144 332h101z" />
    <glyph glyph-name="z" unicode="z" horiz-adv-x="477" 
d="M432 0h-386v82l264 314h-260v85h377v-82l-264 -314h269v-85z" />
    <glyph glyph-name="braceleft" unicode="{" horiz-adv-x="346" 
d="M14 275v86q48 0 79 24.5t31 76.5v137q0 186 180 186h13v-75h-13q-54 0 -76 -24.5t-22 -80.5v-164q0 -50 -27.5 -82t-76.5 -41q49 -9 76.5 -41t27.5 -82v-163q0 -56 22 -80.5t76 -24.5h13v-75h-13q-180 0 -180 186v136q0 52 -31 76.5t-79 24.5z" />
    <glyph glyph-name="bar" unicode="|" horiz-adv-x="230" 
d="M156 -148h-82v933h82v-933z" />
    <glyph glyph-name="braceright" unicode="}" horiz-adv-x="346" 
d="M332 361v-86q-48 0 -79 -24.5t-31 -76.5v-136q0 -186 -180 -186h-13v75h13q54 0 76 24.5t22 80.5v163q0 50 27.5 82t76.5 41q-49 9 -76.5 41t-27.5 82v164q0 56 -22 80.5t-76 24.5h-13v75h13q180 0 180 -186v-137q0 -52 31 -76.5t79 -24.5z" />
    <glyph glyph-name="asciitilde" unicode="~" horiz-adv-x="634" 
d="M321 239l-46 25q-29 15 -54 15q-54 0 -96 -57l-57 46q58 95 152 95q49 0 95 -26l46 -25q28 -16 57 -16q58 0 93 55l57 -46q-56 -93 -150 -93q-48 0 -97 27z" />
    <glyph glyph-name="uni00A0" unicode="&#xa0;" horiz-adv-x="252" 
 />
    <glyph glyph-name="exclamdown" unicode="&#xa1;" horiz-adv-x="242" 
d="M56 430q0 27 19 46.5t46 19.5t46.5 -19.5t19.5 -46.5t-19.5 -46t-46.5 -19t-46 19t-19 46zM155 288l25 -505h-118l26 505h67z" />
    <glyph glyph-name="cent" unicode="&#xa2;" horiz-adv-x="553" 
d="M141 350q0 -63 31 -106.5t83 -56.5v326q-52 -12 -83 -55.5t-31 -107.5zM427 416q-22 80 -96 97v-326q75 17 101 97l81 -30q-16 -59 -63.5 -103t-117.5 -54v-97h-78v98q-91 13 -148.5 82t-57.5 170t58 170.5t148 82.5v106h78v-107q70 -9 116 -51.5t62 -103.5z" />
    <glyph glyph-name="sterling" unicode="&#xa3;" horiz-adv-x="604" 
d="M424 304h-170q6 -30 6 -45q0 -55 -23 -100t-62 -73h195q51 0 80.5 32.5t31.5 85.5l86 -14q-3 -86 -52 -138t-132 -52h-329v82q49 26 79.5 70t30.5 101q0 21 -7 51h-96v80h73q-34 84 -34 135q0 88 59 145.5t157 57.5q95 0 148.5 -54.5t57.5 -131.5l-84 -21q-3 54 -36 87.5
t-86 33.5q-54 0 -86.5 -31t-32.5 -91q0 -22 4.5 -41.5t16.5 -50t15 -38.5h190v-80z" />
    <glyph glyph-name="currency" unicode="&#xa4;" horiz-adv-x="614" 
d="M180 347q0 -58 37.5 -95t92.5 -37t91.5 37t36.5 95q0 57 -36.5 94t-91.5 37t-92.5 -37t-37.5 -94zM97 347q0 66 37 121l-75 77l60 59l75 -78q54 35 116 35q60 0 111 -31l72 74l60 -59l-70 -73q41 -57 41 -125q0 -70 -40 -123l69 -71l-59 -59l-70 72q-52 -33 -114 -33
q-64 0 -119 37l-73 -76l-59 59l73 76q-35 54 -35 118z" />
    <glyph glyph-name="yen" unicode="&#xa5;" horiz-adv-x="641" 
d="M86 374h147l-201 335h111l180 -307l179 307h107l-203 -335h149v-72h-186v-75h186v-72h-186v-155h-98v155h-185v72h185v75h-185v72z" />
    <glyph glyph-name="brokenbar" unicode="&#xa6;" horiz-adv-x="240" 
d="M79 251h82v-399h-82v399zM79 785h82v-399h-82v399z" />
    <glyph glyph-name="section" unicode="&#xa7;" horiz-adv-x="516" 
d="M299 316l-99 54q-18 -8 -32.5 -30.5t-14.5 -48.5q0 -29 14.5 -49t48.5 -38l99 -54q18 8 32.5 30.5t14.5 48.5q0 53 -63 87zM453 244q0 -42 -26 -76t-57 -47q41 -26 64 -64.5t23 -79.5q0 -80 -59.5 -130.5t-143.5 -50.5q-92 0 -142 50t-52 133l88 18q0 -56 27.5 -89.5
t80.5 -33.5q48 0 76.5 24.5t28.5 68.5q0 56 -58 86l-103 54q-67 35 -102 71t-35 96q0 43 26 77.5t58 46.5q-42 26 -65 64.5t-23 80.5q0 80 59.5 130.5t142.5 50.5q92 0 143.5 -52t51.5 -131l-89 -18q0 57 -27.5 89.5t-80.5 32.5q-47 0 -76 -25.5t-29 -67.5q0 -54 59 -85
l102 -54q67 -36 102.5 -72.5t35.5 -96.5z" />
    <glyph glyph-name="dieresis" unicode="&#xa8;" horiz-adv-x="379" 
d="M225 621q0 24 16.5 41t41.5 17q24 0 41 -17t17 -41q0 -25 -17 -41.5t-41 -16.5q-25 0 -41.5 16.5t-16.5 41.5zM38 621q0 24 16.5 41t40.5 17q25 0 42 -17t17 -41q0 -25 -17 -41.5t-42 -16.5q-24 0 -40.5 16.5t-16.5 41.5z" />
    <glyph glyph-name="copyright" unicode="&#xa9;" horiz-adv-x="829" 
d="M415 494q-50 0 -84.5 -36t-34.5 -101t34.5 -101.5t85.5 -36.5q85 0 109 81l68 -30q-17 -49 -62 -85.5t-115 -36.5q-85 0 -141.5 60t-56.5 149q0 91 56 149.5t141 58.5q72 0 116.5 -37t58.5 -88l-70 -29q-8 34 -33.5 58.5t-71.5 24.5zM49 355q0 153 106.5 261t257.5 108
q152 0 259.5 -108.5t107.5 -260.5q0 -153 -107.5 -261.5t-259.5 -108.5q-151 0 -257.5 108.5t-106.5 261.5zM127 355q0 -126 83 -211.5t203 -85.5t203 85.5t83 211.5t-83 211t-203 85t-203 -85t-83 -211z" />
    <glyph glyph-name="ordfeminine" unicode="&#xaa;" horiz-adv-x="408" 
d="M176 420q90 0 90 93v15l-95 -15q-47 -7 -47 -47q0 -19 14 -32.5t38 -13.5zM49 462q0 43 29 70t74 33l88 12q26 4 26 25q0 24 -17 40t-51 16q-32 0 -51 -18t-22 -47l-69 16q5 47 43.5 79t97.5 32q73 0 108 -35.5t35 -90.5v-169q0 -39 4 -55h-71q-4 16 -4 44
q-32 -54 -105 -54q-52 0 -83.5 30t-31.5 72z" />
    <glyph glyph-name="guillemotleft" unicode="&#xab;" horiz-adv-x="512" 
d="M463 99h-93l-133 191l133 191h93l-131 -191zM268 99h-93l-133 191l133 191h93l-131 -191z" />
    <glyph glyph-name="logicalnot" unicode="&#xac;" horiz-adv-x="586" 
d="M513 210h-84v195h-379v82h463v-277z" />
    <glyph glyph-name="uni00AD" unicode="&#xad;" horiz-adv-x="407" 
d="M339 246h-271v82h271v-82z" />
    <glyph glyph-name="registered" unicode="&#xae;" horiz-adv-x="829" 
d="M367 307v-150h-76v402h139q58 0 97 -36.5t39 -89.5q0 -42 -24.5 -74t-63.5 -45l90 -157h-87l-84 150h-30zM367 373h52q34 0 52 15.5t18 43.5q0 61 -70 61h-52v-120zM127 355q0 -126 83 -211.5t203 -85.5t203 85.5t83 211.5t-83 211t-203 85t-203 -85t-83 -211zM49 355
q0 153 106.5 261t257.5 108q152 0 259.5 -108.5t107.5 -260.5q0 -153 -107.5 -261.5t-259.5 -108.5q-151 0 -257.5 108.5t-106.5 261.5z" />
    <glyph glyph-name="macron" unicode="&#xaf;" horiz-adv-x="343" 
d="M308 577h-273v81h273v-81z" />
    <glyph glyph-name="degree" unicode="&#xb0;" horiz-adv-x="401" 
d="M40 563q0 65 47.5 111t112.5 46t113 -46t48 -111q0 -66 -48 -112t-113 -46t-112.5 46t-47.5 112zM123 563q0 -34 22 -56.5t55 -22.5t55 22.5t22 56.5t-22 56t-55 22q-32 0 -54.5 -22.5t-22.5 -55.5z" />
    <glyph glyph-name="plusminus" unicode="&#xb1;" horiz-adv-x="591" 
d="M77 191h437v-79h-437v79zM77 447h177v136h82v-136h178v-77h-178v-134h-82v134h-177v77z" />
    <glyph glyph-name="twosuperior" unicode="&#xb2;" horiz-adv-x="345" 
d="M118 568h-74q-3 15 -3 31q0 49 36 83t96 34q59 0 95 -33.5t36 -81.5q0 -66 -70 -110l-72 -45q-27 -18 -31 -37h175v-65h-268v13q0 93 85 145l60 37q43 26 43 63q0 21 -14.5 35.5t-39.5 14.5q-26 0 -41.5 -16t-15.5 -42q0 -12 3 -26z" />
    <glyph glyph-name="threesuperior" unicode="&#xb3;" horiz-adv-x="362" 
d="M149 509l-29 56l95 79h-171v65h271v-63l-100 -80q46 -4 77 -32.5t31 -76.5q0 -51 -40.5 -86t-104.5 -35q-61 0 -99 30t-48 73l67 27q5 -29 26.5 -46.5t52.5 -17.5q30 0 49 15.5t19 39.5q0 29 -20 42.5t-48 13.5q-14 0 -28 -4z" />
    <glyph glyph-name="acute" unicode="&#xb4;" horiz-adv-x="274" 
d="M240 689l-126 -146h-79l87 146h118z" />
    <glyph glyph-name="mu" unicode="&#xb5;" horiz-adv-x="550" 
d="M391 58q-19 -36 -58 -54.5t-84 -18.5q-46 0 -86 20v-195h-94v671h94v-289q0 -54 26.5 -89t82.5 -35t85 33.5t29 89.5v290h94v-392q0 -57 5 -89h-90q-4 22 -4 58z" />
    <glyph glyph-name="paragraph" unicode="&#xb6;" horiz-adv-x="639" 
d="M325 628v-818h-83v511h-16q-79 0 -136.5 55t-57.5 135q0 93 64.5 145.5t161.5 52.5h340v-81h-97v-818h-83v818h-93z" />
    <glyph glyph-name="periodcentered" unicode="&#xb7;" horiz-adv-x="267" 
d="M64 284q0 29 20 49.5t49 20.5t49.5 -20.5t20.5 -49.5t-20.5 -49t-49.5 -20t-49 20t-20 49z" />
    <glyph glyph-name="cedilla" unicode="&#xb8;" horiz-adv-x="294" 
d="M115 -101l-33 39l48 76h71l-39 -60q43 0 70 -22.5t27 -59.5q0 -38 -30 -64t-87 -26q-72 0 -110 46l37 45q31 -34 72 -34q20 0 33.5 8.5t13.5 24.5q0 14 -12 23t-32 9q-16 0 -29 -5z" />
    <glyph glyph-name="onesuperior" unicode="&#xb9;" horiz-adv-x="239" 
d="M189 344h-77v245h-86v52q36 1 61.5 20.5t30.5 47.5h71v-365z" />
    <glyph glyph-name="ordmasculine" unicode="&#xba;" horiz-adv-x="432" 
d="M216 720q76 0 125.5 -51t49.5 -129t-49.5 -129t-125.5 -51t-125.5 51t-49.5 129t49.5 129t125.5 51zM216 427q41 0 70 30t29 83t-28.5 82.5t-70.5 29.5t-71 -29.5t-29 -82.5t29 -83t71 -30z" />
    <glyph glyph-name="guillemotright" unicode="&#xbb;" horiz-adv-x="512" 
d="M142 99h-93l131 191l-131 191h93l133 -191zM337 99h-93l131 191l-131 191h93l133 -191z" />
    <glyph glyph-name="onequarter" unicode="&#xbc;" horiz-adv-x="770" 
d="M593 137v139l-111 -139h111zM408 72v73l177 220h85v-228h64v-65h-64v-72h-77v72h-185zM198 344h-77v245h-86v52q36 1 61.5 20.5t30.5 47.5h71v-365zM185 0h-84l466 709h83z" />
    <glyph glyph-name="onehalf" unicode="&#xbd;" horiz-adv-x="790" 
d="M559 224h-74q-3 15 -3 31q0 49 36 83t96 34q59 0 95 -33.5t36 -81.5q0 -66 -70 -110l-72 -45q-27 -18 -31 -37h175v-65h-268v13q0 93 85 145l60 37q43 26 43 63q0 21 -14.5 35.5t-39.5 14.5q-26 0 -41.5 -16t-15.5 -42q0 -12 3 -26zM198 344h-77v245h-86v52
q36 1 61.5 20.5t30.5 47.5h71v-365zM167 0h-84l466 709h83z" />
    <glyph glyph-name="threequarters" unicode="&#xbe;" horiz-adv-x="843" 
d="M154 509l-29 56l95 79h-171v65h271v-63l-100 -80q46 -4 77 -32.5t31 -76.5q0 -51 -40.5 -86t-104.5 -35q-61 0 -99 30t-48 73l67 27q5 -29 26.5 -46.5t52.5 -17.5q30 0 49 15.5t19 39.5q0 29 -20 42.5t-48 13.5q-14 0 -28 -4zM667 137v139l-111 -139h111zM482 72v73
l177 220h85v-228h64v-65h-64v-72h-77v72h-185zM259 0h-84l466 709h83z" />
    <glyph glyph-name="questiondown" unicode="&#xbf;" horiz-adv-x="503" 
d="M332 431q0 -27 -19 -46.5t-46 -19.5t-46.5 19.5t-19.5 46.5t19.5 46t46.5 19t46 -19t19 -46zM223 289h88q1 -12 1 -35q0 -100 -83 -156l-44 -30q-53 -36 -53 -98q0 -48 31 -81t88 -33q61 0 93 38t32 90q0 30 -7 49l97 -12q6 -21 6 -48q0 -49 -22 -94t-74 -78t-125 -33
q-100 0 -159.5 60t-59.5 141q0 105 102 174l46 31q44 30 44 96q0 12 -1 19z" />
    <glyph glyph-name="Agrave" unicode="&#xc0;" horiz-adv-x="711" 
d="M308 759l-138 119h129l102 -119h-93zM353 607l-121 -318h244zM588 0l-77 198h-314l-75 -198h-105l282 709h113l282 -709h-106z" />
    <glyph glyph-name="Aacute" unicode="&#xc1;" horiz-adv-x="711" 
d="M538 878l-137 -119h-94l101 119h130zM353 607l-121 -318h244zM588 0l-77 198h-314l-75 -198h-105l282 709h113l282 -709h-106z" />
    <glyph glyph-name="Acircumflex" unicode="&#xc2;" horiz-adv-x="711" 
d="M270 759h-91l112 119h120l117 -119h-92l-85 64zM353 607l-121 -318h244zM588 0l-77 198h-314l-75 -198h-105l282 709h113l282 -709h-106z" />
    <glyph glyph-name="Atilde" unicode="&#xc3;" horiz-adv-x="711" 
d="M513 881v-16q0 -54 -26.5 -82.5t-69.5 -28.5q-38 0 -71 23l-15 10q-23 14 -37 14q-35 0 -35 -44h-68v16q0 54 27 82.5t70 28.5q35 0 73 -23l15 -9q25 -14 38 -14q32 0 32 35v8h67zM353 607l-121 -318h244zM588 0l-77 198h-314l-75 -198h-105l282 709h113l282 -709h-106z
" />
    <glyph glyph-name="Adieresis" unicode="&#xc4;" horiz-adv-x="711" 
d="M353 607l-121 -318h244zM588 0l-77 198h-314l-75 -198h-105l282 709h113l282 -709h-106zM440 819q0 25 17 42t42 17t42 -17t17 -42t-17 -42t-42 -17t-42 17t-17 42zM149 819q0 25 17 42t42 17t42 -17t17 -42t-17 -42t-42 -17t-42 17t-17 42z" />
    <glyph glyph-name="Aring" unicode="&#xc5;" horiz-adv-x="711" 
d="M476 760q0 -57 -47 -94l265 -666h-106l-77 198h-314l-75 -198h-105l264 664q-50 37 -50 96q0 50 36.5 85.5t85.5 35.5q51 0 87 -35t36 -86zM404 760q0 21 -15.5 36.5t-37.5 15.5q-21 0 -35.5 -15.5t-14.5 -36.5q0 -22 14.5 -36.5t35.5 -14.5q23 0 38 14.5t15 36.5z
M353 607l-121 -318h244z" />
    <glyph glyph-name="AE" unicode="&#xc6;" horiz-adv-x="1013" 
d="M306 284h222v344zM959 0h-431v196h-278l-126 -196h-126l472 709h489v-91h-333v-218h302v-92h-302v-217h333v-91z" />
    <glyph glyph-name="Ccedilla" unicode="&#xc7;" horiz-adv-x="747" 
d="M374 -101l-33 39l30 48q-136 10 -229.5 109t-93.5 260q0 114 52 200t131 127.5t169 41.5q120 0 202.5 -60.5t109.5 -164.5l-91 -32q-20 80 -77 123.5t-144 43.5q-104 0 -178 -73.5t-74 -205.5t74 -206t178 -74q85 0 144 47t82 123l87 -32q-27 -93 -98.5 -154t-172.5 -72
l-21 -33q43 0 70 -22.5t27 -59.5q0 -38 -30 -64t-87 -26q-72 0 -110 46l37 45q31 -34 72 -34q20 0 33.5 8.5t13.5 24.5q0 14 -12 23t-32 9q-16 0 -29 -5z" />
    <glyph glyph-name="Egrave" unicode="&#xc8;" horiz-adv-x="580" 
d="M292 759l-138 119h129l102 -119h-93zM526 0h-431v709h431v-91h-333v-218h302v-92h-302v-217h333v-91z" />
    <glyph glyph-name="Eacute" unicode="&#xc9;" horiz-adv-x="580" 
d="M470 878l-137 -119h-94l101 119h130zM526 0h-431v709h431v-91h-333v-218h302v-92h-302v-217h333v-91z" />
    <glyph glyph-name="Ecircumflex" unicode="&#xca;" horiz-adv-x="580" 
d="M227 759h-91l112 119h120l117 -119h-92l-85 64zM526 0h-431v709h431v-91h-333v-218h302v-92h-302v-217h333v-91z" />
    <glyph glyph-name="Edieresis" unicode="&#xcb;" horiz-adv-x="580" 
d="M369 819q0 25 17 42t42 17t42 -17t17 -42t-17 -42t-42 -17t-42 17t-17 42zM138 819q0 25 17 42t42 17t42 -17t17 -42t-17 -42t-42 -17t-42 17t-17 42zM526 0h-431v709h431v-91h-333v-218h302v-92h-302v-217h333v-91z" />
    <glyph glyph-name="Igrave" unicode="&#xcc;" horiz-adv-x="290" 
d="M98 759l-138 119h129l102 -119h-93zM195 0h-100v709h100v-709z" />
    <glyph glyph-name="Iacute" unicode="&#xcd;" horiz-adv-x="290" 
d="M330 878l-137 -119h-94l101 119h130zM195 0h-100v709h100v-709z" />
    <glyph glyph-name="Icircumflex" unicode="&#xce;" horiz-adv-x="290" 
d="M68 759h-91l112 119h120l117 -119h-92l-85 64zM195 0h-100v709h100v-709z" />
    <glyph glyph-name="Idieresis" unicode="&#xcf;" horiz-adv-x="290" 
d="M169 819q0 22 15.5 37.5t38.5 15.5t38 -15t15 -38t-15.5 -38.5t-37.5 -15.5q-23 0 -38.5 15.5t-15.5 38.5zM16 819q0 23 15 38t38 15t38.5 -15.5t15.5 -37.5q0 -23 -15.5 -38.5t-38.5 -15.5q-22 0 -37.5 15.5t-15.5 38.5zM195 0h-100v709h100v-709z" />
    <glyph glyph-name="Eth" unicode="&#xd0;" horiz-adv-x="733" 
d="M196 87h145q104 0 172.5 69t68.5 197q0 129 -67.5 199t-171.5 70h-147v-215h122v-82h-122v-238zM344 0h-246v325h-76v82h76v302h248q143 0 240 -94.5t97 -261.5q0 -166 -98 -259.5t-241 -93.5z" />
    <glyph glyph-name="Ntilde" unicode="&#xd1;" horiz-adv-x="773" 
d="M548 881v-16q0 -54 -26.5 -82.5t-69.5 -28.5q-38 0 -71 23l-15 10q-23 14 -37 14q-35 0 -35 -44h-68v16q0 54 27 82.5t70 28.5q35 0 73 -23l15 -9q25 -14 38 -14q32 0 32 35v8h67zM678 0h-102l-383 578v-578h-98v709h131l354 -544v544h98v-709z" />
    <glyph glyph-name="Ograve" unicode="&#xd2;" horiz-adv-x="808" 
d="M364 759l-138 119h129l102 -119h-93zM48 355q0 86 30.5 157t81 116.5t113.5 70.5t131 25t131 -25t113.5 -70.5t81 -116.5t30.5 -157q0 -114 -52.5 -200t-132.5 -128t-171 -42t-171 42t-132.5 128t-52.5 200zM148 355q0 -132 75 -206t181 -74t181 74t75 206t-75 205.5
t-181 73.5t-181 -73.5t-75 -205.5z" />
    <glyph glyph-name="Oacute" unicode="&#xd3;" horiz-adv-x="808" 
d="M580 878l-137 -119h-94l101 119h130zM48 355q0 86 30.5 157t81 116.5t113.5 70.5t131 25t131 -25t113.5 -70.5t81 -116.5t30.5 -157q0 -114 -52.5 -200t-132.5 -128t-171 -42t-171 42t-132.5 128t-52.5 200zM148 355q0 -132 75 -206t181 -74t181 74t75 206t-75 205.5
t-181 73.5t-181 -73.5t-75 -205.5z" />
    <glyph glyph-name="Ocircumflex" unicode="&#xd4;" horiz-adv-x="808" 
d="M321 759h-91l112 119h120l117 -119h-92l-85 64zM48 355q0 86 30.5 157t81 116.5t113.5 70.5t131 25t131 -25t113.5 -70.5t81 -116.5t30.5 -157q0 -114 -52.5 -200t-132.5 -128t-171 -42t-171 42t-132.5 128t-52.5 200zM148 355q0 -132 75 -206t181 -74t181 74t75 206
t-75 205.5t-181 73.5t-181 -73.5t-75 -205.5z" />
    <glyph glyph-name="Otilde" unicode="&#xd5;" horiz-adv-x="808" 
d="M569 881v-16q0 -54 -26.5 -82.5t-69.5 -28.5q-38 0 -71 23l-15 10q-23 14 -37 14q-35 0 -35 -44h-68v16q0 54 27 82.5t70 28.5q35 0 73 -23l15 -9q25 -14 38 -14q32 0 32 35v8h67zM48 355q0 86 30.5 157t81 116.5t113.5 70.5t131 25t131 -25t113.5 -70.5t81 -116.5
t30.5 -157q0 -114 -52.5 -200t-132.5 -128t-171 -42t-171 42t-132.5 128t-52.5 200zM148 355q0 -132 75 -206t181 -74t181 74t75 206t-75 205.5t-181 73.5t-181 -73.5t-75 -205.5z" />
    <glyph glyph-name="Odieresis" unicode="&#xd6;" horiz-adv-x="808" 
d="M48 355q0 86 30.5 157t81 116.5t113.5 70.5t131 25t131 -25t113.5 -70.5t81 -116.5t30.5 -157q0 -114 -52.5 -200t-132.5 -128t-171 -42t-171 42t-132.5 128t-52.5 200zM148 355q0 -132 75 -206t181 -74t181 74t75 206t-75 205.5t-181 73.5t-181 -73.5t-75 -205.5z
M501 819q0 25 17 42t42 17t42 -17t17 -42t-17 -42t-42 -17t-42 17t-17 42zM190 819q0 25 17 42t42 17t42 -17t17 -42t-17 -42t-42 -17t-42 17t-17 42z" />
    <glyph glyph-name="multiply" unicode="&#xd7;" horiz-adv-x="572" 
d="M455 116l-170 175l-168 -174l-56 56l169 176l-168 174l57 57l167 -174l167 174l57 -56l-169 -175l170 -176z" />
    <glyph glyph-name="Oslash" unicode="&#xd8;" horiz-adv-x="808" 
d="M660 355q0 109 -57 184l-332 -429q58 -35 133 -35q106 0 181 74t75 206zM148 355q0 -115 59 -188l332 429q-61 38 -135 38q-106 0 -181 -73.5t-75 -205.5zM48 355q0 86 30.5 157t81 116.5t113.5 70.5t131 25q104 0 191 -55l72 92l68 -52l-73 -94q98 -103 98 -260
q0 -114 -52.5 -200t-132.5 -128t-171 -42q-103 0 -189 53l-68 -89l-70 51l71 92q-100 103 -100 263z" />
    <glyph glyph-name="Ugrave" unicode="&#xd9;" horiz-adv-x="686" 
d="M319 759l-138 119h129l102 -119h-93zM343 -15q-112 0 -183.5 68t-71.5 189v467h97v-464q0 -81 41.5 -125t116.5 -44t116 44t41 125v464h98v-467q0 -121 -71.5 -189t-183.5 -68z" />
    <glyph glyph-name="Uacute" unicode="&#xda;" horiz-adv-x="686" 
d="M502 878l-137 -119h-94l101 119h130zM343 -15q-112 0 -183.5 68t-71.5 189v467h97v-464q0 -81 41.5 -125t116.5 -44t116 44t41 125v464h98v-467q0 -121 -71.5 -189t-183.5 -68z" />
    <glyph glyph-name="Ucircumflex" unicode="&#xdb;" horiz-adv-x="686" 
d="M260 759h-91l112 119h120l117 -119h-92l-85 64zM343 -15q-112 0 -183.5 68t-71.5 189v467h97v-464q0 -81 41.5 -125t116.5 -44t116 44t41 125v464h98v-467q0 -121 -71.5 -189t-183.5 -68z" />
    <glyph glyph-name="Udieresis" unicode="&#xdc;" horiz-adv-x="686" 
d="M405 819q0 25 17 42t42 17t42 -17t17 -42t-17 -42t-42 -17t-42 17t-17 42zM174 819q0 25 17 42t42 17t42 -17t17 -42t-17 -42t-42 -17t-42 17t-17 42zM343 -15q-112 0 -183.5 68t-71.5 189v467h97v-464q0 -81 41.5 -125t116.5 -44t116 44t41 125v464h98v-467
q0 -121 -71.5 -189t-183.5 -68z" />
    <glyph glyph-name="Yacute" unicode="&#xdd;" horiz-adv-x="642" 
d="M478 878l-137 -119h-94l101 119h130zM272 303l-250 406h118l184 -316l184 316h112l-250 -406v-303h-98v303z" />
    <glyph glyph-name="Thorn" unicode="&#xde;" horiz-adv-x="603" 
d="M349 157h-156v-157h-98v709h98v-137h155q98 0 161 -59t63 -149t-62.5 -148.5t-160.5 -58.5zM193 244h144q63 0 99 32t36 87q0 57 -36 89.5t-99 32.5h-144v-241z" />
    <glyph glyph-name="germandbls" unicode="&#xdf;" horiz-adv-x="570" 
d="M353 343q0 -18 10.5 -27t35.5 -21l35 -17q46 -22 75 -60t29 -88q0 -56 -42.5 -100.5t-120.5 -44.5q-82 0 -123 44.5t-41 96.5l83 22q0 -31 19.5 -58t61.5 -27q33 0 51.5 18.5t18.5 40.5q0 48 -52 73l-34 16q-22 10 -36.5 19t-32.5 24t-27 36t-9 48q0 67 63 108l32 21
q57 36 57 85q0 38 -29.5 63.5t-80.5 25.5q-54 0 -90 -40t-36 -113v-488h-94v493q0 107 62.5 169t157.5 62q90 0 147.5 -48.5t57.5 -120.5q0 -93 -88 -148l-29 -18q-31 -19 -31 -46z" />
    <glyph glyph-name="agrave" unicode="&#xe0;" horiz-adv-x="523" 
d="M229 543l-126 146h118l86 -146h-78zM218 64q63 0 101 34t38 108v22l-147 -22q-32 -5 -51 -23t-19 -49q0 -28 21.5 -49t56.5 -21zM44 129q0 62 40 99.5t106 46.5l130 19q37 5 37 36q0 38 -26 62t-78 24q-48 0 -76 -26.5t-33 -70.5l-90 21q7 69 63 112.5t134 43.5
q102 0 151 -49.5t49 -126.5v-241q0 -43 6 -79h-92q-5 30 -5 65q-20 -32 -58.5 -56t-96.5 -24q-71 0 -116 42.5t-45 101.5z" />
    <glyph glyph-name="aacute" unicode="&#xe1;" horiz-adv-x="523" 
d="M419 689l-126 -146h-79l87 146h118zM218 64q63 0 101 34t38 108v22l-147 -22q-32 -5 -51 -23t-19 -49q0 -28 21.5 -49t56.5 -21zM44 129q0 62 40 99.5t106 46.5l130 19q37 5 37 36q0 38 -26 62t-78 24q-48 0 -76 -26.5t-33 -70.5l-90 21q7 69 63 112.5t134 43.5
q102 0 151 -49.5t49 -126.5v-241q0 -43 6 -79h-92q-5 30 -5 65q-20 -32 -58.5 -56t-96.5 -24q-71 0 -116 42.5t-45 101.5z" />
    <glyph glyph-name="acircumflex" unicode="&#xe2;" horiz-adv-x="523" 
d="M189 545h-87l104 139h107l104 -139h-88l-70 81zM218 64q63 0 101 34t38 108v22l-147 -22q-32 -5 -51 -23t-19 -49q0 -28 21.5 -49t56.5 -21zM44 129q0 62 40 99.5t106 46.5l130 19q37 5 37 36q0 38 -26 62t-78 24q-48 0 -76 -26.5t-33 -70.5l-90 21q7 69 63 112.5
t134 43.5q102 0 151 -49.5t49 -126.5v-241q0 -43 6 -79h-92q-5 30 -5 65q-20 -32 -58.5 -56t-96.5 -24q-71 0 -116 42.5t-45 101.5z" />
    <glyph glyph-name="atilde" unicode="&#xe3;" horiz-adv-x="523" 
d="M416 677v-15q0 -53 -27 -81t-70 -28q-31 0 -66 22l-14 9q-23 14 -37 14q-29 0 -29 -43h-72v15q0 53 27.5 81t70.5 28q32 0 67 -22l14 -9q23 -14 36 -14q29 0 29 43h71zM218 64q63 0 101 34t38 108v22l-147 -22q-32 -5 -51 -23t-19 -49q0 -28 21.5 -49t56.5 -21zM44 129
q0 62 40 99.5t106 46.5l130 19q37 5 37 36q0 38 -26 62t-78 24q-48 0 -76 -26.5t-33 -70.5l-90 21q7 69 63 112.5t134 43.5q102 0 151 -49.5t49 -126.5v-241q0 -43 6 -79h-92q-5 30 -5 65q-20 -32 -58.5 -56t-96.5 -24q-71 0 -116 42.5t-45 101.5z" />
    <glyph glyph-name="adieresis" unicode="&#xe4;" horiz-adv-x="523" 
d="M291 621q0 24 16.5 41t41.5 17q24 0 41 -17t17 -41q0 -25 -17 -41.5t-41 -16.5q-25 0 -41.5 16.5t-16.5 41.5zM104 621q0 24 16.5 41t40.5 17q25 0 42 -17t17 -41q0 -25 -17 -41.5t-42 -16.5q-24 0 -40.5 16.5t-16.5 41.5zM218 64q63 0 101 34t38 108v22l-147 -22
q-32 -5 -51 -23t-19 -49q0 -28 21.5 -49t56.5 -21zM44 129q0 62 40 99.5t106 46.5l130 19q37 5 37 36q0 38 -26 62t-78 24q-48 0 -76 -26.5t-33 -70.5l-90 21q7 69 63 112.5t134 43.5q102 0 151 -49.5t49 -126.5v-241q0 -43 6 -79h-92q-5 30 -5 65q-20 -32 -58.5 -56
t-96.5 -24q-71 0 -116 42.5t-45 101.5z" />
    <glyph glyph-name="aring" unicode="&#xe5;" horiz-adv-x="523" 
d="M303 641q0 20 -14 34.5t-35 14.5q-20 0 -33.5 -14.5t-13.5 -34.5t13.5 -34t33.5 -14q21 0 35 14t14 34zM367 641q0 -45 -33 -77t-79 -32q-45 0 -78 32t-33 77q0 46 33 78t78 32q46 0 79 -32t33 -78zM218 64q63 0 101 34t38 108v22l-147 -22q-32 -5 -51 -23t-19 -49
q0 -28 21.5 -49t56.5 -21zM44 129q0 62 40 99.5t106 46.5l130 19q37 5 37 36q0 38 -26 62t-78 24q-48 0 -76 -26.5t-33 -70.5l-90 21q7 69 63 112.5t134 43.5q102 0 151 -49.5t49 -126.5v-241q0 -43 6 -79h-92q-5 30 -5 65q-20 -32 -58.5 -56t-96.5 -24q-71 0 -116 42.5
t-45 101.5z" />
    <glyph glyph-name="ae" unicode="&#xe6;" horiz-adv-x="869" 
d="M466 290h263q-2 54 -36.5 88.5t-95.5 34.5q-56 0 -92 -36.5t-39 -86.5zM222 64q58 0 101 34.5t43 106.5v23l-157 -22q-70 -10 -70 -74q0 -28 22.5 -48t60.5 -20zM742 165l82 -28q-21 -66 -80 -109t-136 -43q-62 0 -114.5 27t-85.5 77q-57 -104 -193 -104q-79 0 -125.5 42
t-46.5 102q0 62 40 99.5t106 46.5l139 19q38 6 38 36q0 37 -29 62t-81 25q-49 0 -79.5 -27t-35.5 -67l-88 17q6 69 67.5 112.5t135.5 43.5q119 0 171 -80q69 80 169 80q109 0 170 -68.5t61 -183.5q0 -20 -2 -30h-362q1 -63 43 -104.5t102 -41.5q102 0 134 97z" />
    <glyph glyph-name="ccedilla" unicode="&#xe7;" horiz-adv-x="539" 
d="M257 -102l-33 39l32 50q-93 11 -152.5 82.5t-59.5 171.5q0 110 69.5 182.5t172.5 72.5q88 0 142.5 -45t71.5 -108l-85 -36q-11 42 -42 72t-87 30q-60 0 -103 -45t-43 -123t42.5 -123.5t104.5 -45.5q58 0 90.5 30.5t43.5 68.5l83 -36q-18 -53 -62.5 -95t-114.5 -52
l-23 -35q43 0 70 -22.5t27 -59.5q0 -38 -29.5 -63t-87.5 -25q-73 0 -110 44l37 45q31 -34 72 -34q20 0 33.5 8.5t13.5 24.5q0 14 -12 23t-32 9q-16 0 -29 -5z" />
    <glyph glyph-name="egrave" unicode="&#xe8;" horiz-adv-x="547" 
d="M253 543l-126 146h118l86 -146h-78zM421 165l81 -28q-21 -67 -78 -109.5t-138 -42.5q-101 0 -171.5 69.5t-70.5 187.5q0 110 68 182t162 72q109 0 170 -68.5t61 -183.5q0 -18 -2 -30h-362q1 -64 42.5 -105t102.5 -41q103 0 135 97zM144 290h263q-2 54 -36.5 88.5
t-95.5 34.5q-56 0 -92 -36.5t-39 -86.5z" />
    <glyph glyph-name="eacute" unicode="&#xe9;" horiz-adv-x="547" 
d="M438 689l-126 -146h-79l87 146h118zM421 165l81 -28q-21 -67 -78 -109.5t-138 -42.5q-101 0 -171.5 69.5t-70.5 187.5q0 110 68 182t162 72q109 0 170 -68.5t61 -183.5q0 -18 -2 -30h-362q1 -64 42.5 -105t102.5 -41q103 0 135 97zM144 290h263q-2 54 -36.5 88.5
t-95.5 34.5q-56 0 -92 -36.5t-39 -86.5z" />
    <glyph glyph-name="ecircumflex" unicode="&#xea;" horiz-adv-x="547" 
d="M212 545h-87l104 139h107l104 -139h-88l-70 81zM421 165l81 -28q-21 -67 -78 -109.5t-138 -42.5q-101 0 -171.5 69.5t-70.5 187.5q0 110 68 182t162 72q109 0 170 -68.5t61 -183.5q0 -18 -2 -30h-362q1 -64 42.5 -105t102.5 -41q103 0 135 97zM144 290h263
q-2 54 -36.5 88.5t-95.5 34.5q-56 0 -92 -36.5t-39 -86.5z" />
    <glyph glyph-name="edieresis" unicode="&#xeb;" horiz-adv-x="547" 
d="M316 621q0 24 16.5 41t41.5 17q24 0 41 -17t17 -41q0 -25 -17 -41.5t-41 -16.5q-25 0 -41.5 16.5t-16.5 41.5zM129 621q0 24 16.5 41t40.5 17q25 0 42 -17t17 -41q0 -25 -17 -41.5t-42 -16.5q-24 0 -40.5 16.5t-16.5 41.5zM421 165l81 -28q-21 -67 -78 -109.5t-138 -42.5
q-101 0 -171.5 69.5t-70.5 187.5q0 110 68 182t162 72q109 0 170 -68.5t61 -183.5q0 -18 -2 -30h-362q1 -64 42.5 -105t102.5 -41q103 0 135 97zM144 290h263q-2 54 -36.5 88.5t-95.5 34.5q-56 0 -92 -36.5t-39 -86.5z" />
    <glyph glyph-name="igrave" unicode="&#xec;" horiz-adv-x="245" 
d="M89 543l-126 146h118l86 -146h-78zM169 0h-93v481h93v-481z" />
    <glyph glyph-name="iacute" unicode="&#xed;" horiz-adv-x="245" 
d="M286 689l-126 -146h-79l87 146h118zM169 0h-93v481h93v-481z" />
    <glyph glyph-name="icircumflex" unicode="&#xee;" horiz-adv-x="245" 
d="M53 545h-87l104 139h107l104 -139h-88l-70 81zM169 0h-93v481h93v-481z" />
    <glyph glyph-name="idieresis" unicode="&#xef;" horiz-adv-x="245" 
d="M140 621q0 23 15.5 38.5t37.5 15.5q23 0 38.5 -15.5t15.5 -38.5q0 -22 -15.5 -37.5t-38.5 -15.5t-38 15t-15 38zM-1 621q0 23 15.5 38.5t37.5 15.5t38 -15.5t16 -38.5q0 -22 -15.5 -37.5t-38.5 -15.5q-22 0 -37.5 15t-15.5 38zM169 0h-93v481h93v-481z" />
    <glyph glyph-name="eth" unicode="&#xf0;" horiz-adv-x="585" 
d="M289 70q63 0 106 42t43 115q0 74 -43 115.5t-106 41.5t-106.5 -42t-43.5 -115t43.5 -115t106.5 -42zM479 639l-81 -40q137 -128 137 -338q0 -120 -66.5 -197.5t-179.5 -77.5q-107 0 -176 68.5t-69 172.5q0 106 69.5 171.5t161.5 65.5q96 0 140 -50q-31 83 -101 143
l-131 -65l-29 63l94 47q-47 27 -112 46l29 76q92 -21 174 -77l109 55z" />
    <glyph glyph-name="ntilde" unicode="&#xf1;" horiz-adv-x="559" 
d="M448 677v-15q0 -53 -27 -81t-70 -28q-31 0 -66 22l-14 9q-23 14 -37 14q-29 0 -29 -43h-72v15q0 53 27.5 81t70.5 28q32 0 67 -22l14 -9q23 -14 36 -14q29 0 29 43h71zM170 278v-278h-94v481h92v-69q48 83 148 83q83 0 127.5 -53t44.5 -137v-305h-94v289q0 121 -112 121
q-53 0 -82.5 -37.5t-29.5 -94.5z" />
    <glyph glyph-name="ograve" unicode="&#xf2;" horiz-adv-x="580" 
d="M255 543l-126 146h118l86 -146h-78zM290 496q107 0 176.5 -72.5t69.5 -182.5q0 -111 -69 -183.5t-177 -72.5t-177 72.5t-69 183.5q0 110 69.5 182.5t176.5 72.5zM290 69q63 0 106.5 45.5t43.5 126.5q0 80 -43.5 125.5t-106.5 45.5t-106.5 -45.5t-43.5 -125.5
q0 -81 43.5 -126.5t106.5 -45.5z" />
    <glyph glyph-name="oacute" unicode="&#xf3;" horiz-adv-x="580" 
d="M439 689l-126 -146h-79l87 146h118zM290 496q107 0 176.5 -72.5t69.5 -182.5q0 -111 -69 -183.5t-177 -72.5t-177 72.5t-69 183.5q0 110 69.5 182.5t176.5 72.5zM290 69q63 0 106.5 45.5t43.5 126.5q0 80 -43.5 125.5t-106.5 45.5t-106.5 -45.5t-43.5 -125.5
q0 -81 43.5 -126.5t106.5 -45.5z" />
    <glyph glyph-name="ocircumflex" unicode="&#xf4;" horiz-adv-x="580" 
d="M220 545h-87l104 139h107l104 -139h-88l-70 81zM290 496q107 0 176.5 -72.5t69.5 -182.5q0 -111 -69 -183.5t-177 -72.5t-177 72.5t-69 183.5q0 110 69.5 182.5t176.5 72.5zM290 69q63 0 106.5 45.5t43.5 126.5q0 80 -43.5 125.5t-106.5 45.5t-106.5 -45.5t-43.5 -125.5
q0 -81 43.5 -126.5t106.5 -45.5z" />
    <glyph glyph-name="otilde" unicode="&#xf5;" horiz-adv-x="580" 
d="M449 677v-15q0 -53 -27 -81t-70 -28q-31 0 -66 22l-14 9q-23 14 -37 14q-29 0 -29 -43h-72v15q0 53 27.5 81t70.5 28q32 0 67 -22l14 -9q23 -14 36 -14q29 0 29 43h71zM290 496q107 0 176.5 -72.5t69.5 -182.5q0 -111 -69 -183.5t-177 -72.5t-177 72.5t-69 183.5
q0 110 69.5 182.5t176.5 72.5zM290 69q63 0 106.5 45.5t43.5 126.5q0 80 -43.5 125.5t-106.5 45.5t-106.5 -45.5t-43.5 -125.5q0 -81 43.5 -126.5t106.5 -45.5z" />
    <glyph glyph-name="odieresis" unicode="&#xf6;" horiz-adv-x="580" 
d="M325 621q0 24 16.5 41t41.5 17q24 0 41 -17t17 -41q0 -25 -17 -41.5t-41 -16.5q-25 0 -41.5 16.5t-16.5 41.5zM138 621q0 24 16.5 41t40.5 17q25 0 42 -17t17 -41q0 -25 -17 -41.5t-42 -16.5q-24 0 -40.5 16.5t-16.5 41.5zM290 496q107 0 176.5 -72.5t69.5 -182.5
q0 -111 -69 -183.5t-177 -72.5t-177 72.5t-69 183.5q0 110 69.5 182.5t176.5 72.5zM290 69q63 0 106.5 45.5t43.5 126.5q0 80 -43.5 125.5t-106.5 45.5t-106.5 -45.5t-43.5 -125.5q0 -81 43.5 -126.5t106.5 -45.5z" />
    <glyph glyph-name="divide" unicode="&#xf7;" 
d="M58 307v83h457v-83h-457zM221 526q0 26 19.5 45t45.5 19t45 -19t19 -45t-19 -45.5t-45 -19.5t-45.5 19.5t-19.5 45.5zM221 171q0 26 19.5 45t45.5 19t45 -19t19 -45t-19 -45.5t-45 -19.5t-45.5 19.5t-19.5 45.5z" />
    <glyph glyph-name="oslash" unicode="&#xf8;" horiz-adv-x="582" 
d="M291 69q63 0 106.5 45.5t43.5 126.5q0 57 -24 99l-196 -254q30 -17 70 -17zM141 241q0 -56 25 -101l196 254q-33 18 -71 18q-63 0 -106.5 -45.5t-43.5 -125.5zM291 496q67 0 125 -32l50 65l60 -48l-51 -66q62 -72 62 -174q0 -111 -69 -183.5t-177 -72.5q-67 0 -124 31
l-49 -63l-60 48l49 64q-62 72 -62 176q0 110 69.5 182.5t176.5 72.5z" />
    <glyph glyph-name="ugrave" unicode="&#xf9;" horiz-adv-x="559" 
d="M252 543l-126 146h118l86 -146h-78zM393 58q-19 -36 -58 -54.5t-84 -18.5q-82 0 -131 54.5t-49 138.5v303h94v-289q0 -54 26.5 -89t82.5 -35t85 33.5t29 89.5v290h94v-392q0 -47 5 -89h-90q-4 22 -4 58z" />
    <glyph glyph-name="uacute" unicode="&#xfa;" horiz-adv-x="559" 
d="M419 689l-126 -146h-79l87 146h118zM393 58q-19 -36 -58 -54.5t-84 -18.5q-82 0 -131 54.5t-49 138.5v303h94v-289q0 -54 26.5 -89t82.5 -35t85 33.5t29 89.5v290h94v-392q0 -47 5 -89h-90q-4 22 -4 58z" />
    <glyph glyph-name="ucircumflex" unicode="&#xfb;" horiz-adv-x="559" 
d="M206 545h-87l104 139h107l104 -139h-88l-70 81zM393 58q-19 -36 -58 -54.5t-84 -18.5q-82 0 -131 54.5t-49 138.5v303h94v-289q0 -54 26.5 -89t82.5 -35t85 33.5t29 89.5v290h94v-392q0 -47 5 -89h-90q-4 22 -4 58z" />
    <glyph glyph-name="udieresis" unicode="&#xfc;" horiz-adv-x="559" 
d="M311 621q0 24 16.5 41t41.5 17q24 0 41 -17t17 -41q0 -25 -17 -41.5t-41 -16.5q-25 0 -41.5 16.5t-16.5 41.5zM124 621q0 24 16.5 41t40.5 17q25 0 42 -17t17 -41q0 -25 -17 -41.5t-42 -16.5q-24 0 -40.5 16.5t-16.5 41.5zM393 58q-19 -36 -58 -54.5t-84 -18.5
q-82 0 -131 54.5t-49 138.5v303h94v-289q0 -54 26.5 -89t82.5 -35t85 33.5t29 89.5v290h94v-392q0 -47 5 -89h-90q-4 22 -4 58z" />
    <glyph glyph-name="yacute" unicode="&#xfd;" horiz-adv-x="538" 
d="M419 689l-126 -146h-79l87 146h118zM210 -201h-103l120 254l-207 428h108l150 -332l144 332h101z" />
    <glyph glyph-name="thorn" unicode="&#xfe;" horiz-adv-x="594" 
d="M453 241q0 73 -38.5 120.5t-103.5 47.5q-64 0 -103.5 -47.5t-39.5 -120.5q0 -75 39.5 -122.5t103.5 -47.5t103 47.5t39 122.5zM169 -190h-93v914h94v-313q21 36 62.5 58.5t95.5 22.5q104 0 162.5 -71t58.5 -180q0 -110 -60.5 -182t-163.5 -72q-53 0 -94 22t-62 56v-255z
" />
    <glyph glyph-name="ydieresis" unicode="&#xff;" horiz-adv-x="538" 
d="M307 621q0 24 16.5 41t41.5 17q24 0 41 -17t17 -41q0 -25 -17 -41.5t-41 -16.5q-25 0 -41.5 16.5t-16.5 41.5zM120 621q0 24 16.5 41t40.5 17q25 0 42 -17t17 -41q0 -25 -17 -41.5t-42 -16.5q-24 0 -40.5 16.5t-16.5 41.5zM210 -201h-103l120 254l-207 428h108l150 -332
l144 332h101z" />
    <glyph glyph-name="Amacron" unicode="&#x100;" horiz-adv-x="711" 
d="M499 779h-293v83h293v-83zM353 607l-121 -318h244zM588 0l-77 198h-314l-75 -198h-105l282 709h113l282 -709h-106z" />
    <glyph glyph-name="amacron" unicode="&#x101;" horiz-adv-x="523" 
d="M392 577h-273v81h273v-81zM218 64q63 0 101 34t38 108v22l-147 -22q-32 -5 -51 -23t-19 -49q0 -28 21.5 -49t56.5 -21zM44 129q0 62 40 99.5t106 46.5l130 19q37 5 37 36q0 38 -26 62t-78 24q-48 0 -76 -26.5t-33 -70.5l-90 21q7 69 63 112.5t134 43.5q102 0 151 -49.5
t49 -126.5v-241q0 -43 6 -79h-92q-5 30 -5 65q-20 -32 -58.5 -56t-96.5 -24q-71 0 -116 42.5t-45 101.5z" />
    <glyph glyph-name="Abreve" unicode="&#x102;" horiz-adv-x="711" 
d="M354 754q-71 0 -112.5 38.5t-44.5 90.5h81q2 -21 20.5 -38.5t55.5 -17.5t55 17.5t20 38.5h81q-3 -53 -44 -91t-112 -38zM353 607l-121 -318h244zM588 0l-77 198h-314l-75 -198h-105l282 709h113l282 -709h-106z" />
    <glyph glyph-name="abreve" unicode="&#x103;" horiz-adv-x="523" 
d="M253 545q-67 0 -106 42.5t-40 99.5h73q2 -27 20 -46t53 -19t53 19.5t20 45.5h73q-1 -58 -39 -100t-107 -42zM218 64q63 0 101 34t38 108v22l-147 -22q-32 -5 -51 -23t-19 -49q0 -28 21.5 -49t56.5 -21zM44 129q0 62 40 99.5t106 46.5l130 19q37 5 37 36q0 38 -26 62
t-78 24q-48 0 -76 -26.5t-33 -70.5l-90 21q7 69 63 112.5t134 43.5q102 0 151 -49.5t49 -126.5v-241q0 -43 6 -79h-92q-5 30 -5 65q-20 -32 -58.5 -56t-96.5 -24q-71 0 -116 42.5t-45 101.5z" />
    <glyph glyph-name="Aogonek" unicode="&#x104;" horiz-adv-x="711" 
d="M529 -115q0 72 72 115h-13l-77 198h-314l-75 -198h-105l282 709h113l282 -709q-85 -40 -85 -97q0 -24 15.5 -35.5t37.5 -11.5q16 0 32 4v-68q-21 -8 -50 -8q-48 0 -81.5 27.5t-33.5 73.5zM353 607l-121 -318h244z" />
    <glyph glyph-name="aogonek" unicode="&#x105;" horiz-adv-x="523" 
d="M218 64q63 0 101 34t38 108v22l-147 -22q-32 -5 -51 -23t-19 -49q0 -28 21.5 -49t56.5 -21zM292 -115q0 73 72 116q-4 24 -4 64q-20 -32 -58.5 -56t-96.5 -24q-71 0 -116 42.5t-45 101.5q0 62 40 99.5t106 46.5l130 19q37 5 37 36q0 38 -26 62t-78 24q-48 0 -76 -26.5
t-33 -70.5l-90 21q7 69 63 112.5t134 43.5q102 0 151 -49.5t49 -126.5v-241q0 -43 6 -79q-85 -40 -85 -97q0 -24 15.5 -35.5t37.5 -11.5q16 0 32 4v-68q-21 -8 -50 -8q-48 0 -81.5 27.5t-33.5 73.5z" />
    <glyph glyph-name="Cacute" unicode="&#x106;" horiz-adv-x="748" 
d="M577 878l-137 -119h-94l101 119h130zM401 -15q-145 0 -248.5 100t-103.5 270q0 114 52 200t131 127.5t169 41.5q120 0 202.5 -60.5t109.5 -164.5l-91 -32q-20 80 -77 123.5t-144 43.5q-104 0 -178 -73.5t-74 -205.5t74 -206t178 -74q87 0 145 46.5t81 123.5l87 -32
q-29 -103 -111.5 -165.5t-201.5 -62.5z" />
    <glyph glyph-name="cacute" unicode="&#x107;" horiz-adv-x="539" 
d="M441 689l-126 -146h-79l87 146h118zM286 409q-61 0 -103.5 -44t-42.5 -124q0 -79 42.5 -124t104.5 -45q60 0 91.5 30t42.5 69l83 -36q-20 -60 -75.5 -105t-141.5 -45q-105 0 -174 73t-69 183q0 112 69 183.5t173 71.5q88 0 142.5 -45t71.5 -108l-85 -36q-11 42 -42 72
t-87 30z" />
    <glyph glyph-name="Ccircumflex" unicode="&#x108;" horiz-adv-x="748" 
d="M322 759h-91l112 119h120l117 -119h-92l-85 64zM401 -15q-145 0 -248.5 100t-103.5 270q0 114 52 200t131 127.5t169 41.5q120 0 202.5 -60.5t109.5 -164.5l-91 -32q-20 80 -77 123.5t-144 43.5q-104 0 -178 -73.5t-74 -205.5t74 -206t178 -74q87 0 145 46.5t81 123.5
l87 -32q-29 -103 -111.5 -165.5t-201.5 -62.5z" />
    <glyph glyph-name="ccircumflex" unicode="&#x109;" horiz-adv-x="539" 
d="M215 545h-87l104 139h107l104 -139h-88l-70 81zM286 409q-61 0 -103.5 -44t-42.5 -124q0 -79 42.5 -124t104.5 -45q60 0 91.5 30t42.5 69l83 -36q-20 -60 -75.5 -105t-141.5 -45q-105 0 -174 73t-69 183q0 112 69 183.5t173 71.5q88 0 142.5 -45t71.5 -108l-85 -36
q-11 42 -42 72t-87 30z" />
    <glyph glyph-name="Cdotaccent" unicode="&#x10a;" horiz-adv-x="748" 
d="M337 818q0 26 18.5 45t44.5 19t45 -19t19 -45t-19 -44.5t-45 -18.5t-44.5 18.5t-18.5 44.5zM401 -15q-145 0 -248.5 100t-103.5 270q0 114 52 200t131 127.5t169 41.5q120 0 202.5 -60.5t109.5 -164.5l-91 -32q-20 80 -77 123.5t-144 43.5q-104 0 -178 -73.5t-74 -205.5
t74 -206t178 -74q87 0 145 46.5t81 123.5l87 -32q-29 -103 -111.5 -165.5t-201.5 -62.5z" />
    <glyph glyph-name="cdotaccent" unicode="&#x10b;" horiz-adv-x="539" 
d="M224 616q0 26 18 44t44 18t44 -18t18 -44t-18 -44t-44 -18t-44 18t-18 44zM286 409q-61 0 -103.5 -44t-42.5 -124q0 -79 42.5 -124t104.5 -45q60 0 91.5 30t42.5 69l83 -36q-20 -60 -75.5 -105t-141.5 -45q-105 0 -174 73t-69 183q0 112 69 183.5t173 71.5
q88 0 142.5 -45t71.5 -108l-85 -36q-11 42 -42 72t-87 30z" />
    <glyph glyph-name="Ccaron" unicode="&#x10c;" horiz-adv-x="748" 
d="M226 878h91l81 -64l85 64h92l-117 -119h-120zM401 -15q-145 0 -248.5 100t-103.5 270q0 114 52 200t131 127.5t169 41.5q120 0 202.5 -60.5t109.5 -164.5l-91 -32q-20 80 -77 123.5t-144 43.5q-104 0 -178 -73.5t-74 -205.5t74 -206t178 -74q87 0 145 46.5t81 123.5
l87 -32q-29 -103 -111.5 -165.5t-201.5 -62.5z" />
    <glyph glyph-name="ccaron" unicode="&#x10d;" horiz-adv-x="539" 
d="M121 687h87l70 -81l70 81h88l-102 -142h-111zM286 409q-61 0 -103.5 -44t-42.5 -124q0 -79 42.5 -124t104.5 -45q60 0 91.5 30t42.5 69l83 -36q-20 -60 -75.5 -105t-141.5 -45q-105 0 -174 73t-69 183q0 112 69 183.5t173 71.5q88 0 142.5 -45t71.5 -108l-85 -36
q-11 42 -42 72t-87 30z" />
    <glyph glyph-name="Dcaron" unicode="&#x10e;" horiz-adv-x="730" 
d="M185 878h91l81 -64l85 64h92l-117 -119h-120zM341 0h-246v709h248q143 0 240 -94.5t97 -261.5q0 -166 -98 -259.5t-241 -93.5zM193 87h145q104 0 172.5 69t68.5 197q0 129 -67.5 199t-171.5 70h-147v-535z" />
    <glyph glyph-name="dcaron" unicode="&#x10f;" horiz-adv-x="588" 
d="M686 724l-64 -179h-69l28 179h105zM421 65v8q-19 -37 -57.5 -61.5t-91.5 -24.5q-103 0 -165.5 72.5t-62.5 182.5q0 105 64 178.5t164 73.5q59 0 96 -23.5t51 -57.5v311h93v-635q0 -49 5 -89h-91q-5 28 -5 65zM140 242q0 -76 37.5 -124t103.5 -48q63 0 101 49t38 125
q0 75 -37 121t-101 46t-103 -47t-39 -122z" />
    <glyph glyph-name="Dcroat" unicode="&#x110;" horiz-adv-x="733" 
d="M196 87h145q104 0 172.5 69t68.5 197q0 129 -67.5 199t-171.5 70h-147v-215h122v-82h-122v-238zM344 0h-246v325h-76v82h76v302h248q143 0 240 -94.5t97 -261.5q0 -166 -98 -259.5t-241 -93.5z" />
    <glyph glyph-name="dcroat" unicode="&#x111;" horiz-adv-x="588" 
d="M140 242q0 -76 37.5 -124t103.5 -48q63 0 101 49t38 125q0 75 -37 121t-101 46t-103 -47t-39 -122zM512 724v-93h77v-76h-77v-466q0 -49 5 -89h-91q-5 28 -5 65v8q-19 -37 -57.5 -61.5t-91.5 -24.5q-103 0 -165.5 72.5t-62.5 182.5q0 105 64 178.5t164 73.5
q59 0 96 -23.5t51 -57.5v142h-131v76h131v93h93z" />
    <glyph glyph-name="Emacron" unicode="&#x112;" horiz-adv-x="580" 
d="M454 779h-293v83h293v-83zM526 0h-431v709h431v-91h-333v-218h302v-92h-302v-217h333v-91z" />
    <glyph glyph-name="emacron" unicode="&#x113;" horiz-adv-x="547" 
d="M418 577h-273v81h273v-81zM421 165l81 -28q-21 -67 -78 -109.5t-138 -42.5q-101 0 -171.5 69.5t-70.5 187.5q0 110 68 182t162 72q109 0 170 -68.5t61 -183.5q0 -18 -2 -30h-362q1 -64 42.5 -105t102.5 -41q103 0 135 97zM144 290h263q-2 54 -36.5 88.5t-95.5 34.5
q-56 0 -92 -36.5t-39 -86.5z" />
    <glyph glyph-name="Ebreve" unicode="&#x114;" horiz-adv-x="580" 
d="M312 754q-71 0 -112.5 38.5t-44.5 90.5h81q2 -21 20.5 -38.5t55.5 -17.5t55 17.5t20 38.5h81q-3 -53 -44 -91t-112 -38zM526 0h-431v709h431v-91h-333v-218h302v-92h-302v-217h333v-91z" />
    <glyph glyph-name="ebreve" unicode="&#x115;" horiz-adv-x="547" 
d="M281 545q-67 0 -106 42.5t-40 99.5h73q2 -27 20 -46t53 -19t53 19.5t20 45.5h73q-1 -58 -39 -100t-107 -42zM421 165l81 -28q-21 -67 -78 -109.5t-138 -42.5q-101 0 -171.5 69.5t-70.5 187.5q0 110 68 182t162 72q109 0 170 -68.5t61 -183.5q0 -18 -2 -30h-362
q1 -64 42.5 -105t102.5 -41q103 0 135 97zM144 290h263q-2 54 -36.5 88.5t-95.5 34.5q-56 0 -92 -36.5t-39 -86.5z" />
    <glyph glyph-name="Edotaccent" unicode="&#x116;" horiz-adv-x="580" 
d="M248 818q0 26 18.5 45t44.5 19t45 -19t19 -45t-19 -44.5t-45 -18.5q-25 0 -44 18.5t-19 44.5zM526 0h-431v709h431v-91h-333v-218h302v-92h-302v-217h333v-91z" />
    <glyph glyph-name="edotaccent" unicode="&#x117;" horiz-adv-x="547" 
d="M220 616q0 26 18 44t44 18t44 -18t18 -44t-18 -44t-44 -18t-44 18t-18 44zM421 165l81 -28q-21 -67 -78 -109.5t-138 -42.5q-101 0 -171.5 69.5t-70.5 187.5q0 110 68 182t162 72q109 0 170 -68.5t61 -183.5q0 -18 -2 -30h-362q1 -64 42.5 -105t102.5 -41q103 0 135 97z
M144 290h263q-2 54 -36.5 88.5t-95.5 34.5q-56 0 -92 -36.5t-39 -86.5z" />
    <glyph glyph-name="Eogonek" unicode="&#x118;" horiz-adv-x="580" 
d="M361 -115q0 72 72 115h-338v709h431v-91h-333v-218h302v-92h-302v-217h333v-91q-85 -40 -85 -97q0 -24 15.5 -35.5t37.5 -11.5q16 0 32 4v-68q-21 -8 -50 -8q-48 0 -81.5 27.5t-33.5 73.5z" />
    <glyph glyph-name="eogonek" unicode="&#x119;" horiz-adv-x="548" 
d="M144 290h263q-2 54 -36.5 88.5t-95.5 34.5q-56 0 -92 -36.5t-39 -86.5zM322 -215q-48 0 -81.5 27.5t-33.5 73.5q0 60 51 100q-91 10 -152.5 78.5t-61.5 177.5q0 110 68 182t162 72q109 0 170 -68.5t61 -183.5q0 -15 -2 -30h-362q1 -63 43 -104.5t102 -41.5q103 0 135 97
l81 -28q-15 -49 -52 -86.5t-88 -53.5q-33 -11 -54 -34t-21 -54q0 -27 15.5 -39.5t37.5 -12.5q17 0 32 4v-68q-21 -8 -50 -8z" />
    <glyph glyph-name="Ecaron" unicode="&#x11a;" horiz-adv-x="580" 
d="M144 878h91l81 -64l85 64h92l-117 -119h-120zM526 0h-431v709h431v-91h-333v-218h302v-92h-302v-217h333v-91z" />
    <glyph glyph-name="ecaron" unicode="&#x11b;" horiz-adv-x="547" 
d="M124 687h87l70 -81l70 81h88l-102 -142h-111zM421 165l81 -28q-21 -67 -78 -109.5t-138 -42.5q-101 0 -171.5 69.5t-70.5 187.5q0 110 68 182t162 72q109 0 170 -68.5t61 -183.5q0 -18 -2 -30h-362q1 -64 42.5 -105t102.5 -41q103 0 135 97zM144 290h263
q-2 54 -36.5 88.5t-95.5 34.5q-56 0 -92 -36.5t-39 -86.5z" />
    <glyph glyph-name="Gcircumflex" unicode="&#x11c;" horiz-adv-x="772" 
d="M317 759h-91l112 119h120l117 -119h-92l-85 64zM708 0h-79l-9 100q-26 -47 -85 -81t-142 -34q-91 0 -168 41.5t-126.5 127.5t-49.5 201t52 201t130.5 127t168.5 41q114 0 198.5 -58.5t115.5 -155.5l-89 -38q-24 77 -83.5 119.5t-141.5 42.5q-103 0 -177 -73t-74 -206
q0 -134 72.5 -207.5t174.5 -73.5q56 0 99.5 18t68 47.5t37 59.5t14.5 60h-246v88h339v-347z" />
    <glyph glyph-name="gcircumflex" unicode="&#x11d;" horiz-adv-x="583" 
d="M212 545h-87l104 139h107l104 -139h-88l-70 81zM280 102q61 0 99 42.5t38 111.5t-38 111.5t-99 42.5q-62 0 -100.5 -42t-38.5 -112q0 -71 37.5 -112.5t101.5 -41.5zM44 -26l91 21q5 -51 41 -84.5t90 -33.5q147 0 147 156v69q-18 -35 -56.5 -57t-90.5 -22
q-96 0 -158.5 65.5t-62.5 167.5q0 99 62 166.5t159 67.5q110 0 148 -76v67h93v-445q0 -48 -12.5 -89.5t-39.5 -76.5t-75.5 -55t-113.5 -20q-89 0 -151 50.5t-71 128.5z" />
    <glyph glyph-name="Gbreve" unicode="&#x11e;" horiz-adv-x="772" 
d="M394 754q-71 0 -112.5 38.5t-44.5 90.5h81q2 -21 20.5 -38.5t55.5 -17.5t55 17.5t20 38.5h81q-3 -53 -44 -91t-112 -38zM708 0h-79l-9 100q-26 -47 -85 -81t-142 -34q-91 0 -168 41.5t-126.5 127.5t-49.5 201t52 201t130.5 127t168.5 41q114 0 198.5 -58.5t115.5 -155.5
l-89 -38q-24 77 -83.5 119.5t-141.5 42.5q-103 0 -177 -73t-74 -206q0 -134 72.5 -207.5t174.5 -73.5q56 0 99.5 18t68 47.5t37 59.5t14.5 60h-246v88h339v-347z" />
    <glyph glyph-name="gbreve" unicode="&#x11f;" horiz-adv-x="583" 
d="M276 545q-67 0 -106 42.5t-40 99.5h73q2 -27 20 -46t53 -19t53 19.5t20 45.5h73q-1 -58 -39 -100t-107 -42zM280 102q61 0 99 42.5t38 111.5t-38 111.5t-99 42.5q-62 0 -100.5 -42t-38.5 -112q0 -71 37.5 -112.5t101.5 -41.5zM44 -26l91 21q5 -51 41 -84.5t90 -33.5
q147 0 147 156v69q-18 -35 -56.5 -57t-90.5 -22q-96 0 -158.5 65.5t-62.5 167.5q0 99 62 166.5t159 67.5q110 0 148 -76v67h93v-445q0 -48 -12.5 -89.5t-39.5 -76.5t-75.5 -55t-113.5 -20q-89 0 -151 50.5t-71 128.5z" />
    <glyph glyph-name="Gdotaccent" unicode="&#x120;" horiz-adv-x="772" 
d="M335 818q0 26 18.5 45t44.5 19t45 -19t19 -45t-19 -44.5t-45 -18.5t-44.5 18.5t-18.5 44.5zM708 0h-79l-9 100q-26 -47 -85 -81t-142 -34q-91 0 -168 41.5t-126.5 127.5t-49.5 201t52 201t130.5 127t168.5 41q114 0 198.5 -58.5t115.5 -155.5l-89 -38q-24 77 -83.5 119.5
t-141.5 42.5q-103 0 -177 -73t-74 -206q0 -134 72.5 -207.5t174.5 -73.5q56 0 99.5 18t68 47.5t37 59.5t14.5 60h-246v88h339v-347z" />
    <glyph glyph-name="gdotaccent" unicode="&#x121;" horiz-adv-x="583" 
d="M215 616q0 26 18.5 44t43.5 18t43.5 -18t18.5 -44t-18.5 -44t-43.5 -18t-43.5 18t-18.5 44zM280 102q61 0 99 42.5t38 111.5t-38 111.5t-99 42.5q-62 0 -100.5 -42t-38.5 -112q0 -71 37.5 -112.5t101.5 -41.5zM44 -26l91 21q5 -51 41 -84.5t90 -33.5q147 0 147 156v69
q-18 -35 -56.5 -57t-90.5 -22q-96 0 -158.5 65.5t-62.5 167.5q0 99 62 166.5t159 67.5q110 0 148 -76v67h93v-445q0 -48 -12.5 -89.5t-39.5 -76.5t-75.5 -55t-113.5 -20q-89 0 -151 50.5t-71 128.5z" />
    <glyph glyph-name="Gcommaaccent" unicode="&#x122;" horiz-adv-x="772" 
d="M334 -88q0 22 17.5 37t41.5 15q26 0 45.5 -18t19.5 -55q0 -54 -34.5 -83t-79.5 -29v40q25 0 44 15t21 33q-9 -6 -21 -6q-24 0 -39 13t-15 38zM708 0h-79l-9 100q-26 -47 -85 -81t-142 -34q-91 0 -168 41.5t-126.5 127.5t-49.5 201t52 201t130.5 127t168.5 41
q114 0 198.5 -58.5t115.5 -155.5l-89 -38q-24 77 -83.5 119.5t-141.5 42.5q-103 0 -177 -73t-74 -206q0 -134 72.5 -207.5t174.5 -73.5q56 0 99.5 18t68 47.5t37 59.5t14.5 60h-246v88h339v-347z" />
    <glyph glyph-name="gcommaaccent" unicode="&#x123;" horiz-adv-x="583" 
d="M331 586q0 -23 -17 -37.5t-42 -14.5t-45 18.5t-20 54.5q0 51 35 81.5t79 30.5v-40q-25 0 -44 -15t-21 -33q6 6 21 6q24 0 39 -13.5t15 -37.5zM280 102q61 0 99 42.5t38 111.5t-38 111.5t-99 42.5q-62 0 -100.5 -42t-38.5 -112q0 -71 37.5 -112.5t101.5 -41.5zM44 -26
l91 21q5 -51 41 -84.5t90 -33.5q147 0 147 156v69q-18 -35 -56.5 -57t-90.5 -22q-96 0 -158.5 65.5t-62.5 167.5q0 99 62 166.5t159 67.5q110 0 148 -76v67h93v-445q0 -48 -12.5 -89.5t-39.5 -76.5t-75.5 -55t-113.5 -20q-89 0 -151 50.5t-71 128.5z" />
    <glyph glyph-name="Hcircumflex" unicode="&#x124;" horiz-adv-x="748" 
d="M291 759h-91l112 119h120l117 -119h-92l-85 64zM653 0h-98v315h-362v-315h-98v709h98v-303h362v303h98v-709z" />
    <glyph glyph-name="hcircumflex" unicode="&#x125;" horiz-adv-x="559" 
d="M202 769h-91l112 119h120l117 -119h-92l-85 64zM170 283v-283h-94v724h94v-299q48 70 146 70q83 0 127.5 -53t44.5 -137v-305h-94v289q0 121 -112 121q-52 0 -81 -35.5t-31 -91.5z" />
    <glyph glyph-name="Hbar" unicode="&#x126;" horiz-adv-x="752" 
d="M195 406h362v107h-362v-107zM655 0h-98v315h-362v-315h-98v513h-73v75h73v121h98v-121h362v121h98v-121h72v-75h-72v-513z" />
    <glyph glyph-name="hbar" unicode="&#x127;" horiz-adv-x="559" 
d="M170 283v-283h-94v557h-86v76h86v91h94v-91h121v-76h-121v-132q48 70 146 70q83 0 127.5 -53t44.5 -137v-305h-94v289q0 121 -112 121q-52 0 -81 -35.5t-31 -91.5z" />
    <glyph glyph-name="Itilde" unicode="&#x128;" horiz-adv-x="290" 
d="M308 881v-16q0 -54 -26.5 -82.5t-69.5 -28.5q-38 0 -71 23l-15 10q-23 14 -37 14q-35 0 -35 -44h-68v16q0 54 27 82.5t70 28.5q35 0 73 -23l15 -9q25 -14 38 -14q32 0 32 35v8h67zM195 0h-100v709h100v-709z" />
    <glyph glyph-name="itilde" unicode="&#x129;" horiz-adv-x="245" 
d="M280 677v-15q0 -53 -27 -81t-70 -28q-31 0 -66 22l-14 9q-23 14 -37 14q-29 0 -29 -43h-72v15q0 53 27.5 81t70.5 28q32 0 67 -22l14 -9q23 -14 36 -14q29 0 29 43h71zM169 0h-93v481h93v-481z" />
    <glyph glyph-name="Imacron" unicode="&#x12a;" horiz-adv-x="290" 
d="M292 779h-293v83h293v-83zM195 0h-100v709h100v-709z" />
    <glyph glyph-name="imacron" unicode="&#x12b;" horiz-adv-x="245" 
d="M260 577h-273v81h273v-81zM169 0h-93v481h93v-481z" />
    <glyph glyph-name="Ibreve" unicode="&#x12c;" horiz-adv-x="290" 
d="M146 754q-71 0 -112.5 38.5t-44.5 90.5h81q2 -21 20.5 -38.5t55.5 -17.5t55 17.5t20 38.5h81q-3 -53 -44 -91t-112 -38zM195 0h-100v709h100v-709z" />
    <glyph glyph-name="ibreve" unicode="&#x12d;" horiz-adv-x="245" 
d="M123 545q-67 0 -106 42.5t-40 99.5h73q2 -27 20 -46t53 -19t53 19.5t20 45.5h73q-1 -58 -39 -100t-107 -42zM169 0h-93v481h93v-481z" />
    <glyph glyph-name="Iogonek" unicode="&#x12e;" horiz-adv-x="290" 
d="M30 -115q0 72 72 115h-7v709h100v-709q-85 -40 -85 -97q0 -24 15.5 -35.5t37.5 -11.5q16 0 32 4v-68q-21 -8 -50 -8q-48 0 -81.5 27.5t-33.5 73.5z" />
    <glyph glyph-name="iogonek" unicode="&#x12f;" horiz-adv-x="245" 
d="M55 663q0 28 19.5 48t47.5 20t48 -19.5t20 -48.5q0 -28 -20 -47.5t-48 -19.5t-47.5 19.5t-19.5 47.5zM84 -97q0 -24 15.5 -35.5t37.5 -11.5q16 0 32 4v-68q-21 -8 -50 -8q-48 0 -81.5 27.5t-33.5 73.5q0 72 72 115v481h93v-481q-85 -40 -85 -97z" />
    <glyph glyph-name="Idotaccent" unicode="&#x130;" horiz-adv-x="290" 
d="M81 818q0 26 18.5 45t44.5 19t45 -19t19 -45t-19 -44.5t-45 -18.5t-44.5 18.5t-18.5 44.5zM195 0h-100v709h100v-709z" />
    <glyph glyph-name="dotlessi" unicode="&#x131;" horiz-adv-x="245" 
d="M169 0h-93v481h93v-481z" />
    <glyph glyph-name="IJ" unicode="&#x132;" horiz-adv-x="610" 
d="M88 211l100 19v-18q0 -68 32 -102t88 -34q54 0 85 34t31 95v504h98v-497q0 -96 -58.5 -161.5t-154.5 -65.5q-103 0 -162 61.5t-59 164.5zM188 300h-100v409h100v-409z" />
    <glyph glyph-name="ij" unicode="&#x133;" horiz-adv-x="491" 
d="M300 665q0 28 19.5 48t47.5 20q29 0 48.5 -19.5t19.5 -48.5q0 -28 -20 -47.5t-48 -19.5t-47.5 19.5t-19.5 47.5zM321 -52v533h94v-537q0 -66 -36 -107.5t-97 -41.5q-35 0 -56 7v79q15 -3 30 -3q65 0 65 70zM55 663q0 28 19.5 48t47.5 20t48 -19.5t20 -48.5
q0 -28 -20 -47.5t-48 -19.5t-47.5 19.5t-19.5 47.5zM169 0h-93v481h93v-481z" />
    <glyph glyph-name="Jcircumflex" unicode="&#x134;" horiz-adv-x="551" 
d="M332 759h-91l112 119h120l117 -119h-92l-85 64zM29 211v46l98 22v-67q0 -68 33 -102t89 -34q54 0 85 34t31 95v504h98v-497q0 -96 -58.5 -161.5t-154.5 -65.5q-103 0 -162 61.5t-59 164.5z" />
    <glyph glyph-name="jcircumflex" unicode="&#x135;" horiz-adv-x="246" 
d="M53 545h-87l104 139h107l104 -139h-88l-70 81zM76 -52v533h94v-537q0 -66 -36 -107.5t-97 -41.5q-35 0 -56 7v78q10 -2 30 -2q65 0 65 70z" />
    <glyph glyph-name="Kcommaaccent" unicode="&#x136;" horiz-adv-x="663" 
d="M300 -88q0 22 17.5 37t41.5 15q26 0 45.5 -18t19.5 -55q0 -54 -34.5 -83t-79.5 -29v40q25 0 44 15t21 33q-9 -6 -21 -6q-24 0 -39 13t-15 38zM534 0l-240 322l-101 -108v-214h-98v709h98v-365l332 365h129l-295 -316l299 -393h-124z" />
    <glyph glyph-name="kcommaaccent" unicode="&#x137;" horiz-adv-x="526" 
d="M226 -88q0 23 17.5 37.5t41.5 14.5q26 0 45.5 -18t19.5 -55q0 -54 -34.5 -83t-79.5 -29v40q25 0 44 15t21 33q-6 -6 -21 -6q-24 0 -39 13t-15 38zM507 481l-205 -203l209 -278h-118l-157 212l-67 -67v-145h-93v724h93v-456l208 213h130z" />
    <glyph glyph-name="kgreenlandic" unicode="&#x138;" horiz-adv-x="526" 
d="M507 481l-205 -203l209 -278h-118l-157 212l-67 -67v-145h-93v481h93v-213l208 213h130z" />
    <glyph glyph-name="Lacute" unicode="&#x139;" horiz-adv-x="547" 
d="M330 878l-137 -119h-94l101 119h130zM528 0h-433v709h98v-617h335v-92z" />
    <glyph glyph-name="lacute" unicode="&#x13a;" horiz-adv-x="246" 
d="M308 888l-137 -119h-94l101 119h130zM170 0h-94v724h94v-724z" />
    <glyph glyph-name="Lcommaaccent" unicode="&#x13b;" horiz-adv-x="547" 
d="M261 -88q0 22 17.5 37t41.5 15q26 0 45.5 -18t19.5 -55q0 -54 -34.5 -83t-79.5 -29v40q25 0 44 15t21 33q-9 -6 -21 -6q-24 0 -39 13t-15 38zM528 0h-433v709h98v-617h335v-92z" />
    <glyph glyph-name="lcommaaccent" unicode="&#x13c;" horiz-adv-x="246" 
d="M61 -88q0 23 17.5 37.5t41.5 14.5q26 0 45.5 -18t19.5 -55q0 -54 -34.5 -83t-79.5 -29v40q25 0 44 15t21 33q-6 -6 -21 -6q-24 0 -39 13t-15 38zM170 0h-94v724h94v-724z" />
    <glyph glyph-name="Lcaron" unicode="&#x13d;" horiz-adv-x="547" 
d="M434 759l-68 -190h-73l30 190h111zM528 0h-433v709h98v-617h335v-92z" />
    <glyph glyph-name="lcaron" unicode="&#x13e;" horiz-adv-x="246" 
d="M336 724l-64 -179h-69l28 179h105zM170 0h-94v724h94v-724z" />
    <glyph glyph-name="Ldot" unicode="&#x13f;" horiz-adv-x="547" 
d="M528 0h-433v709h98v-617h335v-92zM295 372q0 26 18.5 45t44.5 19t45 -19t19 -45t-19 -44.5t-45 -18.5t-44.5 18.5t-18.5 44.5z" />
    <glyph glyph-name="ldot" unicode="&#x140;" horiz-adv-x="347" 
d="M229 312q0 26 18.5 44t43.5 18t43.5 -18t18.5 -44t-18.5 -44t-43.5 -18t-43.5 18t-18.5 44zM170 0h-94v724h94v-724z" />
    <glyph glyph-name="Lslash" unicode="&#x141;" horiz-adv-x="564" 
d="M545 0h-433v289l-96 -42v87l96 42v333h98v-289l157 69v-87l-157 -70v-240h335v-92z" />
    <glyph glyph-name="lslash" unicode="&#x142;" horiz-adv-x="335" 
d="M214 0h-94v272l-89 -39v87l89 39v365h94v-323l95 42v-87l-95 -42v-314z" />
    <glyph glyph-name="Nacute" unicode="&#x143;" horiz-adv-x="773" 
d="M542 878l-137 -119h-94l101 119h130zM678 0h-102l-383 578v-578h-98v709h131l354 -544v544h98v-709z" />
    <glyph glyph-name="nacute" unicode="&#x144;" horiz-adv-x="559" 
d="M422 689l-126 -146h-79l87 146h118zM170 278v-278h-94v481h92v-69q48 83 148 83q83 0 127.5 -53t44.5 -137v-305h-94v289q0 121 -112 121q-53 0 -82.5 -37.5t-29.5 -94.5z" />
    <glyph glyph-name="Ncommaaccent" unicode="&#x145;" horiz-adv-x="773" 
d="M338 -88q0 22 17.5 37t41.5 15q26 0 45.5 -18t19.5 -55q0 -54 -34.5 -83t-79.5 -29v40q25 0 44 15t21 33q-9 -6 -21 -6q-24 0 -39 13t-15 38zM678 0h-102l-383 578v-578h-98v709h131l354 -544v544h98v-709z" />
    <glyph glyph-name="ncommaaccent" unicode="&#x146;" horiz-adv-x="559" 
d="M226 -88q0 23 17.5 37.5t41.5 14.5q26 0 45.5 -18t19.5 -55q0 -54 -34.5 -83t-79.5 -29v40q25 0 44 15t21 33q-6 -6 -21 -6q-24 0 -39 13t-15 38zM170 278v-278h-94v481h92v-69q48 83 148 83q83 0 127.5 -53t44.5 -137v-305h-94v289q0 121 -112 121q-53 0 -82.5 -37.5
t-29.5 -94.5z" />
    <glyph glyph-name="Ncaron" unicode="&#x147;" horiz-adv-x="773" 
d="M215 878h91l81 -64l85 64h92l-117 -119h-120zM678 0h-102l-383 578v-578h-98v709h131l354 -544v544h98v-709z" />
    <glyph glyph-name="ncaron" unicode="&#x148;" horiz-adv-x="559" 
d="M108 687h87l70 -81l70 81h88l-102 -142h-111zM170 278v-278h-94v481h92v-69q48 83 148 83q83 0 127.5 -53t44.5 -137v-305h-94v289q0 121 -112 121q-53 0 -82.5 -37.5t-29.5 -94.5z" />
    <glyph glyph-name="napostrophe" unicode="&#x149;" horiz-adv-x="559" 
d="M65 659q0 23 17.5 37.5t41.5 14.5q26 0 45.5 -18t19.5 -55q0 -54 -34.5 -83t-79.5 -29v40q25 0 44 15t21 33q-6 -6 -21 -6q-24 0 -39 13t-15 38zM170 278v-278h-94v481h92v-69q48 83 148 83q83 0 127.5 -53t44.5 -137v-305h-94v289q0 121 -112 121q-53 0 -82.5 -37.5
t-29.5 -94.5z" />
    <glyph glyph-name="Eng" unicode="&#x14a;" horiz-adv-x="773" 
d="M518 -112q35 0 48.5 16t13.5 51v39l-387 584v-578h-98v709h131l354 -544v544h98v-756q0 -66 -36.5 -107.5t-97.5 -41.5q-42 0 -56 7v79q12 -2 30 -2z" />
    <glyph glyph-name="eng" unicode="&#x14b;" horiz-adv-x="559" 
d="M170 278v-278h-94v481h92v-69q48 83 148 83q83 0 127.5 -53t44.5 -137v-361q0 -66 -36 -107.5t-97 -41.5q-42 0 -56 7v78q12 -2 30 -2q65 0 65 70v341q0 121 -112 121q-53 0 -82.5 -37.5t-29.5 -94.5z" />
    <glyph glyph-name="Omacron" unicode="&#x14c;" horiz-adv-x="808" 
d="M551 779h-293v83h293v-83zM48 355q0 86 30.5 157t81 116.5t113.5 70.5t131 25t131 -25t113.5 -70.5t81 -116.5t30.5 -157q0 -114 -52.5 -200t-132.5 -128t-171 -42t-171 42t-132.5 128t-52.5 200zM148 355q0 -132 75 -206t181 -74t181 74t75 206t-75 205.5t-181 73.5
t-181 -73.5t-75 -205.5z" />
    <glyph glyph-name="omacron" unicode="&#x14d;" horiz-adv-x="580" 
d="M427 577h-273v81h273v-81zM290 496q107 0 176.5 -72.5t69.5 -182.5q0 -111 -69 -183.5t-177 -72.5t-177 72.5t-69 183.5q0 110 69.5 182.5t176.5 72.5zM290 69q63 0 106.5 45.5t43.5 126.5q0 80 -43.5 125.5t-106.5 45.5t-106.5 -45.5t-43.5 -125.5q0 -81 43.5 -126.5
t106.5 -45.5z" />
    <glyph glyph-name="Obreve" unicode="&#x14e;" horiz-adv-x="808" 
d="M412 754q-71 0 -112.5 38.5t-44.5 90.5h81q2 -21 20.5 -38.5t55.5 -17.5t55 17.5t20 38.5h81q-3 -53 -44 -91t-112 -38zM48 355q0 86 30.5 157t81 116.5t113.5 70.5t131 25t131 -25t113.5 -70.5t81 -116.5t30.5 -157q0 -114 -52.5 -200t-132.5 -128t-171 -42t-171 42
t-132.5 128t-52.5 200zM148 355q0 -132 75 -206t181 -74t181 74t75 206t-75 205.5t-181 73.5t-181 -73.5t-75 -205.5z" />
    <glyph glyph-name="obreve" unicode="&#x14f;" horiz-adv-x="580" 
d="M290 545q-67 0 -106 42.5t-40 99.5h73q2 -27 20 -46t53 -19t53 19.5t20 45.5h73q-1 -58 -39 -100t-107 -42zM290 496q107 0 176.5 -72.5t69.5 -182.5q0 -111 -69 -183.5t-177 -72.5t-177 72.5t-69 183.5q0 110 69.5 182.5t176.5 72.5zM290 69q63 0 106.5 45.5t43.5 126.5
q0 80 -43.5 125.5t-106.5 45.5t-106.5 -45.5t-43.5 -125.5q0 -81 43.5 -126.5t106.5 -45.5z" />
    <glyph glyph-name="Ohungarumlaut" unicode="&#x150;" horiz-adv-x="808" 
d="M605 878l-106 -119h-70l71 119h105zM454 878l-96 -119h-70l61 119h105zM48 355q0 86 30.5 157t81 116.5t113.5 70.5t131 25t131 -25t113.5 -70.5t81 -116.5t30.5 -157q0 -114 -52.5 -200t-132.5 -128t-171 -42t-171 42t-132.5 128t-52.5 200zM148 355q0 -132 75 -206
t181 -74t181 74t75 206t-75 205.5t-181 73.5t-181 -73.5t-75 -205.5z" />
    <glyph glyph-name="ohungarumlaut" unicode="&#x151;" horiz-adv-x="580" 
d="M483 689l-100 -146h-66l61 146h105zM342 689l-90 -146h-66l51 146h105zM290 496q107 0 176.5 -72.5t69.5 -182.5q0 -111 -69 -183.5t-177 -72.5t-177 72.5t-69 183.5q0 110 69.5 182.5t176.5 72.5zM290 69q63 0 106.5 45.5t43.5 126.5q0 80 -43.5 125.5t-106.5 45.5
t-106.5 -45.5t-43.5 -125.5q0 -81 43.5 -126.5t106.5 -45.5z" />
    <glyph glyph-name="OE" unicode="&#x152;" horiz-adv-x="1145" 
d="M1091 0h-431v93q-102 -108 -256 -108q-91 0 -171 42t-132.5 128t-52.5 200q0 86 30.5 157t81 116.5t113.5 70.5t131 25q154 0 256 -108v93h431v-91h-333v-218h302v-92h-302v-217h333v-91zM148 355q0 -132 75 -206t181 -74t181 74t75 206t-75 205.5t-181 73.5t-181 -73.5
t-75 -205.5z" />
    <glyph glyph-name="oe" unicode="&#x153;" horiz-adv-x="943" 
d="M817 165l81 -28q-21 -67 -78 -109.5t-138 -42.5q-59 0 -110.5 25t-84.5 72q-70 -97 -197 -97q-108 0 -177 72.5t-69 183.5q0 110 69.5 182.5t176.5 72.5q127 0 197 -98q32 46 80.5 72t102.5 26q109 0 170 -68.5t61 -183.5q0 -18 -2 -30h-362q1 -63 43 -104.5t102 -41.5
q103 0 135 97zM540 290h263q-2 54 -36.5 88.5t-95.5 34.5q-56 0 -92 -36.5t-39 -86.5zM290 69q63 0 106.5 45.5t43.5 126.5q0 80 -43.5 125.5t-106.5 45.5t-106.5 -45.5t-43.5 -125.5q0 -81 43.5 -126.5t106.5 -45.5z" />
    <glyph glyph-name="Racute" unicode="&#x154;" horiz-adv-x="629" 
d="M477 878l-137 -119h-94l101 119h130zM194 378h150q60 0 97 32.5t37 87.5q0 56 -37 89.5t-97 33.5h-150v-243zM462 0l-162 290h-106v-290h-99v709h267q98 0 157.5 -60.5t59.5 -150.5q0 -77 -46 -131.5t-126 -69.5l169 -297h-114z" />
    <glyph glyph-name="racute" unicode="&#x155;" horiz-adv-x="363" 
d="M343 689l-126 -146h-79l87 146h118zM343 486v-100q-21 3 -41 3q-132 0 -132 -148v-241h-94v481h92v-84q44 92 144 92q16 0 31 -3z" />
    <glyph glyph-name="Rcommaaccent" unicode="&#x156;" horiz-adv-x="629" 
d="M277 -88q0 22 17.5 37t41.5 15q26 0 45.5 -18t19.5 -55q0 -54 -34.5 -83t-79.5 -29v40q25 0 44 15t21 33q-9 -6 -21 -6q-24 0 -39 13t-15 38zM194 378h150q60 0 97 32.5t37 87.5q0 56 -37 89.5t-97 33.5h-150v-243zM462 0l-162 290h-106v-290h-99v709h267
q98 0 157.5 -60.5t59.5 -150.5q0 -77 -46 -131.5t-126 -69.5l169 -297h-114z" />
    <glyph glyph-name="rcommaaccent" unicode="&#x157;" horiz-adv-x="363" 
d="M62 -88q0 23 17.5 37.5t41.5 14.5q26 0 45.5 -18t19.5 -55q0 -54 -34.5 -83t-79.5 -29v40q25 0 44 15t21 33q-6 -6 -21 -6q-24 0 -39 13t-15 38zM343 486v-100q-21 3 -41 3q-132 0 -132 -148v-241h-94v481h92v-84q44 92 144 92q16 0 31 -3z" />
    <glyph glyph-name="Rcaron" unicode="&#x158;" horiz-adv-x="629" 
d="M137 878h91l81 -64l85 64h92l-117 -119h-120zM194 378h150q60 0 97 32.5t37 87.5q0 56 -37 89.5t-97 33.5h-150v-243zM462 0l-162 290h-106v-290h-99v709h267q98 0 157.5 -60.5t59.5 -150.5q0 -77 -46 -131.5t-126 -69.5l169 -297h-114z" />
    <glyph glyph-name="rcaron" unicode="&#x159;" horiz-adv-x="363" 
d="M49 687h87l70 -81l70 81h88l-102 -142h-111zM343 486v-100q-21 3 -41 3q-132 0 -132 -148v-241h-94v481h92v-84q44 92 144 92q16 0 31 -3z" />
    <glyph glyph-name="Sacute" unicode="&#x15a;" horiz-adv-x="594" 
d="M476 878l-137 -119h-94l101 119h130zM540 548l-88 -31q-7 46 -45 83.5t-105 37.5q-59 0 -98 -34t-39 -84q0 -39 23.5 -66t67.5 -37l106 -23q88 -19 136 -71.5t48 -127.5q0 -86 -68 -148t-177 -62q-119 0 -186.5 62.5t-78.5 148.5l94 30q6 -64 50 -108t120 -44
q70 0 108 32t38 81q0 40 -27 69.5t-79 40.5l-101 22q-79 17 -126 67t-47 127q0 84 68.5 147.5t165.5 63.5q109 0 167 -53t73 -123z" />
    <glyph glyph-name="sacute" unicode="&#x15b;" horiz-adv-x="455" 
d="M386 689l-126 -146h-79l87 146h118zM38 125l85 30q5 -39 34 -64.5t78 -25.5q38 0 60 18.5t22 45.5q0 48 -62 62l-82 18q-56 12 -88 48t-32 87q0 62 50.5 107t120.5 45q46 0 82 -13.5t56 -35.5t30 -41t15 -39l-83 -31q-2 12 -7 23.5t-15.5 25.5t-30.5 22.5t-47 8.5
q-35 0 -57.5 -19t-22.5 -45q0 -46 55 -58l78 -17q64 -14 98.5 -51.5t34.5 -91.5q0 -57 -46.5 -103t-129.5 -46q-89 0 -139 44.5t-57 95.5z" />
    <glyph glyph-name="Scircumflex" unicode="&#x15c;" horiz-adv-x="594" 
d="M233 759h-91l112 119h120l117 -119h-92l-85 64zM540 548l-88 -31q-7 46 -45 83.5t-105 37.5q-59 0 -98 -34t-39 -84q0 -39 23.5 -66t67.5 -37l106 -23q88 -19 136 -71.5t48 -127.5q0 -86 -68 -148t-177 -62q-119 0 -186.5 62.5t-78.5 148.5l94 30q6 -64 50 -108t120 -44
q70 0 108 32t38 81q0 40 -27 69.5t-79 40.5l-101 22q-79 17 -126 67t-47 127q0 84 68.5 147.5t165.5 63.5q109 0 167 -53t73 -123z" />
    <glyph glyph-name="scircumflex" unicode="&#x15d;" horiz-adv-x="455" 
d="M166 545h-87l104 139h107l104 -139h-88l-70 81zM38 125l85 30q5 -39 34 -64.5t78 -25.5q38 0 60 18.5t22 45.5q0 48 -62 62l-82 18q-56 12 -88 48t-32 87q0 62 50.5 107t120.5 45q46 0 82 -13.5t56 -35.5t30 -41t15 -39l-83 -31q-2 12 -7 23.5t-15.5 25.5t-30.5 22.5
t-47 8.5q-35 0 -57.5 -19t-22.5 -45q0 -46 55 -58l78 -17q64 -14 98.5 -51.5t34.5 -91.5q0 -57 -46.5 -103t-129.5 -46q-89 0 -139 44.5t-57 95.5z" />
    <glyph glyph-name="Scedilla" unicode="&#x15e;" horiz-adv-x="594" 
d="M540 548l-88 -31q-7 46 -45 83.5t-105 37.5q-59 0 -98 -34.5t-39 -83.5q0 -38 23.5 -65.5t67.5 -37.5l106 -23q88 -19 136 -71.5t48 -127.5q0 -78 -55 -136.5t-147 -70.5l-22 -34q43 0 70 -22.5t27 -59.5q0 -38 -29.5 -63t-87.5 -25q-73 0 -110 44l37 45q31 -34 72 -34
q20 0 33.5 8.5t13.5 24.5q0 14 -12 23t-32 9q-16 0 -29 -5l-33 39l31 48q-106 8 -166.5 69t-70.5 143l94 30q6 -64 50.5 -109t119.5 -45q70 0 108 32t38 81q0 39 -27.5 69t-78.5 41l-101 22q-79 17 -126 67t-47 127q0 84 68.5 147.5t165.5 63.5q109 0 167 -53t73 -123z" />
    <glyph glyph-name="scedilla" unicode="&#x15f;" horiz-adv-x="455" 
d="M38 127l85 30q5 -40 34 -66t78 -26q38 0 60 18.5t22 45.5q0 48 -62 62l-82 18q-55 12 -87.5 48.5t-32.5 86.5q0 62 50.5 107t120.5 45q46 0 82 -13.5t56 -35.5t30 -41t15 -39l-83 -31q-2 12 -7 23.5t-15.5 25.5t-30.5 22.5t-47 8.5q-35 0 -57.5 -19t-22.5 -45
q0 -45 55 -58l78 -17q64 -14 98.5 -51.5t34.5 -91.5q0 -51 -38 -94.5t-107 -52.5l-21 -33q43 0 70 -22.5t27 -59.5q0 -38 -29.5 -63t-87.5 -25q-73 0 -110 44l37 45q31 -34 72 -34q20 0 33.5 8.5t13.5 24.5q0 14 -12 23t-32 9q-16 0 -29 -5l-33 39l32 50q-70 9 -111 51.5
t-47 87.5z" />
    <glyph glyph-name="Scaron" unicode="&#x160;" horiz-adv-x="594" 
d="M131 878h91l81 -64l85 64h92l-117 -119h-120zM540 548l-88 -31q-7 46 -45 83.5t-105 37.5q-59 0 -98 -34t-39 -84q0 -39 23.5 -66t67.5 -37l106 -23q88 -19 136 -71.5t48 -127.5q0 -86 -68 -148t-177 -62q-119 0 -186.5 62.5t-78.5 148.5l94 30q6 -64 50 -108t120 -44
q70 0 108 32t38 81q0 40 -27 69.5t-79 40.5l-101 22q-79 17 -126 67t-47 127q0 84 68.5 147.5t165.5 63.5q109 0 167 -53t73 -123z" />
    <glyph glyph-name="scaron" unicode="&#x161;" horiz-adv-x="455" 
d="M72 687h87l70 -81l70 81h88l-102 -142h-111zM38 125l85 30q5 -39 34 -64.5t78 -25.5q38 0 60 18.5t22 45.5q0 48 -62 62l-82 18q-56 12 -88 48t-32 87q0 62 50.5 107t120.5 45q46 0 82 -13.5t56 -35.5t30 -41t15 -39l-83 -31q-2 12 -7 23.5t-15.5 25.5t-30.5 22.5
t-47 8.5q-35 0 -57.5 -19t-22.5 -45q0 -46 55 -58l78 -17q64 -14 98.5 -51.5t34.5 -91.5q0 -57 -46.5 -103t-129.5 -46q-89 0 -139 44.5t-57 95.5z" />
    <glyph glyph-name="Tcommaaccent" unicode="&#x162;" horiz-adv-x="608" 
d="M263 -101l-33 39l39 62h-14v618h-237v91h572v-91h-237v-618h-13l-30 -46q43 0 70 -22.5t27 -59.5q0 -38 -30 -64t-87 -26q-72 0 -110 46l37 45q31 -34 72 -34q20 0 33.5 8.5t13.5 24.5q0 14 -12 23t-32 9q-16 0 -29 -5z" />
    <glyph glyph-name="tcommaaccent" unicode="&#x163;" horiz-adv-x="347" 
d="M176 -101l-33 39l43 68q-73 30 -73 126v264h-92v85h26q37 0 55.5 20.5t18.5 53.5v78h86v-152h104v-85h-104v-250q0 -34 15.5 -50t51.5 -16q21 0 37 4v-80q-20 -8 -62 -9l-26 -41q43 0 70 -22.5t27 -59.5q0 -38 -30 -64t-87 -26q-72 0 -110 46l37 45q31 -34 72 -34
q20 0 33.5 8.5t13.5 24.5q0 14 -12 23t-32 9q-16 0 -29 -5z" />
    <glyph glyph-name="Tcaron" unicode="&#x164;" horiz-adv-x="608" 
d="M130 878h91l81 -64l85 64h92l-117 -119h-120zM590 618h-237v-618h-98v618h-237v91h572v-91z" />
    <glyph glyph-name="tcaron" unicode="&#x165;" horiz-adv-x="347" 
d="M404 745l-64 -179h-69l28 179h105zM207 633v-152h104v-85h-104v-250q0 -34 15.5 -50t51.5 -16q21 0 37 4v-80q-24 -9 -64 -9q-62 0 -98 36t-36 101v264h-92v85h26q37 0 55.5 20.5t18.5 53.5v78h86z" />
    <glyph glyph-name="Tbar" unicode="&#x166;" horiz-adv-x="616" 
d="M594 618h-237v-246h110v-81h-110v-291h-98v291h-108v81h108v246h-237v91h572v-91z" />
    <glyph glyph-name="tbar" unicode="&#x167;" horiz-adv-x="355" 
d="M280 80q21 0 37 4v-80q-24 -9 -64 -9q-62 0 -98 36t-36 101v75h-92v76h92v113h-92v85h26q37 0 55.5 20.5t18.5 53.5v78h86v-152h104v-85h-104v-113h104v-76h-104v-61q0 -34 15.5 -50t51.5 -16z" />
    <glyph glyph-name="Utilde" unicode="&#x168;" horiz-adv-x="686" 
d="M503 881v-16q0 -54 -26.5 -82.5t-69.5 -28.5q-38 0 -71 23l-15 10q-23 14 -37 14q-35 0 -35 -44h-68v16q0 54 27 82.5t70 28.5q35 0 73 -23l15 -9q24 -14 38 -14q32 0 32 35v8h67zM343 -15q-112 0 -183.5 68t-71.5 189v467h97v-464q0 -81 41.5 -125t116.5 -44t116 44
t41 125v464h98v-467q0 -121 -71.5 -189t-183.5 -68z" />
    <glyph glyph-name="utilde" unicode="&#x169;" horiz-adv-x="559" 
d="M433 677v-15q0 -53 -27 -81t-70 -28q-31 0 -66 22l-14 9q-23 14 -37 14q-29 0 -29 -43h-72v15q0 53 27.5 81t70.5 28q32 0 67 -22l14 -9q23 -14 36 -14q29 0 29 43h71zM393 58q-19 -36 -58 -54.5t-84 -18.5q-82 0 -131 54.5t-49 138.5v303h94v-289q0 -54 26.5 -89
t82.5 -35t85 33.5t29 89.5v290h94v-392q0 -47 5 -89h-90q-4 22 -4 58z" />
    <glyph glyph-name="Umacron" unicode="&#x16a;" horiz-adv-x="686" 
d="M490 779h-293v83h293v-83zM343 -15q-112 0 -183.5 68t-71.5 189v467h97v-464q0 -81 41.5 -125t116.5 -44t116 44t41 125v464h98v-467q0 -121 -71.5 -189t-183.5 -68z" />
    <glyph glyph-name="umacron" unicode="&#x16b;" horiz-adv-x="559" 
d="M413 577h-273v81h273v-81zM393 58q-19 -36 -58 -54.5t-84 -18.5q-82 0 -131 54.5t-49 138.5v303h94v-289q0 -54 26.5 -89t82.5 -35t85 33.5t29 89.5v290h94v-392q0 -47 5 -89h-90q-4 22 -4 58z" />
    <glyph glyph-name="Ubreve" unicode="&#x16c;" horiz-adv-x="686" 
d="M344 754q-71 0 -112.5 38.5t-44.5 90.5h81q2 -21 20.5 -38.5t55.5 -17.5t55 17.5t20 38.5h81q-3 -53 -44 -91t-112 -38zM343 -15q-112 0 -183.5 68t-71.5 189v467h97v-464q0 -81 41.5 -125t116.5 -44t116 44t41 125v464h98v-467q0 -121 -71.5 -189t-183.5 -68z" />
    <glyph glyph-name="ubreve" unicode="&#x16d;" horiz-adv-x="559" 
d="M278 545q-67 0 -106 42.5t-40 99.5h73q2 -27 20 -46t53 -19t53 19.5t20 45.5h73q-1 -58 -39 -100t-107 -42zM393 58q-19 -36 -58 -54.5t-84 -18.5q-82 0 -131 54.5t-49 138.5v303h94v-289q0 -54 26.5 -89t82.5 -35t85 33.5t29 89.5v290h94v-392q0 -47 5 -89h-90
q-4 22 -4 58z" />
    <glyph glyph-name="Uring" unicode="&#x16e;" horiz-adv-x="686" 
d="M390 848q0 20 -14 33.5t-34 13.5q-19 0 -32.5 -13.5t-13.5 -33.5t13 -33t33 -13t34 13.5t14 32.5zM455 848q0 -45 -33 -77t-79 -32q-45 0 -78 32t-33 77q0 46 33 78t78 32q46 0 79 -32t33 -78zM343 -15q-112 0 -183.5 68t-71.5 189v467h97v-464q0 -81 41.5 -125
t116.5 -44t116 44t41 125v464h98v-467q0 -121 -71.5 -189t-183.5 -68z" />
    <glyph glyph-name="uring" unicode="&#x16f;" horiz-adv-x="559" 
d="M324 641q0 20 -14 34.5t-35 14.5q-20 0 -33.5 -14.5t-13.5 -34.5t13.5 -34t33.5 -14q21 0 35 14t14 34zM388 641q0 -45 -33 -77t-79 -32q-45 0 -78 32t-33 77q0 46 33 78t78 32q46 0 79 -32t33 -78zM393 58q-19 -36 -58 -54.5t-84 -18.5q-82 0 -131 54.5t-49 138.5v303
h94v-289q0 -54 26.5 -89t82.5 -35t85 33.5t29 89.5v290h94v-392q0 -47 5 -89h-90q-4 22 -4 58z" />
    <glyph glyph-name="Uhungarumlaut" unicode="&#x170;" horiz-adv-x="686" 
d="M540 878l-106 -119h-70l71 119h105zM389 878l-96 -119h-70l61 119h105zM343 -15q-112 0 -183.5 68t-71.5 189v467h97v-464q0 -81 41.5 -125t116.5 -44t116 44t41 125v464h98v-467q0 -121 -71.5 -189t-183.5 -68z" />
    <glyph glyph-name="uhungarumlaut" unicode="&#x171;" horiz-adv-x="559" 
d="M459 689l-100 -146h-66l61 146h105zM318 689l-90 -146h-66l51 146h105zM393 58q-19 -36 -58 -54.5t-84 -18.5q-82 0 -131 54.5t-49 138.5v303h94v-289q0 -54 26.5 -89t82.5 -35t85 33.5t29 89.5v290h94v-392q0 -47 5 -89h-90q-4 22 -4 58z" />
    <glyph glyph-name="Uogonek" unicode="&#x172;" horiz-adv-x="686" 
d="M274 -115q0 59 51 101q-104 5 -170.5 72.5t-66.5 183.5v467h97v-464q0 -81 41.5 -125t116.5 -44t116 44t41 125v464h98v-467q0 -93 -43 -155t-116 -87q-85 -40 -85 -97q0 -24 15.5 -35.5t37.5 -11.5q16 0 32 4v-68q-21 -8 -50 -8q-48 0 -81.5 27.5t-33.5 73.5z" />
    <glyph glyph-name="uogonek" unicode="&#x173;" horiz-adv-x="559" 
d="M322 -115q0 74 75 117q-4 24 -4 56q-19 -36 -58 -54.5t-84 -18.5q-82 0 -131 54.5t-49 138.5v303h94v-289q0 -54 26.5 -89t82.5 -35t85 33.5t29 89.5v290h94v-392q0 -47 5 -89q-85 -40 -85 -97q0 -24 15.5 -35.5t37.5 -11.5q16 0 32 4v-68q-21 -8 -50 -8
q-48 0 -81.5 27.5t-33.5 73.5z" />
    <glyph glyph-name="Wcircumflex" unicode="&#x174;" horiz-adv-x="1020" 
d="M426 759h-91l112 119h120l117 -119h-92l-85 64zM742 148l153 561h101l-202 -709h-101l-185 575l-183 -575h-98l-205 709h101l156 -555l178 555h103z" />
    <glyph glyph-name="wcircumflex" unicode="&#x175;" horiz-adv-x="816" 
d="M338 545h-87l104 139h107l104 -139h-88l-70 81zM362 481h97l125 -362l106 362h99l-156 -481h-97l-128 366l-125 -366h-99l-158 481h103l108 -362z" />
    <glyph glyph-name="Ycircumflex" unicode="&#x176;" horiz-adv-x="642" 
d="M238 759h-91l112 119h120l117 -119h-92l-85 64zM272 303l-250 406h118l184 -316l184 316h112l-250 -406v-303h-98v303z" />
    <glyph glyph-name="ycircumflex" unicode="&#x177;" horiz-adv-x="538" 
d="M200 545h-87l104 139h107l104 -139h-88l-70 81zM210 -201h-103l120 254l-207 428h108l150 -332l144 332h101z" />
    <glyph glyph-name="Ydieresis" unicode="&#x178;" horiz-adv-x="642" 
d="M378 819q0 25 17 42t42 17t42 -17t17 -42t-17 -42t-42 -17t-42 17t-17 42zM147 819q0 25 17 42t42 17t42 -17t17 -42t-17 -42t-42 -17t-42 17t-17 42zM272 303l-250 406h118l184 -316l184 316h112l-250 -406v-303h-98v303z" />
    <glyph glyph-name="Zacute" unicode="&#x179;" horiz-adv-x="633" 
d="M473 878l-137 -119h-94l101 119h130zM589 0h-547v98l423 520h-413v91h532v-95l-425 -522h430v-92z" />
    <glyph glyph-name="zacute" unicode="&#x17a;" horiz-adv-x="477" 
d="M381 689l-126 -146h-79l87 146h118zM432 0h-386v82l264 314h-260v85h377v-82l-264 -314h269v-85z" />
    <glyph glyph-name="Zdotaccent" unicode="&#x17b;" horiz-adv-x="633" 
d="M253 818q0 26 18.5 45t44.5 19t45 -19t19 -45t-19 -44.5t-45 -18.5t-44.5 18.5t-18.5 44.5zM589 0h-547v98l423 520h-413v91h532v-95l-425 -522h430v-92z" />
    <glyph glyph-name="zdotaccent" unicode="&#x17c;" horiz-adv-x="477" 
d="M177 616q0 26 18.5 44t43.5 18t43.5 -18t18.5 -44t-18.5 -44t-43.5 -18t-43.5 18t-18.5 44zM432 0h-386v82l264 314h-260v85h377v-82l-264 -314h269v-85z" />
    <glyph glyph-name="Zcaron" unicode="&#x17d;" horiz-adv-x="633" 
d="M146 878h91l81 -64l85 64h92l-117 -119h-120zM589 0h-547v98l423 520h-413v91h532v-95l-425 -522h430v-92z" />
    <glyph glyph-name="zcaron" unicode="&#x17e;" horiz-adv-x="477" 
d="M84 687h87l70 -81l70 81h88l-102 -142h-111zM432 0h-386v82l264 314h-260v85h377v-82l-264 -314h269v-85z" />
    <glyph glyph-name="uni018F" unicode="&#x18f;" horiz-adv-x="793" 
d="M612 206q18 37 26 79h-496q4 -37 18 -67q29 -69 92 -106t140 -37q71 0 129.5 33.5t90.5 97.5zM383 724q155 0 258 -97.5t103 -272.5q0 -172 -104.5 -270.5t-247.5 -98.5q-67 0 -129.5 23.5t-112.5 67.5t-80 115t-30 160q0 13 1 24h602q-6 124 -80.5 191.5t-179.5 67.5
q-86 0 -154.5 -49t-90.5 -121l-88 32q29 97 122 162.5t211 65.5z" />
    <glyph glyph-name="florin" unicode="&#x192;" horiz-adv-x="5120" 
d="M210 327q0 144 56 274.5t150.5 225t225.5 150.5t274 56q191 0 353.5 -94.5t257 -257t94.5 -354.5q0 -144 -56 -274.5t-150.5 -225t-225 -150t-273.5 -55.5t-274 56t-225.5 150t-150.5 224.5t-56 274.5zM1332 408q15 -9 33 -9q28 0 47.5 19t19.5 47q0 37 -33 56
q-239 139 -593 139q-185 0 -331 -44q-21 -7 -34 -24.5t-13 -38.5q0 -26 18.5 -46.5t46.5 -20.5q10 0 19 3q129 39 300 39q144 0 281.5 -30t238.5 -90zM1277 181q22 0 38.5 16.5t16.5 39.5q0 32 -26 47q-105 64 -238.5 98.5t-271.5 34.5q-150 0 -282 -40q-18 -5 -28.5 -20
t-10.5 -33q0 -23 14.5 -38.5t37.5 -15.5q10 0 16 1t18 5t26 7q97 24 207 24q124 0 243 -30.5t211 -87.5q14 -8 29 -8zM1200 -6q18 0 31 13t13 32q0 24 -21 37q-179 111 -421 111q-123 0 -263 -32q-34 -9 -34 -42q0 -18 12 -31t31 -13q1 0 41 8q111 23 215 23q210 0 373 -99
q12 -7 23 -7zM4838 444h-20v-26h20q16 0 16 12q0 14 -16 14zM4851 407l22 -30h-19l-20 27h-16v-27h-15v81h35q32 0 32 -27q0 -16 -19 -24zM4833 484q-29 0 -48.5 -20t-19.5 -49t19.5 -49.5t48.5 -20.5q30 0 50 20.5t20 50.5q0 28 -20 48t-50 20zM4833 338q-32 0 -54 22.5
t-22 54.5t22 54.5t54 22.5t54.5 -22t22.5 -54t-22.5 -55t-54.5 -23zM3878 708q32 0 55.5 -22.5t23.5 -54.5q0 -33 -23.5 -56t-55.5 -23t-54.5 23t-22.5 56q0 32 22.5 54.5t54.5 22.5zM3823 492h110q7 0 7 -8v-475q0 -9 -7 -9h-110q-7 0 -7 9v475q0 8 7 8zM4294 559
q-1 0 -3.5 1t-7.5 2.5t-10 2.5q-25 6 -43 6q-55 0 -55 -65v-14h186q6 0 8 -4l127 -334l116 333q2 5 7 5h114q8 0 8 -8q0 -3 -2 -7l-188 -485q-29 -76 -66 -107.5t-98 -31.5q-58 0 -116 29q-4 2 -4 6q0 3 1 5l36 82q2 5 7 5q1 0 2 -0.5t2 -0.5q36 -18 60 -18q20 0 33 10
t26 38l-155 373h-102v-373q0 -9 -9 -9h-108q-9 0 -9 9v373h-52q-7 0 -7 8v95q0 7 7 7h52v24q0 80 39.5 121.5t115.5 41.5q52 0 90 -12q6 -2 6 -8v-92q0 -8 -8 -8zM3637 492h120q8 0 8 -8v-94q0 -8 -8 -8h-120v-225q0 -52 51 -52q30 0 54 12q12 5 13 5q8 0 8 -9v-87
q0 -6 -6 -9q-43 -25 -100 -25q-145 0 -145 148v242h-53q-7 0 -7 8v94q0 8 7 8h53v123q0 7 8 7h109q8 0 8 -7v-123zM3183 100q58 0 96.5 41t38.5 103q0 63 -39 104.5t-98 41.5t-97.5 -40.5t-38.5 -103.5q0 -62 39.5 -104t98.5 -42zM3183 502q109 0 185 -74.5t76 -181.5
q0 -108 -76.5 -182t-186.5 -74t-185 73.5t-75 180.5q0 108 76 183t186 75zM2760 246q0 63 -36 104t-92 41t-93.5 -41.5t-37.5 -103.5t37.5 -103.5t93.5 -41.5t92 40.5t36 104.5zM2657 502q92 0 160.5 -68.5t68.5 -187.5t-68.5 -187t-160.5 -68q-93 0 -153 69v-195
q0 -9 -9 -9h-108q-9 0 -9 9v619q0 8 9 8h108q9 0 9 -8v-56q62 74 153 74zM2128 382q111 -27 159.5 -72.5t48.5 -121.5q0 -89 -63.5 -143t-169.5 -54q-153 0 -268 103q-3 3 -3 5q0 4 2 6l67 80q3 3 5 3q4 0 6 -2q92 -81 194 -81q48 0 76 19.5t28 53.5q0 32 -26.5 51
t-110.5 39q-111 26 -163.5 68.5t-52.5 127.5t62.5 138.5t161.5 53.5q135 0 234 -81q3 -3 3 -6q0 -1 -2 -5l-59 -84q-2 -4 -7 -4q-3 0 -5 2q-85 64 -166 64q-43 0 -69 -18.5t-26 -49.5q0 -33 27.5 -51.5t116.5 -40.5z" />
    <glyph glyph-name="uni01B5" unicode="&#x1b5;" horiz-adv-x="641" 
d="M594 0h-547v98l187 230h-145v85h214l167 205h-413v91h532v-95l-164 -201h120v-85h-189l-192 -236h430v-92z" />
    <glyph glyph-name="uni01B6" unicode="&#x1b6;" horiz-adv-x="486" 
d="M437 0h-386v82l108 129h-99v76h163l92 109h-260v85h377v-82l-94 -112h87v-76h-151l-106 -126h269v-85z" />
    <glyph glyph-name="Aringacute" unicode="&#x1fa;" horiz-adv-x="711" 
d="M465 755q0 -51 -39 -83l268 -672h-106l-77 198h-314l-75 -198h-105l267 671q-42 34 -42 84q0 46 33 78t78 32q46 0 79 -32t33 -78zM538 1021l-137 -119h-94l101 119h130zM400 755q0 20 -14 33.5t-34 13.5q-19 0 -32.5 -13.5t-13.5 -33.5q0 -19 13 -32.5t33 -13.5t34 13.5
t14 32.5zM353 607l-121 -318h244z" />
    <glyph glyph-name="aringacute" unicode="&#x1fb;" horiz-adv-x="523" 
d="M417 925l-126 -146h-79l87 146h118zM303 636q0 20 -14 34.5t-35 14.5q-20 0 -33.5 -14.5t-13.5 -34.5t13.5 -34t33.5 -14q21 0 35 14t14 34zM367 636q0 -45 -33 -77t-79 -32q-45 0 -78 32t-33 77q0 46 33 78t78 32q46 0 79 -32t33 -78zM218 64q63 0 101 34t38 108v22
l-147 -22q-32 -5 -51 -23t-19 -49q0 -28 21.5 -49t56.5 -21zM44 129q0 62 40 99.5t106 46.5l130 19q37 5 37 36q0 38 -26 62t-78 24q-48 0 -76 -26.5t-33 -70.5l-90 21q7 69 63 112.5t134 43.5q102 0 151 -49.5t49 -126.5v-241q0 -43 6 -79h-92q-5 30 -5 65
q-20 -32 -58.5 -56t-96.5 -24q-71 0 -116 42.5t-45 101.5z" />
    <glyph glyph-name="AEacute" unicode="&#x1fc;" horiz-adv-x="1013" 
d="M729 878l-137 -119h-94l101 119h130zM306 284h222v344zM959 0h-431v196h-278l-126 -196h-126l472 709h489v-91h-333v-218h302v-92h-302v-217h333v-91z" />
    <glyph glyph-name="aeacute" unicode="&#x1fd;" horiz-adv-x="869" 
d="M591 689l-126 -146h-79l87 146h118zM466 290h263q-2 54 -36.5 88.5t-95.5 34.5q-56 0 -92 -36.5t-39 -86.5zM222 64q58 0 101 34.5t43 106.5v23l-157 -22q-70 -10 -70 -74q0 -28 22.5 -48t60.5 -20zM742 165l82 -28q-21 -66 -80 -109t-136 -43q-62 0 -114.5 27t-85.5 77
q-57 -104 -193 -104q-79 0 -125.5 42t-46.5 102q0 62 40 99.5t106 46.5l139 19q38 6 38 36q0 37 -29 62t-81 25q-49 0 -79.5 -27t-35.5 -67l-88 17q6 69 67.5 112.5t135.5 43.5q119 0 171 -80q69 80 169 80q109 0 170 -68.5t61 -183.5q0 -20 -2 -30h-362q1 -63 43 -104.5
t102 -41.5q102 0 134 97z" />
    <glyph glyph-name="Oslashacute" unicode="&#x1fe;" horiz-adv-x="808" 
d="M585 878l-137 -119h-94l101 119h130zM660 355q0 109 -57 184l-332 -429q58 -35 133 -35q106 0 181 74t75 206zM148 355q0 -115 59 -188l332 429q-61 38 -135 38q-106 0 -181 -73.5t-75 -205.5zM48 355q0 86 30.5 157t81 116.5t113.5 70.5t131 25q104 0 191 -55l72 92
l68 -52l-73 -94q98 -103 98 -260q0 -114 -52.5 -200t-132.5 -128t-171 -42q-103 0 -189 53l-68 -89l-70 51l71 92q-100 103 -100 263z" />
    <glyph glyph-name="oslashacute" unicode="&#x1ff;" horiz-adv-x="582" 
d="M457 689l-126 -146h-79l87 146h118zM291 69q63 0 106.5 45.5t43.5 126.5q0 57 -24 99l-196 -254q30 -17 70 -17zM141 241q0 -56 25 -101l196 254q-33 18 -71 18q-63 0 -106.5 -45.5t-43.5 -125.5zM291 496q67 0 125 -32l50 65l60 -48l-51 -66q62 -72 62 -174
q0 -111 -69 -183.5t-177 -72.5q-67 0 -124 31l-49 -63l-60 48l49 64q-62 72 -62 176q0 110 69.5 182.5t176.5 72.5z" />
    <glyph glyph-name="Scommaaccent" unicode="&#x218;" horiz-adv-x="594" 
d="M246 -88q0 22 17.5 37t41.5 15q26 0 45.5 -18t19.5 -55q0 -54 -34.5 -83t-79.5 -29v40q25 0 44 15t21 33q-9 -6 -21 -6q-24 0 -39 13t-15 38zM540 548l-88 -31q-7 46 -45 83.5t-105 37.5q-59 0 -98 -34t-39 -84q0 -39 23.5 -66t67.5 -37l106 -23q88 -19 136 -71.5
t48 -127.5q0 -86 -68 -148t-177 -62q-119 0 -186.5 62.5t-78.5 148.5l94 30q6 -64 50 -108t120 -44q70 0 108 32t38 81q0 40 -27 69.5t-79 40.5l-101 22q-79 17 -126 67t-47 127q0 84 68.5 147.5t165.5 63.5q109 0 167 -53t73 -123z" />
    <glyph glyph-name="scommaaccent" unicode="&#x219;" horiz-adv-x="455" 
d="M172 -88q0 23 17.5 37.5t41.5 14.5q26 0 45.5 -18t19.5 -55q0 -54 -34.5 -83t-79.5 -29v40q25 0 44 15t21 33q-6 -6 -21 -6q-24 0 -39 13t-15 38zM38 125l85 30q5 -39 34 -64.5t78 -25.5q38 0 60 18.5t22 45.5q0 48 -62 62l-82 18q-56 12 -88 48t-32 87q0 62 50.5 107
t120.5 45q46 0 82 -13.5t56 -35.5t30 -41t15 -39l-83 -31q-2 12 -7 23.5t-15.5 25.5t-30.5 22.5t-47 8.5q-35 0 -57.5 -19t-22.5 -45q0 -46 55 -58l78 -17q64 -14 98.5 -51.5t34.5 -91.5q0 -57 -46.5 -103t-129.5 -46q-89 0 -139 44.5t-57 95.5z" />
    <glyph glyph-name="uni021A" unicode="&#x21a;" horiz-adv-x="608" 
d="M241 -88q0 22 17.5 37t41.5 15q26 0 45.5 -18t19.5 -55q0 -54 -34.5 -83t-79.5 -29v40q25 0 44 15t21 33q-9 -6 -21 -6q-24 0 -39 13t-15 38zM590 618h-237v-618h-98v618h-237v91h572v-91z" />
    <glyph glyph-name="uni021B" unicode="&#x21b;" horiz-adv-x="347" 
d="M147 -88q0 23 17.5 37.5t41.5 14.5q26 0 45.5 -18t19.5 -55q0 -54 -34.5 -83t-79.5 -29v40q25 0 44 15t21 33q-6 -6 -21 -6q-24 0 -39 13t-15 38zM207 633v-152h104v-85h-104v-250q0 -34 15.5 -50t51.5 -16q21 0 37 4v-80q-24 -9 -64 -9q-62 0 -98 36t-36 101v264h-92v85
h26q37 0 55.5 20.5t18.5 53.5v78h86z" />
    <glyph glyph-name="dotlessj" unicode="&#x237;" horiz-adv-x="246" 
d="M76 -52v533h94v-537q0 -66 -36 -107.5t-97 -41.5q-35 0 -56 7v78q10 -2 30 -2q65 0 65 70z" />
    <glyph glyph-name="uni0259" unicode="&#x259;" horiz-adv-x="552" 
d="M124 317l-79 28q22 65 82 108t140 43q111 0 175 -70.5t64 -186.5q0 -111 -67 -182.5t-163 -71.5q-108 0 -172 68t-64 181q0 14 2 30h367q-2 65 -40.5 107t-101.5 42q-53 0 -90.5 -27.5t-52.5 -68.5zM406 188h-266q2 -53 38.5 -86.5t96.5 -33.5q57 0 92.5 35.5t38.5 84.5z
" />
    <glyph glyph-name="circumflex" unicode="&#x2c6;" horiz-adv-x="385" 
d="M122 545h-87l104 139h107l104 -139h-88l-70 81z" />
    <glyph glyph-name="caron" unicode="&#x2c7;" horiz-adv-x="385" 
d="M35 687h87l70 -81l70 81h88l-102 -142h-111z" />
    <glyph glyph-name="uni02C9" unicode="&#x2c9;" horiz-adv-x="343" 
d="M308 577h-273v81h273v-81z" />
    <glyph glyph-name="breve" unicode="&#x2d8;" horiz-adv-x="362" 
d="M181 545q-67 0 -106 42.5t-40 99.5h73q2 -27 20 -46t53 -19t53 19.5t20 45.5h73q-1 -58 -39 -100t-107 -42z" />
    <glyph glyph-name="dotaccent" unicode="&#x2d9;" horiz-adv-x="174" 
d="M25 616q0 26 18.5 44t43.5 18t43.5 -18t18.5 -44t-18.5 -44t-43.5 -18t-43.5 18t-18.5 44z" />
    <glyph glyph-name="ring" unicode="&#x2da;" horiz-adv-x="293" 
d="M194 641q0 20 -14 34.5t-35 14.5q-20 0 -33.5 -14.5t-13.5 -34.5t13.5 -34t33.5 -14q21 0 35 14t14 34zM258 641q0 -45 -33 -77t-79 -32q-45 0 -78 32t-33 77q0 46 33 78t78 32q46 0 79 -32t33 -78z" />
    <glyph glyph-name="ogonek" unicode="&#x2db;" horiz-adv-x="233" 
d="M33 -115q0 86 102 131l63 -16q-85 -40 -85 -97q0 -24 15.5 -35.5t37.5 -11.5q16 0 32 4v-68q-21 -8 -50 -8q-48 0 -81.5 27.5t-33.5 73.5z" />
    <glyph glyph-name="tilde" unicode="&#x2dc;" horiz-adv-x="377" 
d="M346 677v-15q0 -53 -27 -81t-70 -28q-31 0 -66 22l-14 9q-23 14 -37 14q-29 0 -29 -43h-72v15q0 53 27.5 81t70.5 28q32 0 67 -22l14 -9q23 -14 36 -14q29 0 29 43h71z" />
    <glyph glyph-name="hungarumlaut" unicode="&#x2dd;" horiz-adv-x="367" 
d="M332 689l-100 -146h-66l61 146h105zM191 689l-90 -146h-66l51 146h105z" />
    <glyph glyph-name="uni0394" unicode="&#x394;" horiz-adv-x="698" 
d="M347 597l-190 -507h383zM18 0l278 709h105l279 -709h-662z" />
    <glyph glyph-name="uni03A9" unicode="&#x3a9;" horiz-adv-x="818" 
d="M409 636q-100 0 -176.5 -66.5t-76.5 -181.5q0 -101 63.5 -169.5t146.5 -86.5v-132h-305v88h202q-84 31 -145.5 111t-61.5 188q0 153 104 245t249 92t249 -92t104 -245q0 -108 -61.5 -188.5t-146.5 -110.5h203v-88h-305v132q83 18 146.5 86.5t63.5 169.5
q0 115 -76.5 181.5t-176.5 66.5z" />
    <glyph glyph-name="uni03BC" unicode="&#x3bc;" horiz-adv-x="564" 
d="M398 58q-19 -36 -58 -54.5t-84 -18.5q-46 0 -86 20v-195h-94v671h94v-289q0 -54 26.5 -89t82.5 -35t85 33.5t29 89.5v290h94v-392q0 -57 5 -89h-90q-4 22 -4 58z" />
    <glyph glyph-name="pi" unicode="&#x3c0;" horiz-adv-x="597" 
d="M551 5q-29 -12 -61 -12q-58 0 -88 34.5t-30 84.5v287h-165v-399h-94v399h-82v82h518v-82h-83v-277q0 -49 54 -49q18 0 31 4v-72z" />
    <glyph glyph-name="Wgrave" unicode="&#x1e80;" horiz-adv-x="1020" 
d="M465 759l-138 119h129l102 -119h-93zM742 148l153 561h101l-202 -709h-101l-185 575l-183 -575h-98l-205 709h101l156 -555l178 555h103z" />
    <glyph glyph-name="wgrave" unicode="&#x1e81;" horiz-adv-x="816" 
d="M371 543l-126 146h118l86 -146h-78zM362 481h97l125 -362l106 362h99l-156 -481h-97l-128 366l-125 -366h-99l-158 481h103l108 -362z" />
    <glyph glyph-name="Wacute" unicode="&#x1e82;" horiz-adv-x="1020" 
d="M693 878l-137 -119h-94l101 119h130zM742 148l153 561h101l-202 -709h-101l-185 575l-183 -575h-98l-205 709h101l156 -555l178 555h103z" />
    <glyph glyph-name="wacute" unicode="&#x1e83;" horiz-adv-x="816" 
d="M574 689l-126 -146h-79l87 146h118zM362 481h97l125 -362l106 362h99l-156 -481h-97l-128 366l-125 -366h-99l-158 481h103l108 -362z" />
    <glyph glyph-name="Wdieresis" unicode="&#x1e84;" horiz-adv-x="1020" 
d="M742 148l153 561h101l-202 -709h-101l-185 575l-183 -575h-98l-205 709h101l156 -555l178 555h103zM596 819q0 25 17 42t42 17t42 -17t17 -42t-17 -42t-42 -17t-42 17t-17 42zM305 819q0 25 17 42t42 17t42 -17t17 -42t-17 -42t-42 -17t-42 17t-17 42z" />
    <glyph glyph-name="wdieresis" unicode="&#x1e85;" horiz-adv-x="816" 
d="M362 481h97l125 -362l106 362h99l-156 -481h-97l-128 366l-125 -366h-99l-158 481h103l108 -362zM463 621q0 24 16.5 41t41.5 17q24 0 41 -17t17 -41q0 -25 -17 -41.5t-41 -16.5q-25 0 -41.5 16.5t-16.5 41.5zM236 621q0 24 16.5 41t40.5 17q25 0 42 -17t17 -41
q0 -25 -17 -41.5t-42 -16.5q-24 0 -40.5 16.5t-16.5 41.5z" />
    <glyph glyph-name="uni1E8A" unicode="&#x1e8a;" horiz-adv-x="625" 
d="M250 818q0 26 18.5 45t44.5 19t45 -19t19 -45t-19 -44.5t-45 -18.5q-25 0 -44 18.5t-19 44.5zM611 709l-241 -354l238 -355h-117l-179 277l-183 -277h-115l242 355l-240 354h118l179 -278l182 278h116z" />
    <glyph glyph-name="uni1E8B" unicode="&#x1e8b;" horiz-adv-x="507" 
d="M192 616q0 26 18 44t44 18t44 -18t18 -44t-18 -44t-44 -18t-44 18t-18 44zM18 0l179 245l-173 236h114l118 -169l116 169h111l-171 -236q15 -19 89 -122.5t88 -122.5h-113l-124 177l-122 -177h-112z" />
    <glyph glyph-name="Ygrave" unicode="&#x1ef2;" horiz-adv-x="642" 
d="M287 759l-138 119h129l102 -119h-93zM272 303l-250 406h118l184 -316l184 316h112l-250 -406v-303h-98v303z" />
    <glyph glyph-name="ygrave" unicode="&#x1ef3;" horiz-adv-x="538" 
d="M252 543l-126 146h118l86 -146h-78zM210 -201h-103l120 254l-207 428h108l150 -332l144 332h101z" />
    <glyph glyph-name="uni2007" unicode="&#x2007;" horiz-adv-x="620" 
 />
    <glyph glyph-name="uni2008" unicode="&#x2008;" horiz-adv-x="251" 
 />
    <glyph glyph-name="uni200B" unicode="&#x200b;" horiz-adv-x="0" 
 />
    <glyph glyph-name="endash" unicode="&#x2013;" horiz-adv-x="648" 
d="M580 246h-512v82h512v-82z" />
    <glyph glyph-name="emdash" unicode="&#x2014;" horiz-adv-x="1089" 
d="M1021 246h-953v82h953v-82z" />
    <glyph glyph-name="quoteleft" unicode="&#x2018;" horiz-adv-x="239" 
d="M186 515q0 -25 -18.5 -42.5t-46.5 -17.5q-31 0 -52 22t-21 63q0 81 41.5 125.5t91.5 49.5v-47q-32 -7 -53 -36t-22 -61q8 5 20 5q26 0 43 -16.5t17 -44.5z" />
    <glyph glyph-name="quoteright" unicode="&#x2019;" horiz-adv-x="245" 
d="M59 656q0 25 19.5 43.5t48.5 18.5q32 0 54 -23t22 -65q0 -84 -42.5 -130t-95.5 -52v48q33 7 54.5 36.5t22.5 64.5q-7 -5 -20 -5q-27 0 -45 17.5t-18 46.5z" />
    <glyph glyph-name="quotesinglbase" unicode="&#x201a;" horiz-adv-x="260" 
d="M58 61q0 25 19.5 43.5t48.5 18.5q32 0 54 -23t22 -65q0 -84 -42.5 -130t-95.5 -52v48q33 7 54.5 36.5t22.5 64.5q-7 -5 -20 -5q-27 0 -45 17.5t-18 46.5z" />
    <glyph glyph-name="quotedblleft" unicode="&#x201c;" horiz-adv-x="409" 
d="M186 520q0 -25 -18.5 -42.5t-46.5 -17.5q-31 0 -52 22t-21 63q0 81 41.5 125.5t91.5 49.5v-47q-32 -7 -53 -36t-22 -61q8 5 20 5q26 0 43 -16.5t17 -44.5zM357 520q0 -25 -18.5 -42.5t-46.5 -17.5q-31 0 -52 22t-21 63q0 81 41.5 125.5t91.5 49.5v-47q-32 -7 -53 -36
t-22 -61q8 5 20 5q26 0 43 -16.5t17 -44.5z" />
    <glyph glyph-name="quotedblright" unicode="&#x201d;" horiz-adv-x="411" 
d="M231 655q0 25 18.5 42.5t46.5 17.5q31 0 52 -22t21 -63q0 -80 -41 -124t-92 -51v47q32 7 53 35.5t22 61.5q-7 -5 -20 -5q-26 0 -43 16.5t-17 44.5zM60 655q0 25 18.5 42.5t46.5 17.5q31 0 52 -22t21 -63q0 -80 -41 -124t-92 -51v47q32 7 53 35.5t22 61.5q-7 -5 -20 -5
q-26 0 -43 16.5t-17 44.5z" />
    <glyph glyph-name="quotedblbase" unicode="&#x201e;" horiz-adv-x="424" 
d="M229 58q0 25 18.5 42.5t46.5 17.5q31 0 52 -22t21 -63q0 -80 -41 -124t-92 -51v47q32 7 53 35.5t22 61.5q-7 -5 -20 -5q-26 0 -43 16.5t-17 44.5zM58 58q0 25 18.5 42.5t46.5 17.5q31 0 52 -22t21 -63q0 -80 -41 -124t-92 -51v47q32 7 53 35.5t22 61.5q-8 -5 -20 -5
q-26 0 -43 16.5t-17 44.5z" />
    <glyph glyph-name="dagger" unicode="&#x2020;" horiz-adv-x="414" 
d="M248 162h-82v317h-127v81h127v149h82v-149h127v-81h-127v-317z" />
    <glyph glyph-name="daggerdbl" unicode="&#x2021;" horiz-adv-x="1831" 
d="M210 327q0 144 56 274.5t150.5 225t225.5 150.5t274 56q191 0 353.5 -94.5t257 -257t94.5 -354.5q0 -144 -56 -274.5t-150.5 -225t-225 -150t-273.5 -55.5t-274 56t-225.5 150t-150.5 224.5t-56 274.5zM1332 408q15 -9 33 -9q28 0 47.5 19t19.5 47q0 37 -33 56
q-239 139 -593 139q-185 0 -331 -44q-21 -7 -34 -24.5t-13 -38.5q0 -26 18.5 -46.5t46.5 -20.5q10 0 19 3q129 39 300 39q144 0 281.5 -30t238.5 -90zM1277 181q22 0 38.5 16.5t16.5 39.5q0 32 -26 47q-105 64 -238.5 98.5t-271.5 34.5q-150 0 -282 -40q-18 -5 -28.5 -20
t-10.5 -33q0 -23 14.5 -38.5t37.5 -15.5q10 0 16 1t18 5t26 7q97 24 207 24q124 0 243 -30.5t211 -87.5q14 -8 29 -8zM1200 -6q18 0 31 13t13 32q0 24 -21 37q-179 111 -421 111q-123 0 -263 -32q-34 -9 -34 -42q0 -18 12 -31t31 -13q1 0 41 8q111 23 215 23q210 0 373 -99
q12 -7 23 -7z" />
    <glyph glyph-name="bullet" unicode="&#x2022;" horiz-adv-x="558" 
d="M72 289q0 86 60.5 147t146.5 61t146.5 -61t60.5 -147q0 -85 -61 -146t-146 -61t-146 61t-61 146z" />
    <glyph glyph-name="ellipsis" unicode="&#x2026;" horiz-adv-x="866" 
d="M186 59q0 -27 -18.5 -45.5t-45.5 -18.5t-46 18.5t-19 45.5t19 46t46 19t45.5 -19t18.5 -46zM497 59q0 -27 -18.5 -45.5t-45.5 -18.5t-46 18.5t-19 45.5t19 46t46 19t45.5 -19t18.5 -46zM809 59q0 -27 -18.5 -45.5t-45.5 -18.5t-46 18.5t-19 45.5t19 46t46 19t45.5 -19
t18.5 -46z" />
    <glyph glyph-name="perthousand" unicode="&#x2030;" horiz-adv-x="1069" 
d="M551 149q0 -34 22 -56.5t55 -22.5t55 22.5t22 56.5t-22 56t-55 22q-32 0 -54.5 -22.5t-22.5 -55.5zM799 149q0 -34 22 -56.5t55 -22.5t55 22.5t22 56.5t-22 56t-55 22q-32 0 -54.5 -22.5t-22.5 -55.5zM876 -9q-76 0 -124 58q-48 -58 -124 -58q-65 0 -112.5 46t-47.5 112
q0 65 47.5 111t112.5 46q76 0 124 -58q48 58 124 58q65 0 113 -46t48 -111q0 -66 -48 -112t-113 -46zM117 561q0 -34 22 -56.5t55 -22.5t55 22.5t22 56.5t-22 56t-55 22q-32 0 -54.5 -22.5t-22.5 -55.5zM224 0h-92l466 709h91zM194 403q-65 0 -112.5 46t-47.5 112
q0 65 47.5 111t112.5 46t113 -46t48 -111q0 -66 -48 -112t-113 -46z" />
    <glyph glyph-name="guilsinglleft" unicode="&#x2039;" horiz-adv-x="317" 
d="M268 99h-93l-133 191l133 191h93l-131 -191z" />
    <glyph glyph-name="guilsinglright" unicode="&#x203a;" horiz-adv-x="317" 
d="M142 99h-93l131 191l-131 191h93l133 -191z" />
    <glyph glyph-name="uni2042" unicode="&#x2042;" horiz-adv-x="831" 
d="M667 312v-121l111 38l20 -65l-111 -36l74 -95l-55 -41l-75 98l-70 -97l-55 41l71 94l-112 36l21 65l110 -38v121h71zM235 312v-121l111 38l20 -65l-111 -36l74 -95l-55 -41l-75 98l-70 -97l-55 41l71 94l-112 36l21 65l110 -38v121h71zM451 709v-121l111 38l20 -65
l-111 -36l74 -95l-55 -41l-75 98l-70 -97l-55 41l71 94l-112 36l21 65l110 -38v121h71z" />
    <glyph glyph-name="fraction" unicode="&#x2044;" horiz-adv-x="149" 
d="M-115 0h-84l466 709h83z" />
    <glyph glyph-name="uni2051" unicode="&#x2051;" horiz-adv-x="444" 
d="M257 312v-121l111 38l20 -65l-111 -36l74 -95l-55 -41l-75 98l-70 -97l-55 41l71 94l-112 36l21 65l110 -38v121h71zM257 709v-121l111 38l20 -65l-111 -36l74 -95l-55 -41l-75 98l-70 -97l-55 41l71 94l-112 36l21 65l110 -38v121h71z" />
    <glyph glyph-name="uni2070" unicode="&#x2070;" horiz-adv-x="382" 
d="M38 526q0 84 35 132q41 58 118 58t118 -58q35 -48 35 -132q0 -83 -35 -131q-41 -58 -118 -58t-118 58q-35 48 -35 131zM116 526q0 -123 75 -123t75 123q0 124 -75 124t-75 -124z" />
    <glyph glyph-name="uni2074" unicode="&#x2074;" horiz-adv-x="383" 
d="M213 481v139l-111 -139h111zM28 416v73l177 220h85v-228h64v-65h-64v-72h-77v72h-185z" />
    <glyph glyph-name="uni2075" unicode="&#x2075;" horiz-adv-x="347" 
d="M29 429l66 30q7 -26 26.5 -41.5t46.5 -15.5q30 0 48.5 16t18.5 45q0 30 -18.5 46t-48.5 16q-37 0 -64 -27l-64 24l49 187h204v-66h-154l-23 -86q25 28 73 28q56 0 90 -32.5t34 -86.5q0 -55 -39 -92t-106 -37q-52 0 -90.5 27.5t-48.5 64.5z" />
    <glyph glyph-name="uni2076" unicode="&#x2076;" horiz-adv-x="368" 
d="M120 465q0 -29 20.5 -46t48.5 -17q27 0 47.5 17t20.5 46t-20.5 46t-47.5 17q-28 0 -48.5 -17t-20.5 -46zM317 698l-18 -57q-29 13 -62 13q-49 0 -82 -27t-41 -78q13 19 38 31t53 12q59 0 94.5 -33.5t35.5 -92.5q0 -57 -42 -93t-105 -36q-61 0 -106 43t-45 124
q0 96 54.5 154.5t139.5 58.5q54 0 86 -19z" />
    <glyph glyph-name="uni2077" unicode="&#x2077;" horiz-adv-x="343" 
d="M322 709v-69q-19 -13 -37.5 -31.5t-45 -53.5t-46 -90t-25.5 -121h-82q5 55 21 106.5t35 85t37 59t31 37.5l12 11h-197v66h297z" />
    <glyph glyph-name="uni2078" unicode="&#x2078;" horiz-adv-x="364" 
d="M182 337q-68 0 -106.5 30.5t-38.5 77.5q0 27 18 50.5t50 35.5q-26 11 -41 33t-15 47q0 46 37.5 75.5t95.5 29.5t95.5 -29.5t37.5 -75.5q0 -25 -15 -47t-41 -33q32 -12 50 -35.5t18 -50.5q0 -47 -38.5 -77.5t-106.5 -30.5zM182 401q32 0 49.5 13.5t17.5 36.5
q0 22 -17.5 36t-49.5 14t-49.5 -14t-17.5 -36q0 -23 17.5 -36.5t49.5 -13.5zM182 561q26 0 41.5 13t15.5 35q0 20 -15.5 32.5t-41.5 12.5t-41.5 -12.5t-15.5 -32.5q0 -22 15.5 -35t41.5 -13z" />
    <glyph glyph-name="uni2079" unicode="&#x2079;" horiz-adv-x="367" 
d="M246 588q0 29 -20 46.5t-49 17.5q-28 0 -48 -17t-20 -47t20 -47t48 -17q29 0 49 17.5t20 46.5zM51 356l18 59q29 -13 62 -13q51 0 84 25.5t39 77.5q-13 -19 -38 -31t-53 -12q-57 0 -93.5 34t-36.5 92q0 56 42 92.5t105 36.5q61 0 105 -43t44 -124q0 -101 -53 -157
t-139 -56q-54 0 -86 19z" />
    <glyph glyph-name="uni2080" unicode="&#x2080;" horiz-adv-x="386" 
d="M40 110q0 84 35 132q41 58 118 58t118 -58q35 -48 35 -132q0 -83 -35 -131q-41 -58 -118 -58t-118 58q-35 48 -35 131zM118 110q0 -123 75 -123t75 123q0 124 -75 124t-75 -124z" />
    <glyph glyph-name="uni2081" unicode="&#x2081;" horiz-adv-x="241" 
d="M189 -72h-77v245h-86v52q36 1 61.5 20.5t30.5 47.5h71v-365z" />
    <glyph glyph-name="uni2082" unicode="&#x2082;" horiz-adv-x="352" 
d="M121 152h-74q-3 15 -3 31q0 49 36 83t96 34q59 0 95 -33.5t36 -81.5q0 -66 -70 -110l-72 -45q-27 -18 -31 -37h175v-65h-268v13q0 93 85 145l60 37q43 26 43 63q0 21 -14.5 35.5t-39.5 14.5q-26 0 -41.5 -16t-15.5 -42q0 -12 3 -26z" />
    <glyph glyph-name="uni2083" unicode="&#x2083;" horiz-adv-x="365" 
d="M150 94l-29 56l95 79h-171v65h271v-63l-100 -80q46 -4 77 -32.5t31 -76.5q0 -51 -40.5 -86t-104.5 -35q-61 0 -99 30t-48 73l67 27q5 -29 26.5 -46.5t52.5 -17.5q30 0 49 15.5t19 39.5q0 29 -20 42.5t-48 13.5q-14 0 -28 -4z" />
    <glyph glyph-name="uni2084" unicode="&#x2084;" horiz-adv-x="385" 
d="M214 65v139l-111 -139h111zM29 0v73l177 220h85v-228h64v-65h-64v-72h-77v72h-185z" />
    <glyph glyph-name="uni2085" unicode="&#x2085;" horiz-adv-x="349" 
d="M30 13l66 30q7 -26 26.5 -41.5t46.5 -15.5q30 0 48.5 16t18.5 45q0 30 -18.5 46t-48.5 16q-37 0 -64 -27l-64 24l49 187h204v-66h-154l-23 -86q25 28 73 28q56 0 90 -32.5t34 -86.5q0 -55 -39 -92t-106 -37q-52 0 -90.5 27.5t-48.5 64.5z" />
    <glyph glyph-name="uni2086" unicode="&#x2086;" horiz-adv-x="370" 
d="M121 49q0 -29 20.5 -46t48.5 -17q27 0 47.5 17t20.5 46t-20.5 46t-47.5 17q-28 0 -48.5 -17t-20.5 -46zM318 282l-18 -57q-29 13 -62 13q-49 0 -82 -27t-41 -78q13 19 38 31t53 12q59 0 94.5 -33.5t35.5 -92.5q0 -57 -42 -93t-105 -36q-61 0 -106 43t-45 124
q0 96 54.5 154.5t139.5 58.5q54 0 86 -19z" />
    <glyph glyph-name="uni2087" unicode="&#x2087;" horiz-adv-x="344" 
d="M323 293v-69q-19 -13 -37.5 -31.5t-45 -53.5t-46 -90t-25.5 -121h-82q5 55 21 106.5t35 85t37 59t30 37.5l13 11h-197v66h297z" />
    <glyph glyph-name="uni2088" unicode="&#x2088;" horiz-adv-x="366" 
d="M183 -79q-68 0 -106.5 30.5t-38.5 77.5q0 27 18 50.5t50 35.5q-26 11 -41 33t-15 47q0 46 37.5 75.5t95.5 29.5t95.5 -29.5t37.5 -75.5q0 -25 -15 -47t-41 -33q32 -12 50 -35.5t18 -50.5q0 -47 -38.5 -77.5t-106.5 -30.5zM183 -15q32 0 49.5 13.5t17.5 36.5
q0 22 -17.5 36t-49.5 14t-49.5 -14t-17.5 -36q0 -23 17.5 -36.5t49.5 -13.5zM183 145q26 0 41.5 13t15.5 35q0 20 -15.5 32.5t-41.5 12.5t-41.5 -12.5t-15.5 -32.5q0 -22 15.5 -35t41.5 -13z" />
    <glyph glyph-name="uni2089" unicode="&#x2089;" horiz-adv-x="369" 
d="M247 172q0 29 -20 46.5t-49 17.5q-28 0 -48 -17t-20 -47t20 -47t48 -17q29 0 49 17.5t20 46.5zM52 -60l18 59q29 -13 62 -13q51 0 84 25.5t39 77.5q-13 -19 -38 -31t-53 -12q-57 0 -93.5 34t-36.5 92q0 56 42 92.5t105 36.5q61 0 105 -43t44 -124q0 -101 -53 -157
t-139 -56q-54 0 -86 19z" />
    <glyph glyph-name="Euro" unicode="&#x20ac;" horiz-adv-x="735" 
d="M532 388h-307q-2 -24 -2 -34q0 -16 2 -38h274l-34 -75h-222q24 -81 92.5 -123.5t150.5 -42.5q105 0 168 58l46 -72q-86 -75 -213 -75q-125 0 -219.5 67t-125.5 188h-98v75h84q-2 16 -2 39q0 18 1 33h-83v75h97q30 122 129 190.5t223 68.5q111 0 182 -50l-37 -76
q-56 39 -144 39q-87 0 -157 -43.5t-96 -128.5h324z" />
    <glyph glyph-name="uni2113" unicode="&#x2113;" horiz-adv-x="403" 
d="M198 568v-167q90 74 90 180q0 62 -42 62q-48 0 -48 -75zM356 97v-77q-38 -25 -96 -25q-67 0 -107 38t-40 105v127q-42 -17 -70 -23v82q25 7 70 27v213q0 74 37 116t94 42q62 0 95.5 -38.5t33.5 -105.5q0 -83 -47.5 -155t-127.5 -122v-141q0 -41 21 -62.5t55 -21.5
q45 0 82 21z" />
    <glyph glyph-name="trademark" unicode="&#x2122;" horiz-adv-x="879" 
d="M804 344h-72v233l-101 -233h-59l-98 230v-230h-76v365h99l107 -254l107 254h93v-365zM335 641h-112v-297h-76v297h-112v68h300v-68z" />
    <glyph glyph-name="Omega" unicode="&#x2126;" horiz-adv-x="822" 
d="M411 636q-100 0 -176.5 -66.5t-76.5 -181.5q0 -101 63.5 -169.5t146.5 -86.5v-132h-305v88h202q-84 31 -145.5 111t-61.5 188q0 153 104 245t249 92t249 -92t104 -245q0 -108 -61.5 -188.5t-146.5 -110.5h203v-88h-305v132q83 18 146.5 86.5t63.5 169.5
q0 115 -76.5 181.5t-176.5 66.5z" />
    <glyph glyph-name="uni2160" unicode="&#x2160;" horiz-adv-x="478" 
d="M437 709v-88h-150v-533h150v-88h-396v88h150v533h-150v88h396z" />
    <glyph glyph-name="uni2161" unicode="&#x2161;" horiz-adv-x="759" 
d="M470 88v533h-181v-533h181zM718 88v-88h-677v88h152v533h-152v88h677v-88h-152v-533h152z" />
    <glyph glyph-name="uni2162" unicode="&#x2162;" horiz-adv-x="1029" 
d="M289 621v-533h178v533h-178zM741 88v533h-178v-533h178zM988 88v-88h-947v88h152v533h-152v88h947v-88h-151v-533h151z" />
    <glyph glyph-name="uni2163" unicode="&#x2163;" horiz-adv-x="1017" 
d="M766 621h-286l143 -507zM715 88h261v-88h-935v88h149v533h-149v88h935v-88h-107zM286 621v-533h245l-153 533h-92z" />
    <glyph glyph-name="uni2164" unicode="&#x2164;" horiz-adv-x="780" 
d="M534 621h-286l143 -507zM738 0h-697v88h258l-154 533h-104v88h698v-88h-103l-154 -533h256v-88z" />
    <glyph glyph-name="uni2165" unicode="&#x2165;" horiz-adv-x="1014" 
d="M537 621h-286l143 -507zM41 88h261l-153 533h-108v88h932v-88h-141v-533h141v-88h-932v88zM736 88v533h-96l-154 -533h250z" />
    <glyph glyph-name="uni2166" unicode="&#x2166;" horiz-adv-x="1298" 
d="M1009 88v533h-177v-533h177zM1256 0h-1215v88h261l-153 533h-108v88h1216v-88h-152v-533h151v-88zM537 621h-286l143 -507zM736 88v533h-96l-154 -533h250z" />
    <glyph glyph-name="uni2167" unicode="&#x2167;" horiz-adv-x="1558" 
d="M1269 621h-170v-533h170v533zM1003 88v533h-172v-533h172zM1518 709v-88h-153v-533h151v-88h-1475v88h261l-153 533h-108v88h1477zM538 621h-287l144 -507zM735 88v533h-95l-154 -533h249z" />
    <glyph glyph-name="uni2168" unicode="&#x2168;" horiz-adv-x="990" 
d="M727 88l-118 185l-119 -185h237zM730 621h-240l120 -188zM376 88l175 265l-176 268h-89v-533h90zM844 621l-177 -267l175 -266h107v-88h-908v88h149v533h-149v88h907v-88h-104z" />
    <glyph glyph-name="uni2169" unicode="&#x2169;" horiz-adv-x="754" 
d="M492 88l-117 183l-117 -183h234zM255 621l121 -190l122 190h-243zM140 621h-99v88h672v-88h-101l-179 -269l174 -264h106v-88h-672v88h104l173 262z" />
    <glyph glyph-name="uni216C" unicode="&#x216c;" horiz-adv-x="633" 
d="M594 285v-285h-553v88h132v533h-132v88h370v-88h-142v-533h233v197h92z" />
    <glyph glyph-name="uni216D" unicode="&#x216d;" horiz-adv-x="770" 
d="M392 -13q-146 0 -245 100t-99 267q0 166 99.5 267t242.5 101q145 0 216 -108v95h94v-247h-94q-15 76 -67.5 126t-145.5 50q-104 0 -178 -75t-74 -209q0 -131 73 -206t181 -75q94 0 147.5 52.5t67.5 125.5h94v-251h-94v97q-68 -110 -218 -110z" />
    <glyph glyph-name="uni216E" unicode="&#x216e;" horiz-adv-x="754" 
d="M274 88h89q108 0 176 65.5t68 200.5t-67.5 201t-176.5 66h-89v-533zM41 709h328q148 0 242 -93t94 -262t-94.5 -261.5t-243.5 -92.5h-326v88h138v533h-138v88z" />
    <glyph glyph-name="uni216F" unicode="&#x216f;" horiz-adv-x="1045" 
d="M304 709l217 -567l213 567h268v-88h-126v-533h129v-88h-326v88h102v480l-217 -568h-87l-217 566v-478h103v-88h-321v88h125v533h-125v88h262z" />
    <glyph glyph-name="arrowleft" unicode="&#x2190;" horiz-adv-x="1039" 
d="M289 76l-252 211l252 212v-171h696v-83h-696v-169z" />
    <glyph glyph-name="arrowup" unicode="&#x2191;" horiz-adv-x="455" 
d="M228 800l199 -245h-158v-703h-83v703h-158z" />
    <glyph glyph-name="arrowright" unicode="&#x2192;" horiz-adv-x="1039" 
d="M1002 287l-252 -211v169h-696v83h696v171z" />
    <glyph glyph-name="arrowdown" unicode="&#x2193;" horiz-adv-x="477" 
d="M450 90l-212 -252l-211 252h169v696h83v-696h171z" />
    <glyph glyph-name="uni2196" unicode="&#x2196;" horiz-adv-x="801" 
d="M56 709h292l-116 -117l543 -542l-59 -58l-543 541l-117 -118v294z" />
    <glyph glyph-name="uni2197" unicode="&#x2197;" horiz-adv-x="801" 
d="M453 709h292v-294l-118 118l-542 -541l-59 58l543 542z" />
    <glyph glyph-name="uni2198" unicode="&#x2198;" horiz-adv-x="801" 
d="M746 0h-292l116 117l-543 542l59 58l542 -542l118 119v-294z" />
    <glyph glyph-name="uni2199" unicode="&#x2199;" horiz-adv-x="801" 
d="M347 0h-292v294l117 -119l543 542l59 -58l-543 -542z" />
    <glyph glyph-name="uni21A9" unicode="&#x21a9;" horiz-adv-x="884" 
d="M430 580v83h192q90 0 153.5 -60.5t63.5 -148.5q0 -91 -65.5 -150t-155.5 -59h-367v-144l-221 185l221 186v-144h362q59 0 101.5 34t42.5 92t-42 92t-105 34h-180z" />
    <glyph glyph-name="uni21B0" unicode="&#x21b0;" horiz-adv-x="742" 
d="M248 353l-221 185l221 186v-144h414v-580h-83v497h-331v-144z" />
    <glyph glyph-name="uni21B1" unicode="&#x21b1;" horiz-adv-x="792" 
d="M163 0h-83v580h464v144l221 -186l-221 -185v144h-381v-497z" />
    <glyph glyph-name="uni21B2" unicode="&#x21b2;" horiz-adv-x="794" 
d="M631 709h83v-580h-464v-144l-221 186l221 185v-144h381v497z" />
    <glyph glyph-name="uni21B3" unicode="&#x21b3;" horiz-adv-x="794" 
d="M544 356l221 -185l-221 -186v144h-464v580h83v-497h381v144z" />
    <glyph glyph-name="uni21B4" unicode="&#x21b4;" horiz-adv-x="786" 
d="M32 626v83h580v-504h144l-186 -221l-185 221h144v421h-497z" />
    <glyph glyph-name="uni21B5" unicode="&#x21b5;" horiz-adv-x="1060" 
d="M896 354q-1 -154 -109 -261.5t-260 -107.5q-97 0 -182 47l37 74q68 -38 144 -38q120 0 203 83.5t83 202.5h-138l179 210l179 -210h-136zM206 145l-179 210h131q1 153 109 261t260 108q97 0 182 -47l-37 -74q-68 38 -144 38q-120 0 -203 -83.5t-83 -202.5h143z" />
    <glyph glyph-name="uni21C6" unicode="&#x21c6;" horiz-adv-x="1082" 
d="M1039 170l-221 -185v144h-755v83h755v144zM264 354l-221 185l221 186v-144h755v-83h-755v-144z" />
    <glyph glyph-name="partialdiff" unicode="&#x2202;" horiz-adv-x="614" 
d="M305 369q-78 0 -121 -44t-43 -110t44.5 -104.5t105.5 -38.5q86 0 129 67t43 157q-26 35 -68 54t-90 19zM246 638q-76 0 -140 -31l-32 74q74 43 180 43q40 0 78.5 -9t81 -34.5t74 -65.5t52.5 -109t21 -158q0 -170 -71 -266.5t-204 -96.5q-99 0 -170 62t-71 174
q0 104 71.5 167.5t174.5 63.5q116 0 171 -57q-20 243 -216 243z" />
    <glyph glyph-name="Delta" unicode="&#x2206;" horiz-adv-x="718" 
d="M357 597l-190 -507h383zM28 0l278 709h105l279 -709h-662z" />
    <glyph glyph-name="product" unicode="&#x220f;" horiz-adv-x="659" 
d="M583 0h-95v622h-314v-622h-98v709h507v-709z" />
    <glyph glyph-name="summation" unicode="&#x2211;" horiz-adv-x="600" 
d="M49 0v86l273 271l-273 266v86h497v-90h-365l269 -262l-278 -267h374v-90h-497z" />
    <glyph glyph-name="minus" unicode="&#x2212;" horiz-adv-x="561" 
d="M492 309h-423v79h423v-79z" />
    <glyph glyph-name="uni2215" unicode="&#x2215;" horiz-adv-x="397" 
d="M395 648l-313 -648h-91l313 648h91z" />
    <glyph glyph-name="uni2219" unicode="&#x2219;" horiz-adv-x="267" 
d="M64 284q0 29 20 49.5t49 20.5t49.5 -20.5t20.5 -49.5t-20.5 -49t-49.5 -20t-49 20t-20 49z" />
    <glyph glyph-name="radical" unicode="&#x221a;" horiz-adv-x="689" 
d="M680 780h-119l-266 -780h-91l-189 529h108l127 -374l235 713h195v-88z" />
    <glyph glyph-name="infinity" unicode="&#x221e;" horiz-adv-x="807" 
d="M583 261q42 0 67.5 25t25.5 64t-25.5 64.5t-67.5 25.5q-24 0 -47.5 -13t-39 -28.5t-42.5 -47.5q37 -45 66 -67.5t63 -22.5zM224 440q-42 0 -67.5 -25.5t-25.5 -64.5t25.5 -64t67.5 -25q58 0 129 87q-26 32 -42 48.5t-39.5 30t-47.5 13.5zM402 289q-48 -54 -90.5 -80
t-89.5 -26q-75 0 -124.5 48t-49.5 120t49.5 120.5t124.5 48.5q97 0 183 -107q90 107 180 107q75 0 124.5 -48.5t49.5 -120.5t-49.5 -120t-124.5 -48q-99 0 -183 106z" />
    <glyph glyph-name="integral" unicode="&#x222b;" horiz-adv-x="349" 
d="M128 -23v574q0 74 42.5 116t116.5 42h37v-86h-30q-34 0 -53 -20t-19 -59v-575q0 -74 -41 -116.5t-114 -42.5h-43v86h31q33 0 53 21t20 60z" />
    <glyph glyph-name="approxequal" unicode="&#x2248;" horiz-adv-x="626" 
d="M513 296l51 -45q-58 -83 -146 -83q-48 0 -100 30l-47 26q-32 17 -62 17q-52 0 -91 -45l-53 47q59 85 143 85q46 0 103 -31l46 -25q35 -20 70 -20q49 0 86 44zM513 490l51 -45q-58 -83 -146 -83q-48 0 -100 30l-47 26q-32 17 -62 17q-52 0 -91 -45l-53 47q59 85 143 85
q46 0 103 -31l46 -25q35 -20 70 -20q49 0 86 44z" />
    <glyph glyph-name="notequal" unicode="&#x2260;" horiz-adv-x="610" 
d="M537 212h-282l-74 -100h-96l74 100h-85v79h143l85 116h-228v77h285l73 99h96l-73 -99h82v-77h-139l-85 -116h224v-79z" />
    <glyph glyph-name="lessequal" unicode="&#x2264;" horiz-adv-x="568" 
d="M73 365v85l412 146v-84l-307 -104l307 -104v-84zM73 191h412v-79h-412v79z" />
    <glyph glyph-name="greaterequal" unicode="&#x2265;" horiz-adv-x="568" 
d="M495 450v-85l-412 -145v84l307 104l-307 104v84zM83 191h412v-79h-412v79z" />
    <glyph glyph-name="dotmath" unicode="&#x22c5;" horiz-adv-x="267" 
d="M64 284q0 29 20 49.5t49 20.5t49.5 -20.5t20.5 -49.5t-20.5 -49t-49.5 -20t-49 20t-20 49z" />
    <glyph glyph-name="uni24C5" unicode="&#x24c5;" horiz-adv-x="823" 
d="M447 301h-83v-144h-76v402h159q58 0 97 -37.5t39 -91.5t-39 -91.5t-97 -37.5zM364 367h70q33 0 52.5 17t19.5 45q0 29 -19 46.5t-53 17.5h-70v-126zM46 355q0 153 106.5 261t257.5 108q152 0 259.5 -108.5t107.5 -260.5q0 -153 -107.5 -261.5t-259.5 -108.5
q-151 0 -257.5 108.5t-106.5 261.5zM124 355q0 -126 83 -211.5t203 -85.5t203 85.5t83 211.5t-83 211t-203 85t-203 -85t-83 -211z" />
    <glyph glyph-name="filledbox" unicode="&#x25a0;" horiz-adv-x="847" 
d="M73 0v709h701v-709h-701z" />
    <glyph glyph-name="H22073" unicode="&#x25a1;" horiz-adv-x="847" 
d="M155 633v-558h537v558h-537zM774 0h-701v709h701v-709z" />
    <glyph glyph-name="uni25AF" unicode="&#x25af;" horiz-adv-x="548" 
d="M152 79h244v551h-244v-551zM73 0v709h402v-709h-402z" />
    <glyph glyph-name="triagup" unicode="&#x25b2;" horiz-adv-x="885" 
d="M444 724l417 -724h-837z" />
    <glyph glyph-name="uni25B3" unicode="&#x25b3;" horiz-adv-x="885" 
d="M720 75l-277 486l-279 -486h556zM444 724l417 -724h-837z" />
    <glyph glyph-name="lozenge" unicode="&#x25ca;" horiz-adv-x="548" 
d="M31 354l202 355h82l202 -355l-202 -354h-82zM133 354l141 -242l140 242l-140 243z" />
    <glyph glyph-name="circle" unicode="&#x25cb;" horiz-adv-x="835" 
d="M131 354q0 -122 83 -206.5t203 -84.5t203 84.5t83 206.5t-83 206.5t-203 84.5t-203 -84.5t-83 -206.5zM47 354q0 154 108 262.5t262 108.5t262.5 -108.5t108.5 -262.5t-108.5 -262t-262.5 -108t-262 108t-108 262z" />
    <glyph glyph-name="H18533" unicode="&#x25cf;" horiz-adv-x="835" 
d="M47 354q0 154 108 262.5t262 108.5t262.5 -108.5t108.5 -262.5t-108.5 -262t-262.5 -108t-262 108t-108 262z" />
    <glyph glyph-name="uni262E" unicode="&#x262e;" horiz-adv-x="824" 
d="M214 137q64 -64 155 -76v231zM451 61q89 12 155 75l-155 156v-231zM125 355q0 -83 39 -152l205 205v240q-106 -15 -175 -97t-69 -196zM697 355q0 114 -70 196t-176 97v-240l206 -207q40 72 40 154zM778 355q0 -153 -107.5 -261.5t-259.5 -108.5q-151 0 -257.5 108.5
t-106.5 261.5t106.5 261t257.5 108q152 0 259.5 -108.5t107.5 -260.5z" />
    <glyph glyph-name="uni2713" unicode="&#x2713;" horiz-adv-x="971" 
d="M948 670l-638 -687l-282 315l60 57l226 -247l574 621z" />
    <glyph glyph-name="uni2715" unicode="&#x2715;" horiz-adv-x="774" 
d="M681 -5l-294 300l-294 -300l-59 59l294 301l-293 300l60 59l292 -299l292 299l60 -59l-294 -300l295 -301z" />
    <glyph glyph-name="uni2780" unicode="&#x2780;" horiz-adv-x="824" 
d="M464 173h-77v245h-86v52q36 1 61.5 20.5t30.5 47.5h71v-365zM47 355q0 153 106.5 261t257.5 108q152 0 259.5 -108.5t107.5 -260.5q0 -153 -107.5 -261.5t-259.5 -108.5q-151 0 -257.5 108.5t-106.5 261.5zM125 355q0 -126 83 -211.5t203 -85.5t203 85.5t83 211.5
t-83 211t-203 85t-203 -85t-83 -211z" />
    <glyph glyph-name="uni2781" unicode="&#x2781;" horiz-adv-x="824" 
d="M352 402h-74q-3 15 -3 31q0 49 36 83t96 34q59 0 95 -33.5t36 -81.5q0 -66 -70 -110l-72 -45q-27 -18 -31 -37h175v-65h-268v13q0 93 85 145l60 37q43 26 43 63q0 21 -14.5 35.5t-39.5 14.5q-26 0 -41.5 -16t-15.5 -42q0 -12 3 -26zM47 355q0 153 106.5 261t257.5 108
q152 0 259.5 -108.5t107.5 -260.5q0 -153 -107.5 -261.5t-259.5 -108.5q-151 0 -257.5 108.5t-106.5 261.5zM125 355q0 -126 83 -211.5t203 -85.5t203 85.5t83 211.5t-83 211t-203 85t-203 -85t-83 -211z" />
    <glyph glyph-name="uni2782" unicode="&#x2782;" horiz-adv-x="824" 
d="M376 337l-29 56l95 79h-171v65h271v-63l-100 -80q46 -4 77 -32.5t31 -76.5q0 -51 -40.5 -86t-104.5 -35q-61 0 -99 30t-48 73l67 27q5 -29 26.5 -46.5t52.5 -17.5q30 0 49 15.5t19 39.5q0 29 -20 42.5t-48 13.5q-14 0 -28 -4zM125 355q0 -126 83 -211.5t203 -85.5
t203 85.5t83 211.5t-83 211t-203 85t-203 -85t-83 -211zM47 355q0 153 106.5 261t257.5 108q152 0 259.5 -108.5t107.5 -260.5q0 -153 -107.5 -261.5t-259.5 -108.5q-151 0 -257.5 108.5t-106.5 261.5z" />
    <glyph glyph-name="uni2783" unicode="&#x2783;" horiz-adv-x="824" 
d="M422 315v139l-111 -139h111zM237 250v73l177 220h85v-228h64v-65h-64v-72h-77v72h-185zM47 355q0 153 106.5 261t257.5 108q152 0 259.5 -108.5t107.5 -260.5q0 -153 -107.5 -261.5t-259.5 -108.5q-151 0 -257.5 108.5t-106.5 261.5zM125 355q0 -126 83 -211.5t203 -85.5
t203 85.5t83 211.5t-83 211t-203 85t-203 -85t-83 -211z" />
    <glyph glyph-name="uni2784" unicode="&#x2784;" horiz-adv-x="824" 
d="M259 255l66 30q7 -26 26.5 -41.5t46.5 -15.5q30 0 48.5 16t18.5 45q0 30 -18.5 46t-48.5 16q-37 0 -64 -27l-64 24l49 187h204v-66h-154l-23 -86q25 28 73 28q56 0 90 -32.5t34 -86.5q0 -55 -39 -92t-106 -37q-52 0 -90.5 27.5t-48.5 64.5zM47 355q0 153 106.5 261
t257.5 108q152 0 259.5 -108.5t107.5 -260.5q0 -153 -107.5 -261.5t-259.5 -108.5q-151 0 -257.5 108.5t-106.5 261.5zM125 355q0 -126 83 -211.5t203 -85.5t203 85.5t83 211.5t-83 211t-203 85t-203 -85t-83 -211z" />
    <glyph glyph-name="uni2785" unicode="&#x2785;" horiz-adv-x="824" 
d="M333 294q0 -29 20.5 -46t48.5 -17q27 0 47.5 17t20.5 46t-20.5 46t-47.5 17q-28 0 -48.5 -17t-20.5 -46zM530 527l-18 -57q-29 13 -62 13q-49 0 -82 -27t-41 -78q13 19 38 31t53 12q59 0 94.5 -33.5t35.5 -92.5q0 -57 -42 -93t-105 -36q-61 0 -106 43t-45 124
q0 96 54.5 154.5t139.5 58.5q54 0 86 -19zM47 355q0 153 106.5 261t257.5 108q152 0 259.5 -108.5t107.5 -260.5q0 -153 -107.5 -261.5t-259.5 -108.5q-151 0 -257.5 108.5t-106.5 261.5zM125 355q0 -126 83 -211.5t203 -85.5t203 85.5t83 211.5t-83 211t-203 85t-203 -85
t-83 -211z" />
    <glyph glyph-name="uni2786" unicode="&#x2786;" horiz-adv-x="824" 
d="M561 533v-69q-19 -13 -37.5 -31.5t-45 -53.5t-46 -90t-25.5 -121h-82q5 55 21 106.5t35 85t37 59t30 37.5l13 11h-197v66h297zM47 355q0 153 106.5 261t257.5 108q152 0 259.5 -108.5t107.5 -260.5q0 -153 -107.5 -261.5t-259.5 -108.5q-151 0 -257.5 108.5t-106.5 261.5
zM125 355q0 -126 83 -211.5t203 -85.5t203 85.5t83 211.5t-83 211t-203 85t-203 -85t-83 -211z" />
    <glyph glyph-name="uni2787" unicode="&#x2787;" horiz-adv-x="824" 
d="M410 166q-68 0 -106.5 30.5t-38.5 77.5q0 27 18 50.5t50 35.5q-26 11 -41 33t-15 47q0 46 37.5 75.5t95.5 29.5t95.5 -29.5t37.5 -75.5q0 -25 -15 -47t-41 -33q32 -12 50 -35.5t18 -50.5q0 -47 -38.5 -77.5t-106.5 -30.5zM410 230q32 0 49.5 13.5t17.5 36.5
q0 22 -17.5 36t-49.5 14t-49.5 -14t-17.5 -36q0 -23 17.5 -36.5t49.5 -13.5zM410 390q26 0 41.5 13t15.5 35q0 20 -15.5 32.5t-41.5 12.5t-41.5 -12.5t-15.5 -32.5q0 -22 15.5 -35t41.5 -13zM47 355q0 153 106.5 261t257.5 108q152 0 259.5 -108.5t107.5 -260.5
q0 -153 -107.5 -261.5t-259.5 -108.5q-151 0 -257.5 108.5t-106.5 261.5zM125 355q0 -126 83 -211.5t203 -85.5t203 85.5t83 211.5t-83 211t-203 85t-203 -85t-83 -211z" />
    <glyph glyph-name="uni2788" unicode="&#x2788;" horiz-adv-x="824" 
d="M478 415q0 29 -20 46.5t-49 17.5q-28 0 -48 -17t-20 -47t20 -47t48 -17q29 0 49 17.5t20 46.5zM283 183l18 59q29 -13 62 -13q51 0 84 25.5t39 77.5q-13 -19 -38 -31t-53 -12q-57 0 -93.5 34t-36.5 92q0 56 42 92.5t105 36.5q61 0 105 -43t44 -124q0 -101 -53 -157
t-139 -56q-54 0 -86 19zM47 355q0 153 106.5 261t257.5 108q152 0 259.5 -108.5t107.5 -260.5q0 -153 -107.5 -261.5t-259.5 -108.5q-151 0 -257.5 108.5t-106.5 261.5zM125 355q0 -126 83 -211.5t203 -85.5t203 85.5t83 211.5t-83 211t-203 85t-203 -85t-83 -211z" />
    <glyph glyph-name="uniE000" unicode="&#xe000;" horiz-adv-x="786" 
d="M216 -16l-186 221h144v504h580v-83h-497v-421h144z" />
    <glyph glyph-name="uniE002" unicode="&#xe002;" horiz-adv-x="956" 
d="M570 354l179 210l179 -210h-130q0 -153 -108 -261t-262 -108q-153 0 -261 108t-108 261q0 154 108 262t261 108q97 0 182 -47l-37 -74q-68 38 -144 38q-120 0 -203 -83.5t-83 -203.5t83 -204t203 -84t202.5 84t82.5 204h-144z" />
    <glyph glyph-name="commaaccent" unicode="&#xf6c3;" horiz-adv-x="194" 
d="M35 659q0 23 17.5 37.5t41.5 14.5q26 0 45.5 -18t19.5 -55q0 -54 -34.5 -83t-79.5 -29v40q25 0 44 15t21 33q-6 -6 -21 -6q-24 0 -39 13t-15 38z" />
    <glyph glyph-name="uniFB00" unicode="&#xfb00;" horiz-adv-x="665" 
d="M603 639q-31 0 -53.5 -18.5t-22.5 -63.5v-76h116v-85h-116v-396h-97v396h-219v-396h-97v396h-89v85h89v81q0 77 45 121t113 44q43 0 56 -10v-84q-15 6 -41 6q-31 0 -53.5 -18.5t-22.5 -63.5v-76h219v81q0 77 45 121t113 44q43 0 56 -10v-84q-15 6 -41 6z" />
    <glyph glyph-name="fi" unicode="&#xfb01;" horiz-adv-x="605" 
d="M415 665q0 28 19.5 48t47.5 20t48 -19.5t20 -48.5q0 -28 -20 -47.5t-48 -19.5t-47.5 19.5t-19.5 47.5zM272 727q43 0 56 -10v-84q-15 6 -41 6q-31 0 -53.5 -18t-22.5 -63v-77h318v-481h-93v396h-225v-396h-97v396h-89v85h89v81q0 77 45 121t113 44z" />
    <glyph glyph-name="fl" unicode="&#xfb02;" horiz-adv-x="603" 
d="M287 639q-31 0 -53.5 -18.5t-22.5 -63.5v-76h222v243h94v-724h-94v396h-222v-396h-97v396h-89v85h89v81q0 77 45 121t113 44q43 0 56 -10v-84q-15 6 -41 6z" />
    <glyph glyph-name="uniFB03" unicode="&#xfb03;" horiz-adv-x="921" 
d="M731 665q0 28 19.5 48t47.5 20t48 -19.5t20 -48.5q0 -28 -20 -47.5t-48 -19.5t-47.5 19.5t-19.5 47.5zM114 481v81q0 77 45 121t113 44q43 0 56 -10v-84q-15 6 -41 6q-31 0 -53.5 -18.5t-22.5 -63.5v-76h219v81q0 77 45 121t113 44q43 0 56 -10v-84q-15 6 -41 6
q-31 0 -53.5 -18.5t-22.5 -63.5v-76h318v-481h-93v396h-225v-396h-97v396h-219v-396h-97v396h-89v85h89z" />
    <glyph glyph-name="uniFB04" unicode="&#xfb04;" horiz-adv-x="921" 
d="M114 481v81q0 77 45 121t113 44q43 0 56 -10v-84q-15 6 -41 6q-31 0 -53.5 -18.5t-22.5 -63.5v-76h219v81q0 77 45 121t113 44q43 0 56 -10v-84q-15 6 -41 6q-31 0 -53.5 -18.5t-22.5 -63.5v-76h225v243h93v-724h-93v396h-225v-396h-97v396h-219v-396h-97v396h-89v85h89z
" />
    <glyph glyph-name="uniFEFF" unicode="&#xfeff;" horiz-adv-x="0" 
 />
    <glyph glyph-name="i.latn_TRK" horiz-adv-x="245" 
d="M55 663q0 28 19.5 48t47.5 20t48 -19.5t20 -48.5q0 -28 -20 -47.5t-48 -19.5t-47.5 19.5t-19.5 47.5zM169 0h-93v481h93v-481z" />
    <glyph glyph-name="Ldot.latn_CAT" horiz-adv-x="553" 
d="M528 0h-433v709h98v-617h335v-92zM295 372q0 26 18.5 45t44.5 19t45 -19t19 -45t-19 -44.5t-45 -18.5t-44.5 18.5t-18.5 44.5z" />
    <glyph glyph-name="ldot.latn_CAT" horiz-adv-x="347" 
d="M229 312q0 26 18.5 44t43.5 18t43.5 -18t18.5 -44t-18.5 -44t-43.5 -18t-43.5 18t-18.5 44zM170 0h-94v724h94v-724z" />
    <glyph glyph-name="zero.dnom" horiz-adv-x="386" 
d="M40 182q0 84 35 132q41 58 118 58t118 -58q35 -48 35 -132q0 -83 -35 -131q-41 -58 -118 -58t-118 58q-35 48 -35 131zM118 182q0 -123 75 -123t75 123q0 124 -75 124t-75 -124z" />
    <glyph glyph-name="one.dnom" horiz-adv-x="241" 
d="M190 0h-77v245h-86v52q36 1 61.5 20.5t30.5 47.5h71v-365z" />
    <glyph glyph-name="two.dnom" horiz-adv-x="348" 
d="M119 224h-74q-3 15 -3 31q0 49 36 83t96 34q59 0 95 -33.5t36 -81.5q0 -66 -70 -110l-72 -45q-27 -18 -31 -37h175v-65h-268v13q0 93 85 145l60 37q43 26 43 63q0 21 -14.5 35.5t-39.5 14.5q-26 0 -41.5 -16t-15.5 -42q0 -12 3 -26z" />
    <glyph glyph-name="three.dnom" horiz-adv-x="365" 
d="M150 166l-29 56l95 79h-171v65h271v-63l-100 -80q46 -4 77 -32.5t31 -76.5q0 -51 -40.5 -86t-104.5 -35q-61 0 -99 30t-48 73l67 27q5 -29 26.5 -46.5t52.5 -17.5q30 0 49 15.5t19 39.5q0 29 -20 42.5t-48 13.5q-14 0 -28 -4z" />
    <glyph glyph-name="four.dnom" horiz-adv-x="384" 
d="M213 137v139l-111 -139h111zM28 72v73l177 220h85v-228h64v-65h-64v-72h-77v72h-185z" />
    <glyph glyph-name="five.dnom" horiz-adv-x="349" 
d="M30 85l66 30q7 -26 26.5 -41.5t46.5 -15.5q30 0 48.5 16t18.5 45q0 30 -18.5 46t-48.5 16q-37 0 -64 -27l-64 24l49 187h204v-66h-154l-23 -86q25 28 73 28q56 0 90 -32.5t34 -86.5q0 -55 -39 -92t-106 -37q-52 0 -90.5 27.5t-48.5 64.5z" />
    <glyph glyph-name="six.dnom" horiz-adv-x="370" 
d="M121 121q0 -29 20.5 -46t48.5 -17q27 0 47.5 17t20.5 46t-20.5 46t-47.5 17q-28 0 -48.5 -17t-20.5 -46zM318 354l-18 -57q-29 13 -62 13q-49 0 -82 -27t-41 -78q13 19 38 31t53 12q59 0 94.5 -33.5t35.5 -92.5q0 -57 -42 -93t-105 -36q-61 0 -106 43t-45 124
q0 96 54.5 154.5t139.5 58.5q54 0 86 -19z" />
    <glyph glyph-name="seven.dnom" horiz-adv-x="345" 
d="M323 365v-69q-19 -13 -37.5 -31.5t-45 -53.5t-46 -90t-25.5 -121h-82q5 55 21 106.5t35 85t37 59t30 37.5l13 11h-197v66h297z" />
    <glyph glyph-name="eight.dnom" horiz-adv-x="366" 
d="M183 -7q-68 0 -106.5 30.5t-38.5 77.5q0 27 18 50.5t50 35.5q-26 11 -41 33t-15 47q0 46 37.5 75.5t95.5 29.5t95.5 -29.5t37.5 -75.5q0 -25 -15 -47t-41 -33q32 -12 50 -35.5t18 -50.5q0 -47 -38.5 -77.5t-106.5 -30.5zM183 57q32 0 49.5 13.5t17.5 36.5q0 22 -17.5 36
t-49.5 14t-49.5 -14t-17.5 -36q0 -23 17.5 -36.5t49.5 -13.5zM183 217q26 0 41.5 13t15.5 35q0 20 -15.5 32.5t-41.5 12.5t-41.5 -12.5t-15.5 -32.5q0 -22 15.5 -35t41.5 -13z" />
    <glyph glyph-name="nine.dnom" horiz-adv-x="368" 
d="M246 244q0 29 -20 46.5t-49 17.5q-28 0 -48 -17t-20 -47t20 -47t48 -17q29 0 49 17.5t20 46.5zM51 12l18 59q29 -13 62 -13q51 0 84 25.5t39 77.5q-13 -19 -38 -31t-53 -12q-57 0 -93.5 34t-36.5 92q0 56 42 92.5t105 36.5q61 0 105 -43t44 -124q0 -101 -53 -157
t-139 -56q-54 0 -86 19z" />
    <glyph glyph-name="space.frac" horiz-adv-x="50" 
 />
    <glyph glyph-name="space.tf" 
 />
    <glyph glyph-name="comma.tf" 
d="M198 74q0 31 24.5 54t59.5 23q40 0 67 -29t27 -81q0 -103 -53 -159.5t-118 -64.5v60q42 9 68.5 45t27.5 79q-12 -6 -25 -6q-33 0 -55.5 21.5t-22.5 57.5z" />
    <glyph glyph-name="period.tf" 
d="M206 74q0 33 23 56.5t57 23.5t57 -23.5t23 -56.5q0 -34 -23 -57t-57 -23t-57 23t-23 57z" />
    <glyph glyph-name="colon.tf" 
d="M210 65q0 32 22 54.5t54 22.5t54.5 -22.5t22.5 -54.5t-22.5 -54t-54.5 -22t-54 22t-22 54zM210 412q0 32 22 54.5t54 22.5t54.5 -22.5t22.5 -54.5t-22.5 -54t-54.5 -22t-54 22t-22 54z" />
    <glyph glyph-name="semicolon.tf" 
d="M206 70q0 29 22.5 50t55.5 21q36 0 60.5 -26.5t24.5 -74.5q0 -95 -48.5 -147t-107.5 -60v56q37 8 61.5 41t26.5 73q-10 -5 -24 -5q-30 0 -50.5 19.5t-20.5 52.5zM208 412q0 32 22 54.5t54 22.5t54.5 -22.5t22.5 -54.5t-22.5 -54t-54.5 -22t-54 22t-22 54z" />
    <glyph glyph-name="section.tf" 
d="M328 316l-99 54q-18 -8 -32.5 -30.5t-14.5 -48.5q0 -29 14.5 -49t48.5 -38l99 -54q18 8 32.5 30.5t14.5 48.5q0 53 -63 87zM482 244q0 -42 -26 -76t-57 -47q41 -26 64 -64.5t23 -79.5q0 -80 -59.5 -130.5t-143.5 -50.5q-92 0 -142 50t-52 133l88 18q0 -56 27.5 -89.5
t80.5 -33.5q48 0 76.5 24.5t28.5 68.5q0 56 -58 86l-103 54q-67 35 -102 71t-35 96q0 43 26 77.5t58 46.5q-42 26 -65 64.5t-23 80.5q0 80 59.5 130.5t142.5 50.5q92 0 143.5 -52t51.5 -131l-89 -18q0 57 -27.5 89.5t-80.5 32.5q-47 0 -76 -25.5t-29 -67.5q0 -54 59 -85
l102 -54q67 -36 102.5 -72.5t35.5 -96.5z" />
    <glyph glyph-name="florin.tf" 
d="M155 20l75 378h-110v83h127l23 113q14 72 60 108.5t105 36.5q42 0 74 -10v-83q-24 7 -53 7q-34 0 -59.5 -18t-36.5 -74l-16 -80h129v-83h-146l-82 -411q-14 -72 -60 -108.5t-105 -36.5q-45 0 -77 10v83q24 -7 56 -7q78 0 96 92z" />
    <glyph glyph-name="uni2007.tf" 
 />
    <glyph glyph-name="uni2008.tf" 
 />
    <glyph glyph-name="parenleft.case" horiz-adv-x="322" 
d="M50 352q0 255 187 442l55 -49q-80 -88 -120.5 -181.5t-40.5 -211.5t40.5 -211.5t120.5 -181.5l-55 -49q-187 187 -187 442z" />
    <glyph glyph-name="parenright.case" horiz-adv-x="322" 
d="M272 352q0 -255 -187 -442l-55 49q80 88 120.5 181.5t40.5 211.5t-40.5 211.5t-120.5 181.5l55 49q187 -187 187 -442z" />
    <glyph glyph-name="hyphen.case" horiz-adv-x="411" 
d="M341 296h-271v82h271v-82z" />
    <glyph glyph-name="bracketleft.case" horiz-adv-x="310" 
d="M269 -90h-193v890h193v-76h-111v-739h111v-75z" />
    <glyph glyph-name="bracketright.case" horiz-adv-x="310" 
d="M234 -90h-193v75h111v739h-111v76h193v-890z" />
    <glyph glyph-name="braceleft.case" horiz-adv-x="367" 
d="M24 311v86q48 0 79 24.5t31 76.5v116q0 186 180 186h13v-75h-13q-54 0 -76 -24.5t-22 -80.5v-143q0 -50 -27.5 -82t-76.5 -41q49 -9 76.5 -41t27.5 -82v-141q0 -56 22 -80.5t76 -24.5h13v-75h-13q-180 0 -180 186v114q0 52 -31 76.5t-79 24.5z" />
    <glyph glyph-name="braceright.case" horiz-adv-x="367" 
d="M343 397v-86q-48 0 -79 -24.5t-31 -76.5v-114q0 -186 -180 -186h-13v75h13q54 0 76 24.5t22 80.5v141q0 50 27.5 82t76.5 41q-49 9 -76.5 41t-27.5 82v143q0 56 -22 80.5t-76 24.5h-13v75h13q180 0 180 -186v-116q0 -52 31 -76.5t79 -24.5z" />
    <glyph glyph-name="exclamdown.case" horiz-adv-x="261" 
d="M65 647q0 27 19 46.5t46 19.5t46.5 -19.5t19.5 -46.5t-19.5 -46t-46.5 -19t-46 19t-19 46zM164 505l25 -505h-118l26 505h67z" />
    <glyph glyph-name="guillemotleft.case" horiz-adv-x="526" 
d="M470 149h-93l-133 191l133 191h93l-131 -191zM275 149h-93l-133 191l133 191h93l-131 -191z" />
    <glyph glyph-name="uni00AD.case" horiz-adv-x="423" 
d="M347 313h-271v82h271v-82z" />
    <glyph glyph-name="guillemotright.case" horiz-adv-x="526" 
d="M149 149h-93l131 191l-131 191h93l133 -191zM344 149h-93l131 191l-131 191h93l133 -191z" />
    <glyph glyph-name="questiondown.case" horiz-adv-x="510" 
d="M335 650q0 -27 -19 -46.5t-46 -19.5t-46.5 19.5t-19.5 46.5t19.5 46t46.5 19t46 -19t19 -46zM226 508h88q1 -12 1 -35q0 -100 -83 -156l-44 -30q-53 -36 -53 -98q0 -48 31 -81t88 -33q61 0 93 38t32 90q0 30 -7 49l97 -12q6 -21 6 -48q0 -49 -22 -94t-74 -78t-125 -33
q-100 0 -159.5 60t-59.5 141q0 105 102 174l46 31q44 30 44 96q0 12 -1 19z" />
    <glyph glyph-name="endash.case" horiz-adv-x="652" 
d="M582 296h-512v82h512v-82z" />
    <glyph glyph-name="emdash.case" horiz-adv-x="1093" 
d="M1023 296h-953v82h953v-82z" />
    <glyph glyph-name="guilsinglleft.case" horiz-adv-x="331" 
d="M275 149h-93l-133 191l133 191h93l-131 -191z" />
    <glyph glyph-name="guilsinglright.case" horiz-adv-x="331" 
d="M149 149h-93l131 191l-131 191h93l133 -191z" />
    <glyph glyph-name="G.ss01" horiz-adv-x="773" 
d="M404 -15q-91 0 -171 42t-132.5 128t-52.5 200q0 86 30.5 157t81 116.5t113.5 70.5t131 25q118 0 203 -61t112 -164l-91 -31q-22 81 -80 123.5t-144 42.5q-107 0 -181.5 -72.5t-74.5 -206.5t75 -207.5t181 -73.5q95 0 155.5 50.5t70.5 126.5h-286v88h385q1 -8 1 -25
q0 -142 -85.5 -235.5t-240.5 -93.5z" />
    <glyph glyph-name="Gcircumflex.ss01" horiz-adv-x="773" 
d="M321 759h-91l112 119h120l117 -119h-92l-85 64zM404 -15q-91 0 -171 42t-132.5 128t-52.5 200q0 86 30.5 157t81 116.5t113.5 70.5t131 25q118 0 203 -61t112 -164l-91 -31q-22 81 -80 123.5t-144 42.5q-107 0 -181.5 -72.5t-74.5 -206.5t75 -207.5t181 -73.5
q95 0 155.5 50.5t70.5 126.5h-286v88h385q1 -8 1 -25q0 -142 -85.5 -235.5t-240.5 -93.5z" />
    <glyph glyph-name="Gbreve.ss01" horiz-adv-x="773" 
d="M400 754q-71 0 -112.5 38.5t-44.5 90.5h81q2 -21 20.5 -38.5t55.5 -17.5t55 17.5t20 38.5h81q-3 -53 -44 -91t-112 -38zM404 -15q-91 0 -171 42t-132.5 128t-52.5 200q0 86 30.5 157t81 116.5t113.5 70.5t131 25q118 0 203 -61t112 -164l-91 -31q-22 81 -80 123.5
t-144 42.5q-107 0 -181.5 -72.5t-74.5 -206.5t75 -207.5t181 -73.5q95 0 155.5 50.5t70.5 126.5h-286v88h385q1 -8 1 -25q0 -142 -85.5 -235.5t-240.5 -93.5z" />
    <glyph glyph-name="Gdotaccent.ss01" horiz-adv-x="773" 
d="M336 818q0 26 18.5 45t44.5 19t45 -19t19 -45t-19 -44.5t-45 -18.5q-25 0 -44 18.5t-19 44.5zM404 -15q-91 0 -171 42t-132.5 128t-52.5 200q0 86 30.5 157t81 116.5t113.5 70.5t131 25q118 0 203 -61t112 -164l-91 -31q-22 81 -80 123.5t-144 42.5q-107 0 -181.5 -72.5
t-74.5 -206.5t75 -207.5t181 -73.5q95 0 155.5 50.5t70.5 126.5h-286v88h385q1 -8 1 -25q0 -142 -85.5 -235.5t-240.5 -93.5z" />
    <glyph glyph-name="Gcommaaccent.ss01" horiz-adv-x="773" 
d="M348 -88q0 23 17.5 37.5t41.5 14.5q26 0 45.5 -18t19.5 -55q0 -54 -34.5 -83t-79.5 -29v40q25 0 44 15t21 33q-6 -6 -21 -6q-24 0 -39 13t-15 38zM404 -15q-91 0 -171 42t-132.5 128t-52.5 200q0 86 30.5 157t81 116.5t113.5 70.5t131 25q118 0 203 -61t112 -164l-91 -31
q-22 81 -80 123.5t-144 42.5q-107 0 -181.5 -72.5t-74.5 -206.5t75 -207.5t181 -73.5q95 0 155.5 50.5t70.5 126.5h-286v88h385q1 -8 1 -25q0 -142 -85.5 -235.5t-240.5 -93.5z" />
    <glyph glyph-name="a.ss02" horiz-adv-x="589" 
d="M421 65v8q-19 -37 -57.5 -61.5t-91.5 -24.5q-103 0 -165.5 73.5t-62.5 183.5q0 104 64 177t164 73q59 0 96 -23.5t51 -57.5v68h93v-392q0 -44 5 -89h-91q-5 28 -5 65zM140 244q0 -76 37.5 -125t103.5 -49q63 0 101 49t38 125q0 75 -37 121t-101 46t-103 -46t-39 -121z
" />
    <glyph glyph-name="agrave.ss02" horiz-adv-x="589" 
d="M242 543l-126 146h118l86 -146h-78zM421 65v8q-19 -37 -57.5 -61.5t-91.5 -24.5q-103 0 -165.5 73.5t-62.5 183.5q0 104 64 177t164 73q59 0 96 -23.5t51 -57.5v68h93v-392q0 -44 5 -89h-91q-5 28 -5 65zM140 244q0 -76 37.5 -125t103.5 -49q63 0 101 49t38 125
q0 75 -37 121t-101 46t-103 -46t-39 -121z" />
    <glyph glyph-name="aacute.ss02" horiz-adv-x="589" 
d="M422 689l-126 -146h-79l87 146h118zM421 65v8q-19 -37 -57.5 -61.5t-91.5 -24.5q-103 0 -165.5 73.5t-62.5 183.5q0 104 64 177t164 73q59 0 96 -23.5t51 -57.5v68h93v-392q0 -44 5 -89h-91q-5 28 -5 65zM140 244q0 -76 37.5 -125t103.5 -49q63 0 101 49t38 125
q0 75 -37 121t-101 46t-103 -46t-39 -121z" />
    <glyph glyph-name="acircumflex.ss02" horiz-adv-x="589" 
d="M218 545h-87l104 139h107l104 -139h-88l-70 81zM421 65v8q-19 -37 -57.5 -61.5t-91.5 -24.5q-103 0 -165.5 73.5t-62.5 183.5q0 104 64 177t164 73q59 0 96 -23.5t51 -57.5v68h93v-392q0 -44 5 -89h-91q-5 28 -5 65zM140 244q0 -76 37.5 -125t103.5 -49q63 0 101 49
t38 125q0 75 -37 121t-101 46t-103 -46t-39 -121z" />
    <glyph glyph-name="atilde.ss02" horiz-adv-x="589" 
d="M440 677v-15q0 -53 -27 -81t-70 -28q-31 0 -66 22l-14 9q-23 14 -37 14q-29 0 -29 -43h-72v15q0 53 27.5 81t70.5 28q32 0 67 -22l14 -9q23 -14 36 -14q29 0 29 43h71zM421 65v8q-19 -37 -57.5 -61.5t-91.5 -24.5q-103 0 -165.5 73.5t-62.5 183.5q0 104 64 177t164 73
q59 0 96 -23.5t51 -57.5v68h93v-392q0 -44 5 -89h-91q-5 28 -5 65zM140 244q0 -76 37.5 -125t103.5 -49q63 0 101 49t38 125q0 75 -37 121t-101 46t-103 -46t-39 -121z" />
    <glyph glyph-name="adieresis.ss02" horiz-adv-x="589" 
d="M321 621q0 24 16.5 41t41.5 17q24 0 41 -17t17 -41q0 -25 -17 -41.5t-41 -16.5q-25 0 -41.5 16.5t-16.5 41.5zM134 621q0 24 16.5 41t40.5 17q25 0 42 -17t17 -41q0 -25 -17 -41.5t-42 -16.5q-24 0 -40.5 16.5t-16.5 41.5zM421 65v8q-19 -37 -57.5 -61.5t-91.5 -24.5
q-103 0 -165.5 73.5t-62.5 183.5q0 104 64 177t164 73q59 0 96 -23.5t51 -57.5v68h93v-392q0 -44 5 -89h-91q-5 28 -5 65zM140 244q0 -76 37.5 -125t103.5 -49q63 0 101 49t38 125q0 75 -37 121t-101 46t-103 -46t-39 -121z" />
    <glyph glyph-name="aring.ss02" horiz-adv-x="589" 
d="M326 641q0 20 -14 34.5t-35 14.5q-20 0 -33.5 -14.5t-13.5 -34.5t13.5 -34t33.5 -14q21 0 35 14t14 34zM390 641q0 -45 -33 -77t-79 -32q-45 0 -78 32t-33 77q0 46 33 78t78 32q46 0 79 -32t33 -78zM421 65v8q-19 -37 -57.5 -61.5t-91.5 -24.5q-103 0 -165.5 73.5
t-62.5 183.5q0 104 64 177t164 73q59 0 96 -23.5t51 -57.5v68h93v-392q0 -44 5 -89h-91q-5 28 -5 65zM140 244q0 -76 37.5 -125t103.5 -49q63 0 101 49t38 125q0 75 -37 121t-101 46t-103 -46t-39 -121z" />
    <glyph glyph-name="amacron.ss02" horiz-adv-x="589" 
d="M408 577h-273v81h273v-81zM421 65v8q-19 -37 -57.5 -61.5t-91.5 -24.5q-103 0 -165.5 73.5t-62.5 183.5q0 104 64 177t164 73q59 0 96 -23.5t51 -57.5v68h93v-392q0 -44 5 -89h-91q-5 28 -5 65zM140 244q0 -76 37.5 -125t103.5 -49q63 0 101 49t38 125q0 75 -37 121
t-101 46t-103 -46t-39 -121z" />
    <glyph glyph-name="abreve.ss02" horiz-adv-x="589" 
d="M279 545q-67 0 -106 42.5t-40 99.5h73q2 -27 20 -46t53 -19t53 19.5t20 45.5h73q-1 -58 -39 -100t-107 -42zM421 65v8q-19 -37 -57.5 -61.5t-91.5 -24.5q-103 0 -165.5 73.5t-62.5 183.5q0 104 64 177t164 73q59 0 96 -23.5t51 -57.5v68h93v-392q0 -44 5 -89h-91
q-5 28 -5 65zM140 244q0 -76 37.5 -125t103.5 -49q63 0 101 49t38 125q0 75 -37 121t-101 46t-103 -46t-39 -121z" />
    <glyph glyph-name="aogonek.ss02" horiz-adv-x="589" 
d="M140 244q0 -76 37.5 -125t103.5 -49q63 0 101 49t38 125q0 75 -37 121t-101 46t-103 -46t-39 -121zM467 -216q-48 0 -81.5 27.5t-33.5 73.5q0 72 73 115q-4 24 -4 65v8q-19 -37 -57.5 -61.5t-91.5 -24.5q-103 0 -165.5 73.5t-62.5 183.5q0 104 64 177t164 73
q59 0 96 -23.5t51 -57.5v68h93v-392q0 -41 5 -89q-85 -40 -85 -97q0 -24 15.5 -35.5t37.5 -11.5q16 0 32 4v-68q-21 -8 -50 -8z" />
    <glyph glyph-name="aringacute.ss02" horiz-adv-x="589" 
d="M321 631q0 20 -14 34.5t-35 14.5q-20 0 -33.5 -14.5t-13.5 -34.5t13.5 -34t33.5 -14q21 0 35 14t14 34zM385 631q0 -45 -33 -77t-79 -32q-45 0 -78 32t-33 77q0 46 33 78t78 32q46 0 79 -32t33 -78zM437 915l-126 -146h-79l87 146h118zM421 65v8q-19 -37 -57.5 -61.5
t-91.5 -24.5q-103 0 -165.5 73.5t-62.5 183.5q0 104 64 177t164 73q59 0 96 -23.5t51 -57.5v68h93v-392q0 -44 5 -89h-91q-5 28 -5 65zM140 244q0 -76 37.5 -125t103.5 -49q63 0 101 49t38 125q0 75 -37 121t-101 46t-103 -46t-39 -121z" />
    <glyph glyph-name="r.ss03" horiz-adv-x="329" 
d="M171 415q0 30 20.5 50.5t50.5 20.5q29 0 49.5 -20.5t20.5 -50.5q0 -29 -20.5 -49.5t-49.5 -20.5q-30 0 -50.5 20.5t-20.5 49.5zM170 481v-481h-94v481h94z" />
    <glyph glyph-name="racute.ss03" horiz-adv-x="329" 
d="M291 689l-126 -146h-79l87 146h118zM171 415q0 30 20.5 50.5t50.5 20.5q29 0 49.5 -20.5t20.5 -50.5q0 -29 -20.5 -49.5t-49.5 -20.5q-30 0 -50.5 20.5t-20.5 49.5zM170 481v-481h-94v481h94z" />
    <glyph glyph-name="rcommaaccent.ss03" horiz-adv-x="329" 
d="M62 -88q0 23 17.5 37.5t41.5 14.5q26 0 45.5 -18t19.5 -55q0 -54 -34.5 -83t-79.5 -29v40q25 0 44 15t21 33q-6 -6 -21 -6q-24 0 -39 13t-15 38zM171 415q0 30 20.5 50.5t50.5 20.5q29 0 49.5 -20.5t20.5 -50.5q0 -29 -20.5 -49.5t-49.5 -20.5q-30 0 -50.5 20.5
t-20.5 49.5zM170 481v-481h-94v481h94z" />
    <glyph glyph-name="rcaron.ss03" horiz-adv-x="329" 
d="M31 687h87l70 -81l70 81h88l-102 -142h-111zM171 415q0 30 20.5 50.5t50.5 20.5q29 0 49.5 -20.5t20.5 -50.5q0 -29 -20.5 -49.5t-49.5 -20.5q-30 0 -50.5 20.5t-20.5 49.5zM170 481v-481h-94v481h94z" />
    <glyph glyph-name="ampersand.ss04" horiz-adv-x="676" 
d="M372 243v89h275v-89h-86v-10q0 -106 -68 -177t-187 -71q-115 0 -185.5 58.5t-70.5 150.5q0 73 42.5 123.5t103.5 68.5q-50 18 -80.5 57.5t-30.5 97.5q0 77 59.5 130t148.5 53q106 0 160 -55.5t60 -137.5l-96 -17q-4 58 -35 90t-88 32q-45 0 -77 -28.5t-32 -71.5
q0 -48 34 -75.5t74 -27.5h13v-90q-60 0 -108 -34t-48 -107q0 -52 41.5 -89.5t115.5 -37.5q72 0 113.5 42.5t41.5 115.5v10h-90z" />
    <glyph glyph-name="registered.ss06" horiz-adv-x="471" 
d="M263 430l-30 65h-15v-65h-52v196h83q28 0 48 -19.5t20 -45.5q0 -37 -36 -56l36 -75h-54zM218 537h20q26 0 26 24q0 22 -26 22h-20v-46zM95 526q0 -60 40.5 -101.5t99.5 -41.5t100 41.5t41 101.5t-41 101.5t-100 41.5t-99.5 -41.5t-40.5 -101.5zM46 526q0 78 55.5 133.5
t133.5 55.5t134 -55.5t56 -133.5t-56 -133.5t-134 -55.5t-133.5 55.5t-55.5 133.5z" />
    <glyph glyph-name="zero.numr" horiz-adv-x="382" 
d="M38 526q0 84 35 132q41 58 118 58t118 -58q35 -48 35 -132q0 -83 -35 -131q-41 -58 -118 -58t-118 58q-35 48 -35 131zM116 526q0 -123 75 -123t75 123q0 124 -75 124t-75 -124z" />
    <glyph glyph-name="one.numr" horiz-adv-x="239" 
d="M189 344h-77v245h-86v52q36 1 61.5 20.5t30.5 47.5h71v-365z" />
    <glyph glyph-name="two.numr" horiz-adv-x="345" 
d="M118 568h-74q-3 15 -3 31q0 49 36 83t96 34q59 0 95 -33.5t36 -81.5q0 -66 -70 -110l-72 -45q-27 -18 -31 -37h175v-65h-268v13q0 93 85 145l60 37q43 26 43 63q0 21 -14.5 35.5t-39.5 14.5q-26 0 -41.5 -16t-15.5 -42q0 -12 3 -26z" />
    <glyph glyph-name="three.numr" horiz-adv-x="362" 
d="M149 509l-29 56l95 79h-171v65h271v-63l-100 -80q46 -4 77 -32.5t31 -76.5q0 -51 -40.5 -86t-104.5 -35q-61 0 -99 30t-48 73l67 27q5 -29 26.5 -46.5t52.5 -17.5q30 0 49 15.5t19 39.5q0 29 -20 42.5t-48 13.5q-14 0 -28 -4z" />
    <glyph glyph-name="four.numr" horiz-adv-x="383" 
d="M213 481v139l-111 -139h111zM28 416v73l177 220h85v-228h64v-65h-64v-72h-77v72h-185z" />
    <glyph glyph-name="five.numr" horiz-adv-x="347" 
d="M29 429l66 30q7 -26 26.5 -41.5t46.5 -15.5q30 0 48.5 16t18.5 45q0 30 -18.5 46t-48.5 16q-37 0 -64 -27l-64 24l49 187h204v-66h-154l-23 -86q25 28 73 28q56 0 90 -32.5t34 -86.5q0 -55 -39 -92t-106 -37q-52 0 -90.5 27.5t-48.5 64.5z" />
    <glyph glyph-name="six.numr" horiz-adv-x="368" 
d="M120 464q0 -29 20.5 -46t48.5 -17q27 0 47.5 17t20.5 46t-20.5 46t-47.5 17q-28 0 -48.5 -17t-20.5 -46zM317 697l-18 -57q-29 13 -62 13q-49 0 -82 -27t-41 -78q13 19 38 31t53 12q59 0 94.5 -33.5t35.5 -92.5q0 -57 -42 -93t-105 -36q-61 0 -106 43t-45 124
q0 96 54.5 154.5t139.5 58.5q54 0 86 -19z" />
    <glyph glyph-name="seven.numr" horiz-adv-x="343" 
d="M322 709v-69q-19 -13 -37.5 -31.5t-45 -53.5t-46 -90t-25.5 -121h-82q5 55 21 106.5t35 85t37 59t31 37.5l12 11h-197v66h297z" />
    <glyph glyph-name="eight.numr" horiz-adv-x="364" 
d="M182 337q-68 0 -106.5 30.5t-38.5 77.5q0 27 18 50.5t50 35.5q-26 11 -41 33t-15 47q0 46 37.5 75.5t95.5 29.5t95.5 -29.5t37.5 -75.5q0 -25 -15 -47t-41 -33q32 -12 50 -35.5t18 -50.5q0 -47 -38.5 -77.5t-106.5 -30.5zM182 401q32 0 49.5 13.5t17.5 36.5
q0 22 -17.5 36t-49.5 14t-49.5 -14t-17.5 -36q0 -23 17.5 -36.5t49.5 -13.5zM182 561q26 0 41.5 13t15.5 35q0 20 -15.5 32.5t-41.5 12.5t-41.5 -12.5t-15.5 -32.5q0 -22 15.5 -35t41.5 -13z" />
    <glyph glyph-name="nine.numr" horiz-adv-x="367" 
d="M246 587q0 29 -20 46.5t-49 17.5q-28 0 -48 -17t-20 -47t20 -47t48 -17q29 0 49 17.5t20 46.5zM51 355l18 59q29 -13 62 -13q51 0 84 25.5t39 77.5q-13 -19 -38 -31t-53 -12q-57 0 -93.5 34t-36.5 92q0 56 42 92.5t105 36.5q61 0 105 -43t44 -124q0 -101 -53 -157
t-139 -56q-54 0 -86 19z" />
    <glyph glyph-name="a.ordn" horiz-adv-x="382" 
d="M163 419q90 0 90 93v15l-95 -15q-47 -7 -47 -47q0 -19 14 -32.5t38 -13.5zM36 461q0 43 29 70t74 33l88 12q26 4 26 25q0 24 -17 40t-51 16q-32 0 -51 -18t-22 -47l-69 16q5 47 43.5 79t97.5 32q73 0 108 -35.5t35 -90.5v-169q0 -39 4 -55h-71q-4 16 -4 44
q-32 -54 -105 -54q-52 0 -83.5 30t-31.5 72z" />
    <glyph glyph-name="b.ordn" horiz-adv-x="434" 
d="M321 541q0 52 -25.5 81.5t-68.5 29.5q-42 0 -69 -30t-27 -81q0 -52 27 -82.5t69 -30.5t68 30.5t26 82.5zM131 370h-73v507h74v-212q12 23 41.5 38.5t67.5 15.5q74 0 115 -50t41 -128t-43 -129t-116 -51q-72 0 -107 56v-47z" />
    <glyph glyph-name="c.ordn" horiz-adv-x="395" 
d="M208 651q-40 0 -68.5 -30t-28.5 -81q0 -52 28.5 -81.5t69.5 -29.5q38 0 59.5 19.5t29.5 45.5l67 -26q-15 -44 -55 -76t-101 -32q-74 0 -123.5 51.5t-49.5 128.5q0 78 49 129t123 51q63 0 102.5 -32.5t51.5 -78.5l-67 -26q-19 68 -87 68z" />
    <glyph glyph-name="d.ordn" horiz-adv-x="431" 
d="M373 877v-445q0 -41 3 -62h-72q-4 32 -4 46q-12 -23 -39 -39t-62 -16q-73 0 -117.5 51t-44.5 129q0 74 45 125.5t116 51.5q80 0 101 -52v211h74zM113 541q0 -51 25.5 -82.5t68.5 -31.5q42 0 67.5 32t25.5 82q0 51 -25.5 80.5t-67.5 29.5t-68 -30.5t-26 -79.5z" />
    <glyph glyph-name="e.ordn" horiz-adv-x="400" 
d="M297 488l64 -21q-14 -47 -54.5 -77t-98.5 -30q-71 0 -121.5 49.5t-50.5 131.5q0 78 49 128.5t115 50.5q77 0 121 -48t44 -129q0 -6 -0.5 -11.5t-0.5 -9.5l-1 -3h-251q1 -41 28.5 -67.5t67.5 -26.5q68 0 89 63zM114 576h174q-1 34 -24 57t-63 23q-38 0 -61.5 -24
t-25.5 -56z" />
    <glyph glyph-name="f.ordn" horiz-adv-x="262" 
d="M242 642h-80v-274h-76v274h-61v67h61v50q0 56 32 88t84 32q32 0 41 -7v-65q-12 4 -29 4q-21 0 -36.5 -12.5t-15.5 -42.5v-47h80v-67z" />
    <glyph glyph-name="g.ordn" horiz-adv-x="426" 
d="M205 449q41 0 66 28t25 74q0 45 -25.5 72.5t-65.5 27.5q-41 0 -66.5 -27.5t-25.5 -72.5q0 -47 25 -74.5t67 -27.5zM36 352l71 17q4 -34 28 -55.5t60 -21.5q99 0 99 105v40q-27 -51 -101 -51q-68 0 -112 46.5t-44 118.5q0 70 43.5 117.5t112.5 47.5q77 0 102 -51v44h73
v-310q0 -74 -41.5 -123t-130.5 -49q-65 0 -109 35.5t-51 89.5z" />
    <glyph glyph-name="h.ordn" horiz-adv-x="410" 
d="M133 569v-199h-75v507h75v-203q34 45 99 45q60 0 91.5 -37.5t31.5 -96.5v-215h-75v202q0 79 -74 79q-33 0 -52.5 -23t-20.5 -59z" />
    <glyph glyph-name="i.ordn" horiz-adv-x="190" 
d="M45 832q0 21 14.5 36t35.5 15t35.5 -15t14.5 -36t-14.5 -35.5t-35.5 -14.5t-35.5 14.5t-14.5 35.5zM132 370h-74v339h74v-339z" />
    <glyph glyph-name="j.ordn" horiz-adv-x="191" 
d="M45 833q0 21 14.5 36t35.5 15t35.5 -15t14.5 -36t-14.5 -35.5t-35.5 -14.5t-35.5 14.5t-14.5 35.5zM58 339v370h75v-375q0 -48 -26.5 -77.5t-71.5 -29.5q-29 0 -44 5v62q12 -2 23 -2q44 0 44 47z" />
    <glyph glyph-name="k.ordn" horiz-adv-x="381" 
d="M370 709l-141 -143l144 -196h-93l-104 143l-44 -45v-98h-74v507h74v-310l137 142h101z" />
    <glyph glyph-name="l.ordn" horiz-adv-x="191" 
d="M133 370h-75v507h75v-507z" />
    <glyph glyph-name="m.ordn" horiz-adv-x="618" 
d="M132 370h-74v339h71v-44q15 26 43 40t59 14q76 0 101 -61q37 61 112 61q49 0 84 -33t35 -96v-220h-73v209q0 33 -17 53t-51 20q-33 0 -53.5 -22.5t-20.5 -56.5v-203h-74v209q0 73 -68 73q-33 0 -53.5 -22.5t-20.5 -57.5v-202z" />
    <glyph glyph-name="n.ordn" horiz-adv-x="410" 
d="M133 566v-196h-75v339h73v-46q33 56 102 56q59 0 90.5 -37.5t31.5 -96.5v-215h-75v202q0 79 -74 79q-34 0 -53.5 -24t-19.5 -61z" />
    <glyph glyph-name="o.ordn" horiz-adv-x="422" 
d="M211 720q76 0 125.5 -51t49.5 -129t-49.5 -129t-125.5 -51t-125.5 51t-49.5 129t49.5 129t125.5 51zM211 427q41 0 70 30t29 83t-28.5 82.5t-70.5 29.5t-71 -29.5t-29 -82.5t29 -83t71 -30z" />
    <glyph glyph-name="p.ordn" horiz-adv-x="434" 
d="M322 540q0 49 -26 80t-69 31q-42 0 -69 -31t-27 -80t27 -80.5t69 -31.5t68.5 31t26.5 81zM132 237h-74v472h73v-49q13 25 42 41t68 16q73 0 114.5 -50t41.5 -127t-43.5 -128t-115.5 -51q-73 0 -106 50v-174z" />
    <glyph glyph-name="q.ordn" horiz-adv-x="433" 
d="M113 541q0 -50 26 -82t68 -32t68.5 32t26.5 82q0 49 -26.5 79.5t-68.5 30.5t-68 -30.5t-26 -79.5zM375 237h-74v176q-29 -52 -102 -52q-72 0 -117 52t-45 128q0 74 44 125.5t116 51.5q41 0 68 -17t38 -40v48h72v-472z" />
    <glyph glyph-name="r.ordn" horiz-adv-x="272" 
d="M252 712v-78q-15 3 -29 3q-90 0 -90 -102v-165h-75v339h73v-56q27 61 98 61q9 0 23 -2z" />
    <glyph glyph-name="s.ordn" horiz-adv-x="336" 
d="M33 461l67 20q2 -26 21 -43.5t51 -17.5q25 0 39.5 12.5t14.5 29.5q0 31 -41 40l-54 12q-41 9 -64.5 35.5t-23.5 61.5q0 45 36 77t87 32q62 0 93 -30t37 -64l-64 -20q-3 20 -18.5 36.5t-47.5 16.5q-23 0 -37.5 -12.5t-14.5 -28.5q0 -30 36 -38l53 -11q47 -10 71.5 -37
t24.5 -65q0 -42 -33.5 -74.5t-93.5 -32.5q-65 0 -99.5 32t-39.5 69z" />
    <glyph glyph-name="t.ordn" horiz-adv-x="267" 
d="M160 814v-105h72v-67h-72v-165q0 -44 45 -44q13 0 27 3v-63q-18 -7 -48 -7q-45 0 -72 26.5t-27 72.5v177h-63v67h18q26 0 39 14.5t13 38.5v52h68z" />
    <glyph glyph-name="u.ordn" horiz-adv-x="409" 
d="M280 410q-13 -24 -40 -37t-58 -13q-58 0 -93 38.5t-35 96.5v214h75v-201q0 -36 18 -58.5t54 -22.5t55.5 22t19.5 58v202h75v-277q0 -42 4 -62h-72q-3 12 -3 40z" />
    <glyph glyph-name="v.ordn" horiz-adv-x="365" 
d="M355 709l-134 -339h-75l-138 339h83l93 -250l91 250h80z" />
    <glyph glyph-name="w.ordn" horiz-adv-x="582" 
d="M255 709h77l84 -242l70 242h77l-109 -339h-76l-86 249l-85 -249h-78l-110 339h80l72 -242z" />
    <glyph glyph-name="x.ordn" horiz-adv-x="369" 
d="M16 370l124 172l-122 167h90l78 -113l77 113h87l-120 -166q77 -109 124 -173h-89l-82 118q-3 -5 -40 -59.5t-41 -58.5h-86z" />
    <glyph glyph-name="y.ordn" horiz-adv-x="374" 
d="M150 231h-81l83 178l-146 300h86l100 -222l96 222h79z" />
    <glyph glyph-name="z.ordn" horiz-adv-x="352" 
d="M313 370h-275v66l178 207h-174v66h268v-64l-179 -209h182v-66z" />
    <glyph glyph-name="numbersign.tf" 
d="M250 446l-38 -178h116l38 178h-116zM559 446h-105l-38 -178h94v-76h-110l-41 -192h-88l41 192h-116l-41 -192h-88l41 192h-93v76h109l38 178h-98v76h115l40 187h88l-40 -187h116l40 187h88l-40 -187h88v-76z" />
    <glyph glyph-name="dollar.tf" 
d="M153 515q0 -82 92 -102l10 -2v210q-45 -8 -73.5 -37.5t-28.5 -68.5zM435 193q0 83 -104 107v-214q49 9 76.5 38t27.5 69zM332 -114h-78v116q-98 11 -154.5 71t-64.5 137l85 25q6 -55 40.5 -96.5t94.5 -52.5v231l-29 7q-77 18 -121 65t-44 119q0 78 55 133t138 66v117h78
v-118q80 -10 127 -58.5t60 -112.5l-84 -27q-8 38 -33.5 69t-70.5 42v-224l18 -4q86 -18 133 -68t47 -123q0 -74 -53.5 -130.5t-143.5 -67.5v-116z" />
    <glyph glyph-name="percent.tf" 
d="M273 127q0 55 40.5 94t95.5 39t96 -39t41 -94q0 -56 -41 -95.5t-96 -39.5t-95.5 39.5t-40.5 95.5zM349 127q0 -27 17.5 -44.5t42.5 -17.5q26 0 43.5 17.5t17.5 44.5q0 26 -17.5 43t-43.5 17q-25 0 -42.5 -17t-17.5 -43zM22 580q0 55 40.5 94t95.5 39t96 -39t41 -94
q0 -56 -41 -95.5t-96 -39.5t-95.5 39.5t-40.5 95.5zM98 580q0 -27 17.5 -44.5t42.5 -17.5q26 0 43.5 17.5t17.5 44.5q0 26 -17.5 43t-43.5 17q-25 0 -42.5 -17t-17.5 -43zM530 570v-92l-482 -327v90z" />
    <glyph glyph-name="plus.tf" 
d="M58 388h187v195h82v-195h188v-79h-188v-197h-82v197h-187v79z" />
    <glyph glyph-name="zero.tf" 
d="M453 354q0 280 -167 280q-165 0 -165 -280t165 -280q167 0 167 280zM23 354q0 54 7 103t25 98.5t47 85.5t76 58.5t108 22.5t108.5 -22.5t76 -58.5t47 -85.5t25.5 -98.5t7 -103t-7 -102.5t-25 -98t-46.5 -85.5t-76.5 -58.5t-109 -22.5t-108.5 22.5t-76 58.5t-47 86
t-25 98.5t-6.5 101.5z" />
    <glyph glyph-name="one.tf" 
d="M87 88h172v430h-157v69q66 1 111 34.5t56 87.5h86v-621h157v-88h-425v88z" />
    <glyph glyph-name="two.tf" 
d="M530 0h-488q3 179 151 272l129 81q105 65 105 152q0 56 -37.5 93.5t-98.5 37.5q-69 0 -110.5 -42t-41.5 -111q0 -20 4 -37l-93 4q-4 22 -4 44q0 96 65.5 162t176.5 66q108 0 171.5 -61.5t63.5 -153.5q0 -130 -136 -214l-146 -90q-66 -42 -82 -113h371v-90z" />
    <glyph glyph-name="three.tf" 
d="M329 428q87 0 148 -59.5t61 -155.5q0 -95 -70.5 -160.5t-182.5 -65.5q-111 0 -181 62.5t-76 158.5l93 21q3 -70 49 -113t114 -43q70 0 113.5 40t43.5 102q0 65 -42 103t-109 38q-33 0 -66 -14l-43 71l214 206h-348v90h472v-81l-212 -203q12 3 22 3z" />
    <glyph glyph-name="four.tf" 
d="M347 250v352l-248 -352h248zM7 159v111l312 439h124v-459h122v-91h-122v-159h-96v159h-340z" />
    <glyph glyph-name="five.tf" 
d="M31 197l89 22q6 -63 50 -104.5t111 -41.5q70 0 113.5 42.5t43.5 109.5q0 72 -44 113.5t-113 41.5q-89 0 -141 -67l-89 33l77 363h374v-90h-307l-46 -217q25 28 67 43.5t84 15.5q106 0 170.5 -63.5t64.5 -171.5q0 -101 -69.5 -170t-184.5 -69q-104 0 -173 61t-77 149z" />
    <glyph glyph-name="six.tf" 
d="M137 227q0 -68 47 -112t112 -44q68 0 114.5 43.5t46.5 112.5q0 71 -45.5 114t-113.5 43t-114.5 -44.5t-46.5 -112.5zM118 349q22 52 75.5 85t127.5 33q102 0 167 -66t65 -172q0 -105 -74 -173.5t-182 -68.5q-120 0 -196 87t-76 238q0 195 102.5 302.5t261.5 107.5
q94 0 150 -37l-28 -82q-58 32 -127 32q-119 0 -188 -79.5t-78 -206.5z" />
    <glyph glyph-name="seven.tf" 
d="M550 709v-85q-266 -245 -303 -624h-101q11 122 46 230.5t83 185t84.5 121.5t75.5 82h-401v90h516z" />
    <glyph glyph-name="eight.tf" 
d="M287 402q64 1 101.5 34.5t37.5 86.5q0 51 -37.5 84t-101.5 33t-101.5 -33t-37.5 -84q0 -52 38 -86t101 -35zM287 -12q-113 0 -181 56t-68 144q0 62 38.5 110.5t101.5 65.5q-57 17 -91.5 63t-34.5 102q0 85 65.5 139.5t169.5 54.5t169.5 -54.5t65.5 -139.5
q0 -56 -34.5 -102t-92.5 -63q64 -17 102.5 -65.5t38.5 -110.5q0 -88 -68 -144t-181 -56zM287 325q-73 0 -113.5 -36.5t-40.5 -91.5q0 -54 41.5 -90.5t112.5 -36.5t112.5 36.5t41.5 90.5q0 55 -40.5 91.5t-113.5 36.5z" />
    <glyph glyph-name="nine.tf" 
d="M427 487q-1 68 -45 109t-110 41t-110 -42t-44 -110q0 -70 44 -112.5t111 -42.5t110.5 43.5t43.5 113.5zM448 344q-26 -42 -77 -69.5t-109 -27.5q-99 0 -168 63.5t-69 170.5q0 106 70.5 173.5t180.5 67.5q121 0 193.5 -88.5t72.5 -251.5q0 -195 -82 -295t-238 -100
q-52 0 -102.5 17t-77.5 44l31 77q22 -22 63 -37t84 -15q105 0 164.5 69.5t63.5 201.5z" />
    <glyph glyph-name="less.tf" 
d="M62 305v85l412 206v-95l-310 -153l310 -153v-95z" />
    <glyph glyph-name="equal.tf" 
d="M518 212h-463v79h463v-79zM518 407h-463v77h463v-77z" />
    <glyph glyph-name="greater.tf" 
d="M511 390v-85l-412 -205v95l312 153l-312 153v95z" />
    <glyph glyph-name="cent.tf" 
d="M151 350q0 -63 31 -106.5t83 -56.5v326q-52 -12 -83 -55.5t-31 -107.5zM437 416q-22 80 -96 97v-326q75 17 101 97l81 -30q-16 -59 -63.5 -103t-117.5 -54v-97h-78v98q-91 13 -148.5 82t-57.5 170t58 170.5t148 82.5v106h78v-107q70 -9 116 -51.5t62 -103.5z" />
    <glyph glyph-name="sterling.tf" 
d="M409 304h-170q6 -30 6 -46q0 -54 -23.5 -99t-61.5 -73h195q51 0 80.5 32.5t31.5 85.5l86 -14q-3 -86 -52 -138t-132 -52h-329v82q49 26 79.5 70t30.5 101q0 21 -7 51h-96v80h73q-34 78 -34 135q0 88 59.5 145.5t157.5 57.5q95 0 148 -54.5t57 -131.5l-84 -21
q-3 53 -35 87t-88 34q-52 0 -85 -31.5t-33 -89.5q0 -23 4.5 -43t16.5 -50t15 -38h190v-80z" />
    <glyph glyph-name="currency.tf" 
d="M160 347q0 -58 37.5 -95t92.5 -37t91.5 37t36.5 95q0 57 -36.5 94t-91.5 37t-92.5 -37t-37.5 -94zM77 347q0 66 37 121l-75 77l60 59l75 -78q54 35 116 35q60 0 111 -31l72 74l60 -59l-70 -73q41 -57 41 -125q0 -70 -40 -123l69 -71l-59 -59l-70 72q-52 -33 -114 -33
q-64 0 -119 37l-73 -76l-59 59l73 76q-35 54 -35 118z" />
    <glyph glyph-name="yen.tf" 
d="M52 374h147l-181 335h107l164 -311l164 311h102l-183 -335h149v-72h-186v-75h186v-72h-186v-155h-98v155h-185v72h185v75h-185v72z" />
    <glyph glyph-name="logicalnot.tf" 
d="M506 210h-84v195h-379v82h463v-277z" />
    <glyph glyph-name="plusminus.tf" 
d="M68 191h437v-79h-437v79zM68 447h177v136h82v-136h178v-77h-178v-134h-82v134h-177v77z" />
    <glyph glyph-name="multiply.tf" 
d="M455 116l-170 175l-168 -174l-56 56l169 176l-168 174l57 57l167 -174l167 174l57 -56l-169 -175l170 -176z" />
    <glyph glyph-name="divide.tf" 
d="M221 171q0 26 19.5 45t45.5 19t45 -19t19 -45t-19 -45.5t-45 -19.5t-45.5 19.5t-19.5 45.5zM58 307v83h457v-83h-457zM221 526q0 26 19.5 45t45.5 19t45 -19t19 -45t-19 -45.5t-45 -19.5t-45.5 19.5t-19.5 45.5z" />
    <glyph glyph-name="perthousand.tf" 
d="M425 162q-23 0 -39 -15.5t-16 -39.5t16 -39.5t39 -15.5t38 15.5t15 39.5t-15 39.5t-38 15.5zM254 162q-23 0 -39 -15.5t-16 -39.5t16 -39.5t39 -15.5t38 15.5t15 39.5t-15 39.5t-38 15.5zM134 107q0 49 35.5 83.5t84.5 34.5q50 0 85 -38q35 38 86 38q49 0 84.5 -34.5
t35.5 -83.5t-35.5 -83.5t-84.5 -34.5q-53 0 -86 38q-33 -38 -85 -38q-49 0 -84.5 34.5t-35.5 83.5zM19 596q0 49 35.5 83.5t84.5 34.5t84.5 -34.5t35.5 -83.5t-35.5 -83.5t-84.5 -34.5t-84.5 34.5t-35.5 83.5zM84 596q0 -24 16 -39.5t39 -15.5t38 15.5t15 39.5t-15 39.5
t-38 15.5t-39 -15.5t-16 -39.5zM530 662v-92l-482 -376v90z" />
    <glyph glyph-name="Euro.tf" 
d="M457 388h-264q-1 -12 -1 -37q0 -24 1 -35h244l-22 -75h-207q25 -78 83.5 -122t145.5 -44q49 0 90 13l21 -80q-60 -20 -117 -20q-123 0 -208.5 68t-114.5 185h-88v75h76q-1 11 -1 35q0 25 1 37h-76v75h88q31 119 119.5 188.5t207.5 69.5q71 0 122 -23l-28 -81
q-45 16 -93 16q-84 0 -143.5 -45t-84.5 -125h270z" />
    <glyph glyph-name="minus.tf" 
d="M498 309h-423v79h423v-79z" />
    <glyph glyph-name="approxequal.tf" 
d="M487 296l51 -45q-58 -83 -146 -83q-48 0 -100 30l-47 26q-32 17 -62 17q-52 0 -91 -45l-53 47q59 85 143 85q46 0 103 -31l46 -25q35 -20 70 -20q49 0 86 44zM487 490l51 -45q-58 -83 -146 -83q-48 0 -100 30l-47 26q-32 17 -62 17q-52 0 -91 -45l-53 47q59 85 143 85
q46 0 103 -31l46 -25q35 -20 70 -20q49 0 86 44z" />
    <glyph glyph-name="notequal.tf" 
d="M517 212h-272l-74 -100h-96l74 100h-95v79h153l85 116h-238v77h295l73 99h96l-73 -99h72v-77h-129l-85 -116h214v-79z" />
    <glyph glyph-name="lessequal.tf" 
d="M76 365v85l412 146v-84l-307 -104l307 -104v-84zM76 191h412v-79h-412v79z" />
    <glyph glyph-name="greaterequal.tf" 
d="M497 450v-85l-412 -145v84l307 104l-307 104v84zM85 191h412v-79h-412v79z" />
    <glyph glyph-name="one.ss05" horiz-adv-x="495" 
d="M48 88h172v430h-157v69q66 1 111 34.5t56 87.5h86v-621h157v-88h-425v88z" />
    <glyph glyph-name="florin.ss09" horiz-adv-x="407" 
d="M74 20l75 378h-110v83h127l23 113q14 72 60 108.5t105 36.5q42 0 74 -10v-83q-25 7 -53 7q-34 0 -59.5 -18t-36.5 -74l-16 -80h129v-83h-146l-82 -411q-14 -72 -60 -108.5t-105 -36.5q-45 0 -77 10v83q25 -7 56 -7q78 0 96 92z" />
    <glyph glyph-name="daggerdbl.ss09" horiz-adv-x="440" 
d="M52 230h127v249h-127v81h127v149h82v-149h127v-81h-127v-249h127v-81h-127v-149h-82v149h-127v81z" />
    <glyph glyph-name="caron.alt" horiz-adv-x="203" 
d="M168 709l-64 -179h-69l28 179h105z" />
    <glyph glyph-name="commaturn" horiz-adv-x="172" 
d="M149 586q0 -23 -17 -37.5t-42 -14.5t-45 18.5t-20 54.5q0 51 35 81.5t79 30.5v-40q-25 0 -44 -15t-21 -33q6 6 21 6q24 0 39 -13.5t15 -37.5z" />
    <glyph glyph-name="dieresis.narrow" horiz-adv-x="294" 
d="M164 621q0 23 15.5 38.5t37.5 15.5q23 0 38.5 -15.5t15.5 -38.5q0 -22 -15.5 -37.5t-38.5 -15.5t-38 15t-15 38zM23 621q0 23 15.5 38.5t37.5 15.5t38 -15.5t16 -38.5q0 -22 -15.5 -37.5t-38.5 -15.5q-22 0 -37.5 15t-15.5 38z" />
    <glyph glyph-name="dieresis.uc.narrow" horiz-adv-x="310" 
d="M178 819q0 22 15.5 37.5t38.5 15.5q22 0 37.5 -15t15.5 -38t-15.5 -38.5t-37.5 -15.5t-38 15.5t-16 38.5zM25 819q0 23 15.5 38t37.5 15q23 0 38.5 -15.5t15.5 -37.5q0 -23 -16 -38.5t-38 -15.5t-37.5 15.5t-15.5 38.5z" />
    <glyph glyph-name="grave.uc" horiz-adv-x="273" 
d="M156 759l-138 119h129l102 -119h-93z" />
    <glyph glyph-name="dieresis.uc" horiz-adv-x="407" 
d="M260 819q0 25 17 42t42 17t42 -17t17 -42t-17 -42t-42 -17t-42 17t-17 42zM29 819q0 25 17 42t42 17t42 -17t17 -42t-17 -42t-42 -17t-42 17t-17 42z" />
    <glyph glyph-name="macron.uc" horiz-adv-x="343" 
d="M318 779h-293v83h293v-83z" />
    <glyph glyph-name="acute.uc" horiz-adv-x="273" 
d="M255 878l-137 -119h-94l101 119h130z" />
    <glyph glyph-name="circumflex.uc" horiz-adv-x="403" 
d="M120 759h-91l112 119h120l117 -119h-92l-85 64z" />
    <glyph glyph-name="caron.uc" horiz-adv-x="403" 
d="M29 878h91l81 -64l85 64h92l-117 -119h-120z" />
    <glyph glyph-name="breve.uc" horiz-adv-x="371" 
d="M186 754q-71 0 -112.5 38.5t-44.5 90.5h81q2 -21 20.5 -38.5t55.5 -17.5t55 17.5t20 38.5h81q-3 -53 -44 -91t-112 -38z" />
    <glyph glyph-name="dotaccent.uc" horiz-adv-x="177" 
d="M25 818q0 26 18.5 45t44.5 19t45 -19t19 -45t-19 -44.5t-45 -18.5t-44.5 18.5t-18.5 44.5z" />
    <glyph glyph-name="ring.uc" horiz-adv-x="273" 
d="M183 848q0 20 -14 33.5t-34 13.5q-19 0 -32.5 -13.5t-13.5 -33.5t13.5 -33t32.5 -13q20 0 34 13.5t14 32.5zM248 848q0 -45 -33 -77t-79 -32q-45 0 -78 32t-33 77q0 46 33 78t78 32q46 0 79 -32t33 -78z" />
    <glyph glyph-name="tilde.uc" horiz-adv-x="373" 
d="M349 881v-16q0 -54 -26.5 -82.5t-69.5 -28.5q-38 0 -71 23l-15 10q-23 14 -37 14q-35 0 -35 -44h-68v16q0 54 27 82.5t70 28.5q35 0 73 -23l15 -9q25 -14 38 -14q32 0 32 35v8h67z" />
    <glyph glyph-name="hungarumlaut.uc" horiz-adv-x="367" 
d="M342 878l-106 -119h-70l71 119h105zM191 878l-96 -119h-70l61 119h105z" />
    <glyph glyph-name="caron.alt.uc" horiz-adv-x="203" 
d="M176 709l-68 -190h-73l30 190h111z" />
    <glyph glyph-name="undercommaaccent" horiz-adv-x="174" 
d="M25 -88q0 22 17.5 37t41.5 15q26 0 45.5 -18t19.5 -55q0 -54 -34.5 -83t-79.5 -29v40q25 0 44 15t21 33q-9 -6 -21 -6q-24 0 -39 13t-15 38z" />
    </font>
</defs>
</svg>
